<?xml version="1.0" encoding="utf-8"?>
<!-- Generator: Adobe Illustrator 22.1.0, SVG Export Plug-In . SVG Version: 6.00 Build 0)  -->
<svg version="1.1" id="Camada_1" xmlns="http://www.w3.org/2000/svg" xmlns:xlink="http://www.w3.org/1999/xlink" x="0px" y="0px"
	 viewBox="0 0 150 95.8" style="enable-background:new 0 0 150 95.8;" xml:space="preserve">
<style type="text/css">
	.st0{fill:#FFFFFF;}
	.st1{fill-rule:evenodd;clip-rule:evenodd;fill:#FFFFFF;}
</style>
<g>
	<path class="st0" d="M109.4,66.8h-7L91.2,41v0H70.8c-3.6,0-5.4,1.1-5.4,3.2c0,2.1,1.8,3.2,5.4,3.2h9.7c7.2,0,10.7,3.2,10.7,9.7
		c0,6.4-3.6,9.7-10.7,9.7H54.7L44.2,42.6L33.7,66.8h-7l14-32.2h7l11.2,25.8v0h20.4c3.6,0,5.4-1.1,5.4-3.2c0-2.1-1.8-3.2-5.4-3.2
		h-9.7c-7.2,0-10.7-3.2-10.7-9.7c0-6.4,3.6-9.7,10.7-9.7h25.7l10.5,24.1l10.5-24.1h7L109.4,66.8z"/>
</g>
</svg>
