<?xml version="1.0" encoding="utf-8"?>
<!-- Generator: Adobe Illustrator 22.1.0, SVG Export Plug-In . SVG Version: 6.00 Build 0)  -->
<svg version="1.1" id="Camada_1" xmlns="http://www.w3.org/2000/svg" xmlns:xlink="http://www.w3.org/1999/xlink" x="0px" y="0px"
	 viewBox="0 0 317.5 112.6" style="enable-background:new 0 0 317.5 112.6;" xml:space="preserve">
<style type="text/css">
	.st0{fill:#FFFFFF;}
	.st1{fill-rule:evenodd;clip-rule:evenodd;fill:#FFFFFF;}
</style>
<g>
	<path class="st0" d="M37.4,32.5c-0.4,0.8-0.9,1.5-1.6,2.1c-0.7,0.6-1.5,1-2.5,1.3s-2,0.4-3.2,0.4c-1.6,0-3.2-0.3-4.8-0.8
		s-3-1.4-4.3-2.6l2.8-3.3c1,0.8,2,1.4,3,1.9c1,0.5,2.2,0.7,3.4,0.7c1,0,1.7-0.2,2.3-0.5c0.5-0.4,0.8-0.9,0.8-1.5v-0.1
		c0-0.3-0.1-0.6-0.2-0.8c-0.1-0.2-0.3-0.5-0.6-0.7c-0.3-0.2-0.8-0.4-1.3-0.6c-0.6-0.2-1.3-0.4-2.2-0.6c-1.1-0.3-2.1-0.6-2.9-0.9
		c-0.9-0.3-1.6-0.7-2.2-1.2c-0.6-0.5-1.1-1.1-1.4-1.8s-0.5-1.6-0.5-2.7v-0.1c0-1,0.2-1.9,0.5-2.6c0.4-0.8,0.9-1.5,1.5-2
		s1.4-1,2.4-1.3c0.9-0.3,1.9-0.5,3-0.5c1.6,0,3,0.2,4.3,0.7s2.5,1.1,3.6,2l-2.4,3.5c-1-0.7-1.9-1.2-2.8-1.5
		c-0.9-0.4-1.8-0.6-2.8-0.6c-0.9,0-1.6,0.2-2.1,0.5c-0.5,0.4-0.7,0.8-0.7,1.3v0.1c0,0.3,0.1,0.6,0.2,0.9c0.1,0.3,0.4,0.5,0.7,0.7
		c0.3,0.2,0.8,0.4,1.4,0.6c0.6,0.2,1.4,0.4,2.3,0.6c1.1,0.3,2,0.6,2.9,1c0.8,0.4,1.6,0.8,2.1,1.3c0.6,0.5,1,1.1,1.3,1.8
		c0.3,0.7,0.4,1.5,0.4,2.4v0.1C37.9,30.7,37.7,31.7,37.4,32.5z"/>
	<path class="st0" d="M55,28.8c0,0.2,0,0.4,0,0.6H43.5c0.2,1.1,0.7,1.9,1.4,2.4c0.7,0.5,1.6,0.8,2.6,0.8c0.8,0,1.5-0.1,2.1-0.4
		c0.6-0.3,1.2-0.7,1.9-1.3l2.7,2.4c-0.8,1-1.7,1.7-2.8,2.2s-2.4,0.8-3.9,0.8c-1.2,0-2.4-0.2-3.4-0.6c-1.1-0.4-2-1-2.7-1.7
		c-0.8-0.8-1.4-1.6-1.8-2.7c-0.4-1-0.6-2.2-0.6-3.4v-0.1c0-1.2,0.2-2.3,0.6-3.3c0.4-1,1-1.9,1.7-2.7c0.7-0.8,1.6-1.4,2.6-1.8
		c1-0.4,2.1-0.7,3.3-0.7c1.4,0,2.5,0.2,3.5,0.7c1,0.5,1.8,1.1,2.5,2c0.7,0.8,1.2,1.8,1.5,2.8c0.3,1.1,0.5,2.2,0.5,3.3v0.1
		C55,28.5,55,28.7,55,28.8z M49.4,24c-0.6-0.6-1.4-1-2.4-1s-1.8,0.3-2.4,0.9c-0.6,0.6-1,1.5-1.2,2.5h7C50.3,25.5,50,24.6,49.4,24z"
		/>
	<path class="st0" d="M68.3,35.5c-1,0.6-2.3,0.8-4,0.8c-1.2,0-2.4-0.2-3.4-0.7c-1.1-0.4-2-1.1-2.7-1.8s-1.3-1.7-1.8-2.7
		c-0.4-1-0.6-2.1-0.6-3.3v-0.1c0-1.2,0.2-2.3,0.6-3.3c0.4-1,1-1.9,1.8-2.7C59,21,59.9,20.4,61,20c1-0.4,2.2-0.7,3.5-0.7
		c1.5,0,2.8,0.2,3.9,0.7c1,0.5,1.9,1.2,2.7,2l-2.8,3.1c-0.5-0.6-1.1-1-1.6-1.3c-0.6-0.3-1.3-0.5-2.1-0.5c-0.6,0-1.1,0.1-1.6,0.4
		c-0.5,0.2-0.9,0.6-1.3,1c-0.4,0.4-0.6,0.9-0.8,1.4c-0.2,0.5-0.3,1.1-0.3,1.7v0.1c0,0.6,0.1,1.2,0.3,1.8c0.2,0.5,0.5,1,0.8,1.4
		c0.4,0.4,0.8,0.7,1.3,1s1.1,0.4,1.7,0.4c0.8,0,1.5-0.2,2-0.5c0.6-0.3,1.2-0.7,1.7-1.3l2.7,2.8C70.3,34.2,69.4,35,68.3,35.5z"/>
	<path class="st0" d="M81.9,24.2c-1.5,0-2.8,0.5-3.7,1.4s-1.3,2.4-1.3,4.4V36h-4.6V19.6h4.6v3.3c0.5-1.1,1.1-2,1.9-2.7
		s1.9-1,3.3-0.9v4.9H81.9z"/>
	<path class="st0" d="M98.5,28.8c0,0.2,0,0.4,0,0.6H87c0.2,1.1,0.7,1.9,1.4,2.4c0.7,0.5,1.6,0.8,2.6,0.8c0.8,0,1.5-0.1,2.1-0.4
		s1.2-0.7,1.9-1.3l2.7,2.4c-0.8,1-1.7,1.7-2.8,2.2c-1.1,0.5-2.4,0.8-3.9,0.8c-1.2,0-2.4-0.2-3.4-0.6c-1.1-0.4-2-1-2.7-1.7
		c-0.8-0.8-1.4-1.6-1.8-2.7c-0.4-1-0.6-2.2-0.6-3.4v-0.1c0-1.2,0.2-2.3,0.6-3.3s1-1.9,1.7-2.7c0.7-0.8,1.6-1.4,2.6-1.8
		c1-0.4,2.1-0.7,3.3-0.7c1.4,0,2.5,0.2,3.5,0.7c1,0.5,1.8,1.1,2.5,2c0.7,0.8,1.2,1.8,1.5,2.8c0.3,1.1,0.5,2.2,0.5,3.3v0.1
		C98.5,28.5,98.5,28.7,98.5,28.8z M92.9,24c-0.6-0.6-1.4-1-2.4-1c-1,0-1.8,0.3-2.4,0.9c-0.6,0.6-1,1.5-1.2,2.5h7
		C93.8,25.5,93.5,24.6,92.9,24z"/>
	<path class="st0" d="M107.7,36c-0.6,0.2-1.3,0.3-2,0.3c-0.7,0-1.4-0.1-1.9-0.2s-1.1-0.4-1.5-0.8c-0.4-0.4-0.7-0.9-1-1.5
		s-0.4-1.4-0.4-2.4v-7.8h-2v-4h2v-4.2h4.6v4.2h3.9v4h-3.9v7c0,1.1,0.5,1.6,1.5,1.6c0.8,0,1.6-0.2,2.3-0.6v3.7
		C108.8,35.6,108.3,35.8,107.7,36z"/>
	<path class="st0" d="M120.6,36v-1.8c-0.6,0.6-1.3,1.1-2,1.5c-0.8,0.4-1.8,0.6-2.9,0.6c-0.8,0-1.5-0.1-2.2-0.3
		c-0.7-0.2-1.3-0.5-1.8-1c-0.5-0.4-0.9-1-1.2-1.6s-0.4-1.3-0.4-2.2v-0.1c0-0.9,0.2-1.7,0.5-2.3c0.3-0.7,0.8-1.2,1.4-1.6
		c0.6-0.4,1.3-0.7,2.1-1c0.8-0.2,1.7-0.3,2.7-0.3c0.8,0,1.6,0.1,2.2,0.2s1.2,0.3,1.8,0.5v-0.3c0-1-0.3-1.7-0.9-2.2s-1.5-0.8-2.6-0.8
		c-0.9,0-1.7,0.1-2.4,0.2c-0.7,0.2-1.4,0.4-2.2,0.7l-1.2-3.5c0.9-0.4,1.8-0.7,2.8-0.9c1-0.2,2.2-0.4,3.5-0.4c2.5,0,4.4,0.6,5.6,1.9
		c1.2,1.2,1.7,3,1.7,5.2V36H120.6z M120.7,29.4c-0.4-0.2-0.9-0.3-1.4-0.4c-0.5-0.1-1-0.2-1.6-0.2c-1,0-1.8,0.2-2.4,0.6
		c-0.6,0.4-0.9,0.9-0.9,1.7v0.1c0,0.6,0.2,1.1,0.7,1.5c0.5,0.3,1.1,0.5,1.8,0.5c1.1,0,2-0.3,2.6-0.8s1-1.2,1-2.1V29.4z M115.8,17.8
		l3.5-5.4l4,1.7l-3.9,3.7H115.8z"/>
	<path class="st0" d="M136.9,24.2c-1.5,0-2.8,0.5-3.7,1.4c-0.9,0.9-1.3,2.4-1.3,4.4V36h-4.6V19.6h4.6v3.3c0.5-1.1,1.1-2,1.9-2.7
		s1.9-1,3.3-0.9v4.9H136.9z"/>
	<path class="st0" d="M138.3,17.8v-4.1h4.9v4.1H138.3z M138.4,36V19.6h4.6V36H138.4z"/>
	<path class="st0" d="M155.2,36v-1.8c-0.6,0.6-1.3,1.1-2,1.5s-1.8,0.6-2.9,0.6c-0.8,0-1.5-0.1-2.2-0.3c-0.7-0.2-1.3-0.5-1.8-1
		c-0.5-0.4-0.9-1-1.2-1.6c-0.3-0.6-0.4-1.3-0.4-2.2v-0.1c0-0.9,0.2-1.7,0.5-2.3c0.3-0.7,0.8-1.2,1.4-1.6c0.6-0.4,1.3-0.7,2.1-1
		c0.8-0.2,1.7-0.3,2.7-0.3c0.8,0,1.6,0.1,2.2,0.2c0.6,0.1,1.2,0.3,1.8,0.5v-0.3c0-1-0.3-1.7-0.9-2.2c-0.6-0.5-1.5-0.8-2.6-0.8
		c-0.9,0-1.7,0.1-2.4,0.2s-1.4,0.4-2.2,0.7l-1.2-3.5c0.9-0.4,1.8-0.7,2.8-0.9c1-0.2,2.2-0.4,3.5-0.4c2.5,0,4.4,0.6,5.6,1.9
		c1.2,1.2,1.7,3,1.7,5.2V36H155.2z M155.3,29.4c-0.4-0.2-0.9-0.3-1.4-0.4c-0.5-0.1-1-0.2-1.6-0.2c-1,0-1.8,0.2-2.4,0.6
		c-0.6,0.4-0.9,0.9-0.9,1.7v0.1c0,0.6,0.2,1.1,0.7,1.5c0.5,0.3,1.1,0.5,1.8,0.5c1.1,0,2-0.3,2.6-0.8c0.7-0.5,1-1.2,1-2.1V29.4z"/>
	<path class="st0" d="M33.8,64.3V62c-0.6,0.8-1.3,1.4-2.1,1.9c-0.8,0.5-1.8,0.7-3,0.7c-1,0-1.9-0.2-2.8-0.6
		c-0.9-0.4-1.7-0.9-2.4-1.6c-0.7-0.7-1.2-1.6-1.7-2.7c-0.4-1-0.6-2.3-0.6-3.6v-0.1c0-1.4,0.2-2.6,0.6-3.6c0.4-1,1-1.9,1.7-2.7
		s1.5-1.3,2.4-1.6s1.8-0.6,2.8-0.6c1.2,0,2.3,0.2,3.1,0.7c0.8,0.5,1.5,1.1,2,1.7V42h4.6v22.3H33.8z M33.9,56.1
		c0-0.7-0.1-1.3-0.3-1.9s-0.5-1-0.9-1.4c-0.4-0.4-0.8-0.7-1.3-0.9c-0.5-0.2-1-0.3-1.5-0.3s-1.1,0.1-1.5,0.3
		c-0.5,0.2-0.9,0.5-1.3,0.9c-0.4,0.4-0.7,0.9-0.9,1.4c-0.2,0.6-0.3,1.2-0.3,1.9v0.1c0,0.7,0.1,1.3,0.3,1.9s0.5,1,0.9,1.4
		c0.4,0.4,0.8,0.7,1.3,0.9c0.5,0.2,1,0.3,1.5,0.3s1.1-0.1,1.5-0.3c0.5-0.2,0.9-0.5,1.3-0.9c0.4-0.4,0.6-0.9,0.9-1.4
		S33.9,56.9,33.9,56.1L33.9,56.1z"/>
	<path class="st0" d="M56.1,57.2c0,0.2,0,0.4,0,0.6H44.6c0.2,1.1,0.7,1.9,1.4,2.4c0.7,0.5,1.6,0.8,2.6,0.8c0.8,0,1.5-0.1,2.1-0.4
		s1.2-0.7,1.9-1.3l2.7,2.4c-0.8,1-1.7,1.7-2.8,2.2c-1.1,0.5-2.4,0.8-3.9,0.8c-1.2,0-2.4-0.2-3.4-0.6c-1.1-0.4-2-1-2.7-1.7
		c-0.8-0.8-1.4-1.6-1.8-2.7c-0.4-1-0.6-2.2-0.6-3.4v-0.1c0-1.2,0.2-2.3,0.6-3.3s1-1.9,1.7-2.7c0.7-0.8,1.6-1.4,2.6-1.8
		c1-0.4,2.1-0.7,3.3-0.7c1.4,0,2.5,0.2,3.5,0.7c1,0.5,1.8,1.1,2.5,2c0.7,0.8,1.2,1.8,1.5,2.8c0.3,1.1,0.5,2.2,0.5,3.3v0.1
		C56.1,56.8,56.1,57,56.1,57.2z M50.4,52.3c-0.6-0.6-1.4-1-2.4-1c-1,0-1.8,0.3-2.4,0.9c-0.6,0.6-1,1.5-1.2,2.5h7
		C51.4,53.8,51,53,50.4,52.3z"/>
	<path class="st0" d="M84.4,57.9c-0.6,1.3-1.3,2.4-2.3,3.4c-1,1-2.2,1.7-3.6,2.3c-1.4,0.6-2.9,0.8-4.6,0.8h-8.3V42.9h8.3
		c1.7,0,3.2,0.3,4.6,0.8c1.4,0.5,2.6,1.3,3.6,2.2c1,1,1.8,2.1,2.3,3.4c0.5,1.3,0.8,2.7,0.8,4.2v0.1C85.3,55.1,85,56.6,84.4,57.9z
		 M80.3,53.6c0-0.9-0.2-1.8-0.5-2.6c-0.3-0.8-0.8-1.5-1.3-2c-0.6-0.6-1.2-1-2-1.3c-0.8-0.3-1.7-0.5-2.6-0.5h-3.6v12.9h3.6
		c1,0,1.8-0.2,2.6-0.5c0.8-0.3,1.5-0.7,2-1.3c0.6-0.6,1-1.2,1.3-2C80.2,55.5,80.3,54.7,80.3,53.6L80.3,53.6z"/>
	<path class="st0" d="M102.4,57.2c0,0.2,0,0.4,0,0.6H90.9c0.2,1.1,0.7,1.9,1.4,2.4c0.7,0.5,1.6,0.8,2.6,0.8c0.8,0,1.5-0.1,2.1-0.4
		s1.2-0.7,1.9-1.3l2.7,2.4c-0.8,1-1.7,1.7-2.8,2.2c-1.1,0.5-2.4,0.8-3.9,0.8c-1.2,0-2.4-0.2-3.4-0.6c-1.1-0.4-2-1-2.7-1.7
		c-0.8-0.8-1.4-1.6-1.8-2.7c-0.4-1-0.6-2.2-0.6-3.4v-0.1c0-1.2,0.2-2.3,0.6-3.3s1-1.9,1.7-2.7c0.7-0.8,1.6-1.4,2.6-1.8
		c1-0.4,2.1-0.7,3.3-0.7c1.4,0,2.5,0.2,3.5,0.7c1,0.5,1.8,1.1,2.5,2c0.7,0.8,1.2,1.8,1.5,2.8c0.3,1.1,0.5,2.2,0.5,3.3v0.1
		C102.4,56.8,102.4,57,102.4,57.2z M96.8,52.3c-0.6-0.6-1.4-1-2.4-1c-1,0-1.8,0.3-2.4,0.9c-0.6,0.6-1,1.5-1.2,2.5h7
		C97.7,53.8,97.4,53,96.8,52.3z"/>
	<path class="st0" d="M115.6,61.7c-0.3,0.7-0.8,1.2-1.3,1.6c-0.6,0.4-1.2,0.7-2,1c-0.8,0.2-1.6,0.3-2.5,0.3c-1.2,0-2.4-0.2-3.6-0.6
		c-1.2-0.4-2.4-1-3.5-1.9l2-3.1c0.9,0.7,1.8,1.1,2.7,1.5c0.9,0.3,1.7,0.5,2.5,0.5c0.7,0,1.2-0.1,1.5-0.3c0.3-0.2,0.5-0.5,0.5-0.9
		v-0.1c0-0.2-0.1-0.5-0.3-0.6c-0.2-0.2-0.4-0.3-0.8-0.5c-0.3-0.1-0.7-0.3-1.1-0.4s-0.8-0.3-1.3-0.4c-0.6-0.2-1.1-0.4-1.7-0.6
		s-1.1-0.5-1.6-0.9c-0.5-0.4-0.9-0.8-1.1-1.4c-0.3-0.6-0.4-1.2-0.4-2v-0.1c0-0.8,0.2-1.6,0.5-2.2c0.3-0.6,0.7-1.2,1.3-1.6
		c0.5-0.4,1.2-0.8,1.9-1c0.7-0.2,1.5-0.3,2.3-0.3c1,0,2.1,0.2,3.2,0.5c1.1,0.3,2.1,0.8,3,1.4l-1.8,3.2c-0.8-0.5-1.6-0.8-2.4-1.1
		c-0.8-0.3-1.5-0.4-2-0.4c-0.6,0-1,0.1-1.3,0.3c-0.3,0.2-0.4,0.5-0.4,0.8v0.1c0,0.2,0.1,0.4,0.3,0.6c0.2,0.2,0.4,0.3,0.7,0.5
		c0.3,0.2,0.7,0.3,1.1,0.4s0.8,0.3,1.3,0.4c0.6,0.2,1.2,0.4,1.7,0.7c0.6,0.3,1.1,0.6,1.6,0.9c0.5,0.4,0.9,0.8,1.2,1.3
		c0.3,0.5,0.5,1.2,0.5,1.9v0.1C116,60.3,115.9,61.1,115.6,61.7z"/>
	<path class="st0" d="M132.8,57.2c0,0.2,0,0.4,0,0.6h-11.4c0.2,1.1,0.7,1.9,1.4,2.4c0.7,0.5,1.6,0.8,2.6,0.8c0.8,0,1.5-0.1,2.1-0.4
		c0.6-0.3,1.2-0.7,1.9-1.3l2.7,2.4c-0.8,1-1.7,1.7-2.8,2.2s-2.4,0.8-3.9,0.8c-1.2,0-2.4-0.2-3.4-0.6c-1.1-0.4-2-1-2.7-1.7
		c-0.8-0.8-1.4-1.6-1.8-2.7c-0.4-1-0.6-2.2-0.6-3.4v-0.1c0-1.2,0.2-2.3,0.6-3.3s1-1.9,1.7-2.7c0.7-0.8,1.6-1.4,2.6-1.8
		c1-0.4,2.1-0.7,3.3-0.7c1.4,0,2.5,0.2,3.5,0.7c1,0.5,1.8,1.1,2.5,2s1.2,1.8,1.5,2.8c0.3,1.1,0.5,2.2,0.5,3.3v0.1
		C132.8,56.8,132.8,57,132.8,57.2z M127.2,52.3c-0.6-0.6-1.4-1-2.4-1c-1,0-1.8,0.3-2.4,0.9s-1,1.5-1.2,2.5h7
		C128.2,53.8,127.8,53,127.2,52.3z"/>
	<path class="st0" d="M144.8,64.3v-9.1c0-1.1-0.2-1.9-0.7-2.5c-0.5-0.6-1.2-0.8-2.1-0.8c-0.9,0-1.6,0.3-2.1,0.8
		c-0.5,0.6-0.8,1.4-0.8,2.5v9.1h-4.6V48h4.6v2.3c0.3-0.3,0.6-0.7,0.9-1c0.3-0.3,0.7-0.6,1.1-0.8c0.4-0.2,0.8-0.4,1.3-0.6
		c0.5-0.1,1-0.2,1.6-0.2c1.8,0,3.1,0.5,4.1,1.6c1,1.1,1.5,2.6,1.5,4.5v10.6H144.8z"/>
	<path class="st0" d="M160.9,64.5h-4.2L150.2,48h4.9l3.7,11l3.7-11h4.8L160.9,64.5z"/>
	<path class="st0" d="M184.5,59.5c-0.4,1-1.1,1.9-1.9,2.7s-1.7,1.4-2.8,1.8c-1.1,0.4-2.3,0.7-3.5,0.7c-1.3,0-2.4-0.2-3.5-0.7
		c-1.1-0.4-2-1-2.8-1.8s-1.4-1.7-1.9-2.7c-0.4-1-0.7-2.1-0.7-3.3v-0.1c0-1.2,0.2-2.3,0.7-3.3c0.4-1,1.1-1.9,1.9-2.7
		c0.8-0.8,1.7-1.4,2.8-1.8c1.1-0.4,2.3-0.7,3.5-0.7c1.3,0,2.4,0.2,3.5,0.7c1.1,0.4,2,1,2.8,1.8c0.8,0.8,1.4,1.7,1.9,2.7
		c0.4,1,0.7,2.1,0.7,3.3v0.1C185.1,57.4,184.9,58.5,184.5,59.5z M180.5,56.2c0-0.6-0.1-1.2-0.3-1.7c-0.2-0.5-0.5-1-0.9-1.4
		c-0.4-0.4-0.8-0.8-1.4-1c-0.5-0.2-1.1-0.4-1.7-0.4c-0.7,0-1.3,0.1-1.8,0.4c-0.5,0.2-1,0.6-1.3,1s-0.6,0.9-0.8,1.4
		c-0.2,0.5-0.3,1.1-0.3,1.7v0.1c0,0.6,0.1,1.2,0.3,1.7c0.2,0.5,0.5,1,0.9,1.4c0.4,0.4,0.8,0.7,1.4,1c0.5,0.2,1.1,0.4,1.8,0.4
		c0.7,0,1.3-0.1,1.8-0.4c0.5-0.2,1-0.6,1.3-1c0.4-0.4,0.6-0.9,0.8-1.4C180.5,57.4,180.5,56.9,180.5,56.2L180.5,56.2z"/>
	<path class="st0" d="M186.9,64.3V42h4.6v22.3H186.9z"/>
	<path class="st0" d="M203.3,64.5h-4.2L192.6,48h4.9l3.7,11l3.7-11h4.8L203.3,64.5z"/>
	<path class="st0" d="M210.7,46.1V42h4.9v4.1H210.7z M210.8,64.3V48h4.6v16.4H210.8z"/>
	<path class="st0" d="M238.3,64.3v-9.1c0-1.1-0.2-1.9-0.7-2.5c-0.5-0.6-1.1-0.8-2-0.8c-0.9,0-1.6,0.3-2.1,0.8
		c-0.5,0.6-0.7,1.4-0.7,2.5v9.1h-4.6v-9.1c0-1.1-0.2-1.9-0.7-2.5c-0.5-0.6-1.1-0.8-2-0.8s-1.6,0.3-2.1,0.8c-0.5,0.6-0.7,1.4-0.7,2.5
		v9.1H218V48h4.6v2.3c0.3-0.3,0.6-0.7,0.9-1c0.3-0.3,0.7-0.6,1.1-0.8c0.4-0.2,0.8-0.4,1.3-0.6c0.5-0.1,1-0.2,1.6-0.2
		c1.1,0,2,0.2,2.8,0.7c0.8,0.5,1.4,1.1,1.8,1.9c0.7-0.9,1.5-1.5,2.4-2c0.9-0.4,1.9-0.7,3-0.7c1.7,0,3.1,0.5,4.1,1.5
		c1,1,1.5,2.5,1.5,4.5v10.7H238.3z"/>
	<path class="st0" d="M260.5,57.2c0,0.2,0,0.4,0,0.6H249c0.2,1.1,0.7,1.9,1.4,2.4c0.7,0.5,1.6,0.8,2.6,0.8c0.8,0,1.5-0.1,2.1-0.4
		c0.6-0.3,1.2-0.7,1.9-1.3l2.7,2.4c-0.8,1-1.7,1.7-2.8,2.2c-1.1,0.5-2.4,0.8-3.9,0.8c-1.2,0-2.4-0.2-3.4-0.6c-1.1-0.4-2-1-2.7-1.7
		c-0.8-0.8-1.4-1.6-1.8-2.7c-0.4-1-0.6-2.2-0.6-3.4v-0.1c0-1.2,0.2-2.3,0.6-3.3s1-1.9,1.7-2.7c0.7-0.8,1.6-1.4,2.6-1.8
		c1-0.4,2.1-0.7,3.3-0.7c1.4,0,2.5,0.2,3.5,0.7c1,0.5,1.8,1.1,2.5,2s1.2,1.8,1.5,2.8c0.3,1.1,0.5,2.2,0.5,3.3v0.1
		C260.5,56.8,260.5,57,260.5,57.2z M254.9,52.3c-0.6-0.6-1.4-1-2.4-1c-1,0-1.8,0.3-2.4,0.9s-1,1.5-1.2,2.5h7
		C255.8,53.8,255.5,53,254.9,52.3z"/>
	<path class="st0" d="M272.5,64.3v-9.1c0-1.1-0.2-1.9-0.7-2.5c-0.5-0.6-1.2-0.8-2.1-0.8c-0.9,0-1.6,0.3-2.1,0.8
		c-0.5,0.6-0.8,1.4-0.8,2.5v9.1h-4.6V48h4.6v2.3c0.3-0.3,0.6-0.7,0.9-1c0.3-0.3,0.7-0.6,1.1-0.8c0.4-0.2,0.8-0.4,1.3-0.6
		c0.5-0.1,1-0.2,1.6-0.2c1.8,0,3.1,0.5,4.1,1.6c1,1.1,1.5,2.6,1.5,4.5v10.6H272.5z"/>
	<path class="st0" d="M286.9,64.4c-0.6,0.2-1.3,0.3-2,0.3c-0.7,0-1.4-0.1-1.9-0.2s-1.1-0.4-1.5-0.8c-0.4-0.4-0.7-0.9-1-1.5
		c-0.2-0.6-0.4-1.4-0.4-2.4v-7.8h-2v-4h2v-4.2h4.6V48h3.9v4h-3.9v7c0,1.1,0.5,1.6,1.5,1.6c0.8,0,1.6-0.2,2.3-0.6v3.7
		C288,64,287.5,64.2,286.9,64.4z"/>
	<path class="st0" d="M306.5,59.5c-0.4,1-1.1,1.9-1.9,2.7c-0.8,0.8-1.7,1.4-2.8,1.8s-2.3,0.7-3.5,0.7c-1.3,0-2.4-0.2-3.5-0.7
		c-1.1-0.4-2-1-2.8-1.8c-0.8-0.8-1.4-1.7-1.9-2.7c-0.4-1-0.7-2.1-0.7-3.3v-0.1c0-1.2,0.2-2.3,0.7-3.3c0.4-1,1.1-1.9,1.9-2.7
		c0.8-0.8,1.7-1.4,2.8-1.8c1.1-0.4,2.3-0.7,3.5-0.7c1.3,0,2.4,0.2,3.5,0.7c1.1,0.4,2,1,2.8,1.8c0.8,0.8,1.4,1.7,1.9,2.7
		c0.4,1,0.7,2.1,0.7,3.3v0.1C307.1,57.4,306.9,58.5,306.5,59.5z M302.5,56.2c0-0.6-0.1-1.2-0.3-1.7c-0.2-0.5-0.5-1-0.9-1.4
		c-0.4-0.4-0.8-0.8-1.4-1c-0.5-0.2-1.1-0.4-1.7-0.4c-0.7,0-1.3,0.1-1.8,0.4c-0.5,0.2-1,0.6-1.3,1c-0.4,0.4-0.6,0.9-0.8,1.4
		c-0.2,0.5-0.3,1.1-0.3,1.7v0.1c0,0.6,0.1,1.2,0.3,1.7c0.2,0.5,0.5,1,0.9,1.4c0.4,0.4,0.8,0.7,1.4,1c0.5,0.2,1.1,0.4,1.8,0.4
		c0.7,0,1.3-0.1,1.8-0.4s1-0.6,1.3-1c0.4-0.4,0.6-0.9,0.8-1.4C302.4,57.4,302.5,56.9,302.5,56.2L302.5,56.2z"/>
	<path class="st0" d="M22.5,92.7V71.3h16.1v4.2H27.1v4.3h10.1V84H27.1v4.5h11.6v4.2H22.5z"/>
	<path class="st0" d="M52.3,92.2c-1,0.6-2.3,0.8-4,0.8c-1.2,0-2.4-0.2-3.4-0.7c-1.1-0.4-2-1.1-2.7-1.8s-1.3-1.7-1.8-2.7
		c-0.4-1-0.6-2.1-0.6-3.3v-0.1c0-1.2,0.2-2.3,0.6-3.3c0.4-1,1-1.9,1.8-2.7c0.8-0.8,1.7-1.4,2.7-1.8c1-0.4,2.2-0.7,3.5-0.7
		c1.5,0,2.8,0.2,3.9,0.7c1,0.5,1.9,1.2,2.7,2l-2.8,3.1c-0.5-0.6-1.1-1-1.6-1.3c-0.6-0.3-1.3-0.5-2.1-0.5c-0.6,0-1.1,0.1-1.6,0.4
		c-0.5,0.2-0.9,0.6-1.3,1c-0.4,0.4-0.6,0.9-0.8,1.4c-0.2,0.5-0.3,1.1-0.3,1.7v0.1c0,0.6,0.1,1.2,0.3,1.8c0.2,0.5,0.5,1,0.8,1.4
		c0.4,0.4,0.8,0.7,1.3,1s1.1,0.4,1.7,0.4c0.8,0,1.5-0.2,2-0.5c0.6-0.3,1.2-0.7,1.7-1.3l2.7,2.8C54.3,90.9,53.4,91.7,52.3,92.2z"/>
	<path class="st0" d="M72.5,87.8c-0.4,1-1.1,1.9-1.9,2.7s-1.7,1.4-2.8,1.8c-1.1,0.4-2.3,0.7-3.5,0.7c-1.3,0-2.4-0.2-3.5-0.7
		c-1.1-0.4-2-1-2.8-1.8s-1.4-1.7-1.9-2.7c-0.4-1-0.7-2.1-0.7-3.3v-0.1c0-1.2,0.2-2.3,0.7-3.3c0.4-1,1.1-1.9,1.9-2.7
		c0.8-0.8,1.7-1.4,2.8-1.8c1.1-0.4,2.3-0.7,3.5-0.7c1.3,0,2.4,0.2,3.5,0.7c1.1,0.4,2,1,2.8,1.8c0.8,0.8,1.4,1.7,1.9,2.7
		c0.4,1,0.7,2.1,0.7,3.3v0.1C73.2,85.7,73,86.8,72.5,87.8z M68.6,84.5c0-0.6-0.1-1.2-0.3-1.7c-0.2-0.5-0.5-1-0.9-1.4
		c-0.4-0.4-0.8-0.8-1.4-1c-0.5-0.2-1.1-0.4-1.7-0.4c-0.7,0-1.3,0.1-1.8,0.4c-0.5,0.2-1,0.6-1.3,1s-0.6,0.9-0.8,1.4
		c-0.2,0.5-0.3,1.1-0.3,1.7v0.1c0,0.6,0.1,1.2,0.3,1.7c0.2,0.5,0.5,1,0.9,1.4c0.4,0.4,0.8,0.7,1.4,1c0.5,0.2,1.1,0.4,1.8,0.4
		c0.7,0,1.3-0.1,1.8-0.4c0.5-0.2,1-0.6,1.3-1c0.4-0.4,0.6-0.9,0.8-1.4C68.5,85.8,68.6,85.2,68.6,84.5L68.6,84.5z"/>
	<path class="st0" d="M85.1,92.7v-9.1c0-1.1-0.2-1.9-0.7-2.5c-0.5-0.6-1.2-0.8-2.1-0.8c-0.9,0-1.6,0.3-2.1,0.8
		c-0.5,0.6-0.8,1.4-0.8,2.5v9.1h-4.6V76.3h4.6v2.3c0.3-0.3,0.6-0.7,0.9-1s0.7-0.6,1.1-0.8c0.4-0.2,0.8-0.4,1.3-0.6
		c0.5-0.1,1-0.2,1.6-0.2c1.8,0,3.1,0.5,4.1,1.6c1,1.1,1.5,2.6,1.5,4.5v10.6H85.1z"/>
	<path class="st0" d="M108.2,87.8c-0.4,1-1.1,1.9-1.9,2.7s-1.7,1.4-2.8,1.8c-1.1,0.4-2.3,0.7-3.5,0.7c-1.3,0-2.4-0.2-3.5-0.7
		c-1.1-0.4-2-1-2.8-1.8s-1.4-1.7-1.9-2.7c-0.4-1-0.7-2.1-0.7-3.3v-0.1c0-1.2,0.2-2.3,0.7-3.3c0.4-1,1.1-1.9,1.9-2.7
		c0.8-0.8,1.7-1.4,2.8-1.8c1.1-0.4,2.3-0.7,3.5-0.7c1.3,0,2.4,0.2,3.5,0.7c1.1,0.4,2,1,2.8,1.8c0.8,0.8,1.4,1.7,1.9,2.7
		c0.4,1,0.7,2.1,0.7,3.3v0.1C108.9,85.7,108.7,86.8,108.2,87.8z M97.6,74.5h-3.5l3.8-4.8h4.4l3.8,4.8h-3.6l-2.4-2L97.6,74.5z
		 M104.3,84.5c0-0.6-0.1-1.2-0.3-1.7c-0.2-0.5-0.5-1-0.9-1.4c-0.4-0.4-0.8-0.8-1.4-1c-0.5-0.2-1.1-0.4-1.7-0.4
		c-0.7,0-1.3,0.1-1.8,0.4c-0.5,0.2-1,0.6-1.3,1s-0.6,0.9-0.8,1.4c-0.2,0.5-0.3,1.1-0.3,1.7v0.1c0,0.6,0.1,1.2,0.3,1.7
		c0.2,0.5,0.5,1,0.9,1.4c0.4,0.4,0.8,0.7,1.4,1c0.5,0.2,1.1,0.4,1.8,0.4c0.7,0,1.3-0.1,1.8-0.4c0.5-0.2,1-0.6,1.3-1
		c0.4-0.4,0.6-0.9,0.8-1.4C104.2,85.8,104.3,85.2,104.3,84.5L104.3,84.5z"/>
	<path class="st0" d="M130.8,92.7v-9.1c0-1.1-0.2-1.9-0.7-2.5c-0.5-0.6-1.1-0.8-2-0.8c-0.9,0-1.6,0.3-2.1,0.8
		c-0.5,0.6-0.7,1.4-0.7,2.5v9.1h-4.6v-9.1c0-1.1-0.2-1.9-0.7-2.5c-0.5-0.6-1.1-0.8-2-0.8c-0.9,0-1.6,0.3-2.1,0.8
		c-0.5,0.6-0.7,1.4-0.7,2.5v9.1h-4.6V76.3h4.6v2.3c0.3-0.3,0.6-0.7,0.9-1s0.7-0.6,1.1-0.8c0.4-0.2,0.8-0.4,1.3-0.6
		c0.5-0.1,1-0.2,1.6-0.2c1.1,0,2,0.2,2.8,0.7c0.8,0.5,1.4,1.1,1.8,1.9c0.7-0.9,1.5-1.5,2.4-2c0.9-0.4,1.9-0.7,3-0.7
		c1.7,0,3.1,0.5,4.1,1.5c1,1,1.5,2.5,1.5,4.5v10.7H130.8z"/>
	<path class="st0" d="M137.7,74.5v-4.1h4.9v4.1H137.7z M137.9,92.7V76.3h4.6v16.4H137.9z"/>
	<path class="st0" d="M156.8,92.2c-1,0.6-2.3,0.8-4,0.8c-1.2,0-2.4-0.2-3.4-0.7c-1.1-0.4-2-1.1-2.7-1.8s-1.3-1.7-1.8-2.7
		c-0.4-1-0.6-2.1-0.6-3.3v-0.1c0-1.2,0.2-2.3,0.6-3.3s1-1.9,1.8-2.7c0.8-0.8,1.7-1.4,2.7-1.8c1-0.4,2.2-0.7,3.5-0.7
		c1.5,0,2.8,0.2,3.9,0.7c1,0.5,1.9,1.2,2.7,2l-2.8,3.1c-0.5-0.6-1.1-1-1.6-1.3c-0.6-0.3-1.3-0.5-2.1-0.5c-0.6,0-1.1,0.1-1.6,0.4
		c-0.5,0.2-0.9,0.6-1.3,1c-0.4,0.4-0.6,0.9-0.8,1.4s-0.3,1.1-0.3,1.7v0.1c0,0.6,0.1,1.2,0.3,1.8c0.2,0.5,0.5,1,0.8,1.4
		c0.4,0.4,0.8,0.7,1.3,1c0.5,0.2,1.1,0.4,1.7,0.4c0.8,0,1.5-0.2,2-0.5s1.2-0.7,1.7-1.3l2.7,2.8C158.7,90.9,157.8,91.7,156.8,92.2z"
		/>
	<path class="st0" d="M176.9,87.8c-0.4,1-1.1,1.9-1.9,2.7c-0.8,0.8-1.7,1.4-2.8,1.8s-2.3,0.7-3.5,0.7c-1.3,0-2.4-0.2-3.5-0.7
		c-1.1-0.4-2-1-2.8-1.8c-0.8-0.8-1.4-1.7-1.9-2.7c-0.4-1-0.7-2.1-0.7-3.3v-0.1c0-1.2,0.2-2.3,0.7-3.3c0.4-1,1.1-1.9,1.9-2.7
		c0.8-0.8,1.7-1.4,2.8-1.8c1.1-0.4,2.3-0.7,3.5-0.7c1.3,0,2.4,0.2,3.5,0.7c1.1,0.4,2,1,2.8,1.8c0.8,0.8,1.4,1.7,1.9,2.7
		c0.4,1,0.7,2.1,0.7,3.3v0.1C177.6,85.7,177.4,86.8,176.9,87.8z M173,84.5c0-0.6-0.1-1.2-0.3-1.7c-0.2-0.5-0.5-1-0.9-1.4
		c-0.4-0.4-0.8-0.8-1.4-1c-0.5-0.2-1.1-0.4-1.7-0.4c-0.7,0-1.3,0.1-1.8,0.4c-0.5,0.2-1,0.6-1.3,1c-0.4,0.4-0.6,0.9-0.8,1.4
		c-0.2,0.5-0.3,1.1-0.3,1.7v0.1c0,0.6,0.1,1.2,0.3,1.7c0.2,0.5,0.5,1,0.9,1.4c0.4,0.4,0.8,0.7,1.4,1c0.5,0.2,1.1,0.4,1.8,0.4
		c0.7,0,1.3-0.1,1.8-0.4s1-0.6,1.3-1c0.4-0.4,0.6-0.9,0.8-1.4C172.9,85.8,173,85.2,173,84.5L173,84.5z"/>
</g>
</svg>
