<?xml version="1.0" encoding="utf-8"?>
<!-- Generator: Adobe Illustrator 23.0.2, SVG Export Plug-In . SVG Version: 6.00 Build 0)  -->
<svg version="1.1" id="Camada_1" xmlns="http://www.w3.org/2000/svg" xmlns:xlink="http://www.w3.org/1999/xlink" x="0px" y="0px"
	 viewBox="0 0 172.7 130.1" style="enable-background:new 0 0 172.7 130.1;" xml:space="preserve">
<style type="text/css">
	.st0{fill:none;stroke:#8BA2AD;stroke-width:0.7;stroke-miterlimit:10;}
	.st1{fill:none;stroke:#8BA2AD;stroke-width:0.65;stroke-miterlimit:10;}
</style>
<path class="st0" d="M110.7,66.9c-0.9,0-1.7,1.3-2.2,3.2c0,0,0,0,0,0c-1.5,0.2-3,0.3-4.5,0.4h0c-0.3-1-0.8-1.7-1.3-1.7
	c-0.6,0-1,0.7-1.3,1.7c0,0,0,0,0,0c-1,0-2,0-2.9-0.1c-0.3-5.7-1.8-11.1-4.3-16c0.8-0.5,1.7-1,2.5-1.5c0,0,0,0,0,0
	c0.8,0.7,1.5,1.1,2,0.8c0.5-0.3,0.6-1.1,0.3-2.1c1.3-0.7,2.7-1.3,4.1-1.9c1.3,1.5,2.7,2.2,3.5,1.7c1.2-0.7,0.8-3.6-0.9-6.5
	c-1.7-2.9-4-4.7-5.2-4.1c-0.8,0.5-0.8,2-0.2,3.9c0,0,0,0,0,0c-1.2,0.9-2.4,1.8-3.7,2.5c0,0,0,0,0,0c-0.8-0.7-1.5-1-2-0.8
	c-0.5,0.3-0.6,1.1-0.3,2.1c0,0,0,0,0,0c-0.8,0.5-1.7,1-2.6,1.4c-3.1-4.6-7-8.6-11.7-11.7c0.4-0.9,0.9-1.7,1.4-2.6c0,0,0,0,0,0
	c1,0.3,1.9,0.2,2.1-0.3c0.3-0.5-0.1-1.2-0.8-2c0,0,0,0,0,0c0.8-1.3,1.6-2.5,2.5-3.7c0,0,0,0,0,0c1.9,0.6,3.4,0.6,3.9-0.2
	c0.7-1.2-1.1-3.5-4.1-5.2c-2.9-1.7-5.8-2.1-6.5-0.9c-0.5,0.8,0.3,2.2,1.7,3.5c0,0,0,0,0,0c-0.6,1.4-1.2,2.7-1.9,4.1
	c-1-0.2-1.8-0.1-2.1,0.3c-0.3,0.5,0.1,1.2,0.8,2c0,0,0,0,0,0c-0.5,0.8-1,1.7-1.5,2.5c-4.9-2.4-10.3-3.9-16-4.3c-0.1-1-0.1-2-0.1-2.9
	c1-0.3,1.7-0.8,1.7-1.3c0-0.5-0.6-1-1.6-1.3c0,0,0,0,0,0c0.1-1.5,0.2-3,0.4-4.5c0,0,0,0,0,0c1.9-0.4,3.2-1.2,3.2-2.2
	c0-1.3-2.7-2.4-6.1-2.4c-3.4,0-6.1,1.1-6.1,2.4c0,0.9,1.3,1.7,3.2,2.2c0,0,0,0,0,0c0.2,1.5,0.3,3,0.4,4.5c0,0,0,0,0,0
	c-1,0.3-1.6,0.8-1.6,1.3c0,0.6,0.7,1,1.7,1.3c0,1,0,2-0.1,2.9c-5.7,0.3-11.1,1.8-16,4.3c-0.5-0.8-1-1.7-1.5-2.5c0,0,0,0,0,0
	c0.7-0.8,1.1-1.5,0.8-2c-0.3-0.5-1.1-0.6-2.1-0.3c0,0,0,0,0,0c-0.7-1.3-1.3-2.7-1.9-4.1c1.5-1.3,2.2-2.7,1.7-3.5
	c-0.7-1.2-3.6-0.7-6.5,0.9c-2.9,1.7-4.7,4-4.1,5.2c0.5,0.8,2,0.8,3.9,0.2c0,0,0,0,0,0c0.9,1.2,1.8,2.4,2.5,3.7c0,0,0,0,0,0
	c-0.7,0.8-1,1.5-0.8,2c0.3,0.5,1.1,0.6,2.1,0.3c0,0,0,0,0,0c0.5,0.8,1,1.7,1.4,2.6c-4.6,3.1-8.6,7.1-11.7,11.7
	c-0.9-0.4-1.7-0.9-2.6-1.4c0.3-1.1,0.2-1.9-0.3-2.2c-0.5-0.3-1.2,0-2,0.8c-1.3-0.8-2.5-1.7-3.7-2.5c0.6-1.9,0.5-3.4-0.3-3.9
	c-1.2-0.7-3.5,1.1-5.2,4.1c-1.7,2.9-2.1,5.8-0.9,6.5c0.8,0.5,2.2-0.3,3.5-1.7c1.4,0.6,2.8,1.2,4.1,1.9c-0.2,1-0.1,1.8,0.3,2.1
	c0.5,0.3,1.2-0.1,2-0.8c0.8,0.5,1.7,1,2.5,1.5v0c-2.4,4.9-3.9,10.3-4.3,16c-1,0.1-2,0.1-2.9,0.1c-0.3-1-0.8-1.7-1.3-1.7
	c-0.5,0-1,0.6-1.3,1.6c-1.5-0.1-3-0.2-4.5-0.4c-0.4-1.9-1.2-3.2-2.2-3.2c-1.3,0-2.4,2.7-2.4,6.1c0,3.4,1.1,6.1,2.4,6.1
	c0.9,0,1.7-1.3,2.2-3.2c1.5-0.2,3-0.3,4.5-0.3c0.3,1,0.8,1.6,1.3,1.6c0.5,0,1-0.7,1.3-1.7c1,0,2,0,2.9,0.1c0.3,5.7,1.8,11.1,4.3,16
	c-0.8,0.5-1.7,1-2.5,1.5c0,0,0,0,0,0c-0.8-0.7-1.5-1.1-2-0.8c-0.5,0.3-0.6,1.1-0.3,2.1c-1.3,0.7-2.7,1.3-4.1,1.9
	c-1.3-1.5-2.7-2.2-3.5-1.7c-1.2,0.7-0.7,3.6,0.9,6.5c1.7,2.9,4,4.7,5.2,4.1c0.8-0.5,0.8-2,0.2-3.9c0,0,0,0,0,0c0,0,0,0,0,0
	c1.2-0.9,2.4-1.8,3.7-2.5c0,0,0,0,0,0c0.8,0.7,1.5,1,2,0.8c0.5-0.3,0.6-1.1,0.3-2.1h0c0.8-0.5,1.7-1,2.6-1.4
	c3.1,4.6,7.1,8.6,11.7,11.7c-0.4,0.9-0.9,1.7-1.4,2.6c0,0,0,0,0,0c-1-0.2-1.9-0.2-2.1,0.3c-0.3,0.5,0.1,1.2,0.8,2c0,0,0,0,0,0
	c-0.8,1.3-1.6,2.5-2.5,3.7c0,0,0,0,0,0c-1.9-0.6-3.4-0.6-3.9,0.2c-0.7,1.2,1.1,3.5,4.1,5.2c2.9,1.7,5.8,2.1,6.5,0.9
	c0.5-0.8-0.3-2.2-1.7-3.5c0,0,0,0,0,0c0.6-1.4,1.2-2.7,1.9-4.1c0,0,0,0,0,0c1,0.2,1.8,0.1,2.1-0.3c0.3-0.5-0.1-1.2-0.8-2
	c0,0,0,0,0,0c0.5-0.8,1-1.7,1.5-2.5c4.9,2.4,10.3,3.9,16,4.3c0.1,1,0.1,2,0.1,2.9c0,0,0,0,0,0c-1,0.3-1.7,0.8-1.7,1.3
	c0,0.5,0.6,1,1.6,1.3c0,0,0,0,0,0c0,1.5-0.2,3-0.3,4.5c-1.9,0.4-3.2,1.2-3.2,2.2c0,1.4,2.7,2.4,6.1,2.4c3.4,0,6.1-1.1,6.1-2.4
	c0-0.9-1.3-1.7-3.2-2.2c-0.2-1.5-0.3-3-0.3-4.5c0,0,0,0,0,0c1-0.3,1.6-0.8,1.6-1.3c0-0.6-0.7-1-1.7-1.3c0,0,0,0,0,0c0-1,0-2,0.1-2.9
	c5.7-0.3,11.1-1.8,16-4.3c0.5,0.8,1,1.7,1.5,2.5c0,0,0,0,0,0c-0.7,0.8-1.1,1.5-0.8,2c0.3,0.5,1.1,0.6,2.1,0.3c0,0,0,0,0,0
	c0.7,1.3,1.3,2.7,1.9,4.1c0,0,0,0,0,0c-1.5,1.3-2.2,2.7-1.7,3.5c0.7,1.2,3.6,0.7,6.5-0.9c2.9-1.7,4.7-4,4.1-5.2
	c-0.5-0.8-2-0.8-3.9-0.2c0,0,0,0,0,0c-0.9-1.2-1.8-2.4-2.5-3.7c0,0,0,0,0,0c0.7-0.8,1-1.5,0.8-2c-0.3-0.5-1.1-0.6-2.1-0.3
	c0,0,0,0,0,0c-0.5-0.8-1-1.7-1.4-2.6c4.6-3.1,8.6-7,11.7-11.7c0.9,0.4,1.7,0.9,2.6,1.4c0,0,0,0,0,0c-0.3,1-0.2,1.9,0.3,2.1
	c0.5,0.3,1.2-0.1,2-0.8c0,0,0,0,0,0c1.3,0.8,2.5,1.7,3.7,2.5c0,0,0,0,0,0c-0.6,1.9-0.6,3.4,0.2,3.9c1.2,0.7,3.5-1.1,5.2-4.1
	c1.7-2.9,2.1-5.8,0.9-6.5c-0.8-0.5-2.2,0.3-3.5,1.7c-1.4-0.6-2.7-1.2-4.1-1.9c0.2-1,0.1-1.8-0.3-2.1c-0.5-0.3-1.2,0.1-2,0.8
	c0,0,0,0,0,0c-0.8-0.5-1.7-1-2.5-1.5c2.4-4.8,3.9-10.3,4.3-16c1-0.1,2-0.1,2.9-0.1c0.3,1,0.8,1.7,1.3,1.7c0.5,0,1-0.6,1.3-1.6
	c0,0,0,0,0,0c1.5,0,3,0.2,4.5,0.3c0,0,0,0,0,0c0.4,1.9,1.2,3.2,2.2,3.2c1.4,0,2.4-2.7,2.4-6.1C113.1,69.6,112,66.9,110.7,66.9z"/>
<ellipse transform="matrix(0.9787 -0.2051 0.2051 0.9787 -8.2223 10.092)" class="st0" cx="44.6" cy="44.7" rx="3.7" ry="3.2"/>
<ellipse transform="matrix(0.8476 -0.5306 0.5306 0.8476 -28.2787 50.9545)" class="st0" cx="74.6" cy="74.7" rx="2.2" ry="1.9"/>
<ellipse transform="matrix(0.8476 -0.5306 0.5306 0.8476 -41.0188 50.5927)" class="st0" cx="67.6" cy="96.7" rx="2.2" ry="1.9"/>
<ellipse transform="matrix(0.9787 -0.2051 0.2051 0.9787 -14.5875 8.6788)" class="st0" cx="34.6" cy="74.7" rx="3.7" ry="3.2"/>
<path class="st1" d="M169.4,26.3c-0.5,0-0.9,0.7-1.1,1.6c0,0,0,0,0,0c-0.8,0.1-1.5,0.2-2.3,0.2h0c-0.2-0.5-0.4-0.8-0.7-0.8
	c-0.3,0-0.5,0.3-0.7,0.9c0,0,0,0,0,0c-0.5,0-1,0-1.5,0c-0.2-2.9-0.9-5.6-2.2-8.1c0.4-0.3,0.8-0.5,1.3-0.8c0,0,0,0,0,0
	c0.4,0.4,0.8,0.5,1,0.4c0.2-0.1,0.3-0.5,0.2-1.1c0.7-0.4,1.4-0.7,2.1-1c0.7,0.7,1.4,1.1,1.8,0.9c0.6-0.3,0.4-1.8-0.5-3.3
	c-0.9-1.5-2-2.4-2.6-2.1c-0.4,0.2-0.4,1-0.1,2c0,0,0,0,0,0c-0.6,0.5-1.2,0.9-1.9,1.3c0,0,0,0,0,0c-0.4-0.4-0.8-0.5-1-0.4
	c-0.2,0.1-0.3,0.6-0.2,1.1c0,0,0,0,0,0c-0.4,0.3-0.9,0.5-1.3,0.7c-1.6-2.3-3.6-4.4-5.9-5.9c0.2-0.4,0.5-0.9,0.7-1.3c0,0,0,0,0,0
	c0.5,0.1,0.9,0.1,1.1-0.2c0.1-0.2,0-0.6-0.4-1c0,0,0,0,0,0c0.4-0.6,0.8-1.3,1.3-1.9c0,0,0,0,0,0c0.9,0.3,1.7,0.3,2-0.1
	c0.3-0.6-0.6-1.8-2.1-2.6c-1.5-0.9-3-1.1-3.3-0.5c-0.2,0.4,0.1,1.1,0.9,1.8c0,0,0,0,0,0c-0.3,0.7-0.6,1.4-1,2.1
	c-0.5-0.1-0.9-0.1-1.1,0.2c-0.1,0.2,0,0.6,0.4,1c0,0,0,0,0,0c-0.2,0.4-0.5,0.9-0.8,1.3c-2.5-1.2-5.2-2-8.1-2.2c0-0.5,0-1,0-1.5
	c0.5-0.2,0.9-0.4,0.9-0.7c0-0.3-0.3-0.5-0.8-0.7c0,0,0,0,0,0c0-0.8,0.1-1.5,0.2-2.3c0,0,0,0,0,0c1-0.2,1.6-0.6,1.6-1.1
	c0-0.7-1.4-1.2-3.1-1.2c-1.7,0-3.1,0.6-3.1,1.2c0,0.5,0.7,0.9,1.6,1.1c0,0,0,0,0,0c0.1,0.8,0.2,1.5,0.2,2.3c0,0,0,0,0,0
	c-0.5,0.2-0.8,0.4-0.8,0.7c0,0.3,0.3,0.5,0.9,0.7c0,0.5,0,1,0,1.5c-2.9,0.2-5.6,0.9-8.1,2.2c-0.3-0.4-0.5-0.8-0.8-1.3c0,0,0,0,0,0
	c0.4-0.4,0.5-0.8,0.4-1c-0.1-0.2-0.5-0.3-1.1-0.2c0,0,0,0,0,0c-0.4-0.7-0.7-1.4-1-2.1c0.7-0.7,1.1-1.4,0.9-1.8
	C131,3.7,129.5,4,128,4.8c-1.5,0.9-2.4,2-2.1,2.6c0.2,0.4,1,0.4,2,0.1c0,0,0,0,0,0c0.5,0.6,0.9,1.2,1.3,1.9c0,0,0,0,0,0
	c-0.4,0.4-0.5,0.8-0.4,1c0.1,0.2,0.6,0.3,1.1,0.2c0,0,0,0,0,0c0.2,0.4,0.5,0.9,0.7,1.3c-2.3,1.6-4.4,3.6-5.9,5.9
	c-0.4-0.2-0.9-0.5-1.3-0.7c0.1-0.5,0.1-0.9-0.2-1.1c-0.2-0.1-0.6,0-1,0.4c-0.6-0.4-1.3-0.8-1.9-1.3c0.3-0.9,0.3-1.7-0.1-2
	c-0.6-0.3-1.8,0.6-2.6,2.1c-0.9,1.5-1.1,3-0.5,3.3c0.4,0.2,1.1-0.1,1.8-0.9c0.7,0.3,1.4,0.6,2.1,1c-0.1,0.5-0.1,0.9,0.2,1.1
	c0.2,0.1,0.6,0,1-0.4c0.4,0.2,0.9,0.5,1.3,0.8v0c-1.2,2.5-2,5.2-2.2,8.1c-0.5,0-1,0-1.5,0c-0.2-0.5-0.4-0.9-0.7-0.9
	c-0.3,0-0.5,0.3-0.7,0.8c-0.8,0-1.5-0.1-2.3-0.2c-0.2-1-0.6-1.6-1.1-1.6c-0.7,0-1.2,1.4-1.2,3.1c0,1.7,0.6,3.1,1.2,3.1
	c0.5,0,0.9-0.7,1.1-1.6c0.8-0.1,1.5-0.2,2.3-0.2c0.2,0.5,0.4,0.8,0.7,0.8c0.3,0,0.5-0.3,0.7-0.9c0.5,0,1,0,1.5,0
	c0.2,2.9,0.9,5.6,2.2,8.1c-0.4,0.3-0.8,0.5-1.3,0.8c0,0,0,0,0,0c-0.4-0.4-0.8-0.6-1-0.4c-0.2,0.1-0.3,0.5-0.2,1.1
	c-0.7,0.4-1.4,0.7-2.1,1c-0.7-0.7-1.4-1.1-1.8-0.9c-0.6,0.3-0.4,1.8,0.5,3.3c0.9,1.5,2,2.4,2.6,2.1c0.4-0.2,0.4-1,0.1-2c0,0,0,0,0,0
	c0,0,0,0,0,0c0.6-0.5,1.2-0.9,1.9-1.3c0,0,0,0,0,0c0.4,0.4,0.8,0.5,1,0.4c0.2-0.1,0.3-0.6,0.2-1.1h0c0.4-0.2,0.9-0.5,1.3-0.7
	c1.6,2.3,3.6,4.4,5.9,5.9c-0.2,0.4-0.5,0.9-0.7,1.3c0,0,0,0,0,0c-0.5-0.1-0.9-0.1-1.1,0.2c-0.1,0.2,0,0.6,0.4,1c0,0,0,0,0,0
	c-0.4,0.6-0.8,1.3-1.3,1.9c0,0,0,0,0,0c-0.9-0.3-1.7-0.3-2,0.1c-0.3,0.6,0.6,1.8,2.1,2.6c1.5,0.9,3,1.1,3.3,0.5
	c0.2-0.4-0.1-1.1-0.9-1.8c0,0,0,0,0,0c0.3-0.7,0.6-1.4,1-2.1c0,0,0,0,0,0c0.5,0.1,0.9,0.1,1.1-0.2c0.1-0.2,0-0.6-0.4-1c0,0,0,0,0,0
	c0.2-0.4,0.5-0.8,0.8-1.3c2.5,1.2,5.2,2,8.1,2.2c0,0.5,0,1,0,1.5c0,0,0,0,0,0c-0.5,0.2-0.9,0.4-0.9,0.7c0,0.3,0.3,0.5,0.8,0.7
	c0,0,0,0,0,0c0,0.8-0.1,1.5-0.2,2.3c-1,0.2-1.6,0.6-1.6,1.1c0,0.7,1.4,1.2,3.1,1.2c1.7,0,3.1-0.6,3.1-1.2c0-0.5-0.7-0.9-1.6-1.1
	c-0.1-0.8-0.2-1.5-0.2-2.3c0,0,0,0,0,0c0.5-0.2,0.8-0.4,0.8-0.7c0-0.3-0.3-0.5-0.9-0.7c0,0,0,0,0,0c0-0.5,0-1,0-1.5
	c2.9-0.2,5.6-0.9,8.1-2.2c0.3,0.4,0.5,0.8,0.8,1.3c0,0,0,0,0,0c-0.4,0.4-0.6,0.8-0.4,1c0.1,0.2,0.5,0.3,1.1,0.2c0,0,0,0,0,0
	c0.4,0.7,0.7,1.4,1,2.1c0,0,0,0,0,0c-0.7,0.7-1.1,1.4-0.9,1.8c0.3,0.6,1.8,0.4,3.3-0.5c1.5-0.9,2.4-2,2.1-2.6c-0.2-0.4-1-0.4-2-0.1
	c0,0,0,0,0,0c-0.5-0.6-0.9-1.2-1.3-1.9c0,0,0,0,0,0c0.4-0.4,0.5-0.8,0.4-1c-0.1-0.2-0.6-0.3-1.1-0.2c0,0,0,0,0,0
	c-0.2-0.4-0.5-0.9-0.7-1.3c2.3-1.6,4.4-3.6,5.9-5.9c0.4,0.2,0.9,0.5,1.3,0.7c0,0,0,0,0,0c-0.1,0.5-0.1,0.9,0.2,1.1
	c0.2,0.1,0.6,0,1-0.4c0,0,0,0,0,0c0.6,0.4,1.3,0.8,1.9,1.3c0,0,0,0,0,0c-0.3,0.9-0.3,1.7,0.1,2c0.6,0.3,1.8-0.6,2.6-2.1
	c0.9-1.5,1.1-3,0.5-3.3c-0.4-0.2-1.1,0.1-1.8,0.9c-0.7-0.3-1.4-0.6-2.1-1c0.1-0.5,0.1-0.9-0.2-1.1c-0.2-0.1-0.6,0-1,0.4c0,0,0,0,0,0
	c-0.4-0.3-0.9-0.5-1.3-0.8c1.2-2.5,2-5.2,2.2-8.1c0.5,0,1,0,1.5,0c0.2,0.5,0.4,0.9,0.7,0.9c0.3,0,0.5-0.3,0.7-0.8c0,0,0,0,0,0
	c0.8,0,1.5,0.1,2.3,0.2c0,0,0,0,0,0c0.2,1,0.6,1.6,1.1,1.6c0.7,0,1.2-1.4,1.2-3.1C170.7,27.7,170.1,26.3,169.4,26.3z"/>
<ellipse transform="matrix(0.9787 -0.2051 0.2051 0.9787 -0.2046 28.202)" class="st1" cx="135.9" cy="15.1" rx="1.9" ry="1.6"/>
<ellipse transform="matrix(0.8476 -0.5306 0.5306 0.8476 6.9586 84.8211)" class="st1" cx="151.2" cy="30.3" rx="1.1" ry="1"/>
<ellipse transform="matrix(0.8476 -0.5306 0.5306 0.8476 1.1834 85.0159)" class="st1" cx="148.6" cy="40.4" rx="1.1" ry="1"/>
<ellipse transform="matrix(0.9787 -0.2051 0.2051 0.9787 -3.4312 27.4857)" class="st1" cx="130.9" cy="30.3" rx="1.9" ry="1.6"/>
</svg>
