<?xml version="1.0" encoding="utf-8"?>
<!-- Generator: Adobe Illustrator 23.0.2, SVG Export Plug-In . SVG Version: 6.00 Build 0)  -->
<svg version="1.1" id="Camada_1" xmlns="http://www.w3.org/2000/svg" xmlns:xlink="http://www.w3.org/1999/xlink" x="0px" y="0px"
	 viewBox="0 0 100 100" style="enable-background:new 0 0 100 100;" xml:space="preserve">
<style type="text/css">
	.st0{clip-path:url(#SVGID_2_);fill:#FFFFFF;}
	.st1{clip-path:url(#SVGID_2_);}
	.st2{fill:#D6D6D6;}
	.st3{fill:#2F2B2A;}
	.st4{fill:#2A2929;}
	.st5{fill:#2C2828;}
	.st6{fill:#36302F;}
	.st7{fill:#312D2C;}
	.st8{fill:#2E2C2C;}
	.st9{fill:#3C3333;}
	.st10{fill:#333333;}
	.st11{fill:#3F3737;}
	.st12{fill:#B4B4B4;}
	.st13{fill:#A6AAA9;}
	.st14{fill:#313131;}
	.st15{fill:#AAABAA;}
	.st16{fill:#E7DADC;}
	.st17{fill:#B5B4B4;}
	.st18{fill:#616060;}
	.st19{fill:#838886;}
	.st20{fill:#FEEBEA;}
	.st21{fill:#919390;}
	.st22{fill:#52504D;}
	.st23{fill:#342D2C;}
	.st24{fill:#38302F;}
	.st25{fill:#322C2B;}
	.st26{fill:#353030;}
	.st27{fill:#E5E4E3;}
	.st28{fill:#A19495;}
	.st29{fill:#9F9595;}
	.st30{fill:#978B8B;}
	.st31{fill:#A69998;}
	.st32{fill:#A29B9D;}
	.st33{fill:#B4ACAA;}
	.st34{fill:#9B9292;}
	.st35{fill:#A29897;}
	.st36{fill:#877D77;}
	.st37{fill:#A99A9B;}
	.st38{fill:#A79698;}
	.st39{fill:#A09794;}
	.st40{fill:#9B928F;}
	.st41{fill:#9F928F;}
	.st42{fill:#9C8A8B;}
	.st43{fill:#B8A6A8;}
	.st44{fill:#8A8383;}
	.st45{fill:#9E9593;}
	.st46{fill:#918484;}
	.st47{fill:#A6A2A0;}
	.st48{fill:#917F7E;}
	.st49{fill:#816C6E;}
	.st50{fill:#8F7C7C;}
	.st51{fill:#362D2C;}
	.st52{fill:#F7F7F7;}
	.st53{fill:#463E3C;}
	.st54{fill:#9A8989;}
	.st55{fill:#9E9090;}
	.st56{fill:#A19A9D;}
	.st57{fill:#A19698;}
	.st58{fill:#978E8E;}
	.st59{fill:#A99D9F;}
	.st60{fill:#4C4745;}
	.st61{fill:#A39395;}
	.st62{fill:#BEB4B8;}
	.st63{fill:#937A7A;}
	.st64{fill:#B8ABAD;}
	.st65{fill:#8A7E7A;}
	.st66{fill:#8B8082;}
	.st67{fill:#9C8E8C;}
	.st68{fill:#9A9499;}
	.st69{fill:#FEFDFD;}
	.st70{fill:#EFEEEE;}
	.st71{fill:#FEFEFE;}
	.st72{fill:#7F7F7F;}
	.st73{fill:#3D393C;}
	.st74{fill:#696464;}
	.st75{fill:#C0C2C0;}
	.st76{fill:#9B9A98;}
	.st77{fill:#555151;}
	.st78{fill:#8A8484;}
	.st79{fill:#FFFFFF;}
	.st80{fill:#F6F6F5;}
	.st81{fill:#F9F9F9;}
	.st82{fill:#2C2C2C;}
	.st83{fill:#8D8E8E;}
	.st84{fill:#4E4443;}
	.st85{fill:#FBFBFB;}
	.st86{fill:#FAFAFA;}
	.st87{fill:#989898;}
	.st88{fill:#F2F2F1;}
	.st89{fill:#B3AEAE;}
	.st90{fill:#8A8282;}
	.st91{fill:#262525;}
	.st92{fill:#373737;}
	.st93{fill:#1D1D1D;}
	.st94{fill:#515150;}
	.st95{fill:#959594;}
	.st96{fill:#5A504F;}
	.st97{fill:#979795;}
	.st98{fill:#A89C9E;}
	.st99{fill:#929292;}
	.st100{fill:#8A898A;}
	.st101{fill:#A0A09F;}
	.st102{fill:#F5F5F4;}
	.st103{fill:#DDDBDB;}
	.st104{fill:#888A8B;}
	.st105{fill:#474848;}
	.st106{fill:#5C5F5E;}
	.st107{fill:#A49EA0;}
	.st108{fill:#E7E6E1;}
	.st109{fill:#F8F7F7;}
	.st110{fill:#DEDCDB;}
	.st111{fill:#ECE8E8;}
	.st112{fill:#EBE8E7;}
	.st113{fill:#8C8983;}
	.st114{fill:#F2EFEE;}
	.st115{fill:#F0EFEE;}
	.st116{fill:#8A8C89;}
	.st117{fill:#EBE9E6;}
	.st118{fill:#ECEBEA;}
	.st119{fill:#999395;}
	.st120{fill:#DFDAD9;}
	.st121{fill:#FDFAFA;}
	.st122{fill:#716A6C;}
	.st123{fill:#F2F2F0;}
	.st124{fill:#A1A1A0;}
	.st125{fill:#BFB7B7;}
	.st126{fill:#746D6C;}
	.st127{fill:#F3F0EF;}
	.st128{fill:#6C6C6A;}
	.st129{fill:#9E9D9D;}
	.st130{fill:#F1F0F0;}
	.st131{fill:#B3B2B2;}
	.st132{fill:#595553;}
	.st133{fill:#D1CDCB;}
	.st134{fill:#828281;}
	.st135{fill:#9A9A9C;}
	.st136{fill:#F7F7F6;}
	.st137{fill:#E9E7E6;}
	.st138{fill:#DED8D7;}
	.st139{fill:#DBDAD9;}
	.st140{fill:#867F80;}
	.st141{fill:#787071;}
	.st142{fill:#F3F3F3;}
	.st143{fill:#A2A2A2;}
	.st144{fill:#707473;}
	.st145{fill:#867C7F;}
	.st146{fill:#EEEBE9;}
	.st147{fill:#979997;}
	.st148{fill:#626867;}
	.st149{fill:#7B7575;}
	.st150{fill:#9E9E9E;}
	.st151{fill:#919090;}
	.st152{fill:#929191;}
	.st153{fill:#F5F5F5;}
	.st154{fill:#A4A3A3;}
	.st155{fill:#BABABA;}
	.st156{fill:#A0A0A0;}
	.st157{fill:#9D9D9D;}
	.st158{fill:#3D3F3D;}
	.st159{fill:#9A9999;}
	.st160{fill:#8A8A8A;}
	.st161{fill:#9E9C9D;}
	.st162{fill:#A3A3A3;}
	.st163{fill:#A3A2A2;}
	.st164{fill:#F8F8F8;}
	.st165{fill:#9FA09F;}
	.st166{fill:#9F9E9E;}
	.st167{fill:#B8B7B7;}
	.st168{fill:#BDBDBC;}
	.st169{fill:#A8A8A8;}
	.st170{fill:#DAD9D9;}
	.st171{fill:#9F9F9F;}
	.st172{fill:#A7A6A6;}
	.st173{fill:#ABAAAB;}
	.st174{fill:#A0A0A1;}
	.st175{fill:#939393;}
	.st176{fill:#959494;}
	.st177{fill:#999999;}
	.st178{fill:#B0B0B0;}
	.st179{fill:#9B999A;}
	.st180{fill:#BCBBBB;}
	.st181{fill:#909090;}
	.st182{fill:#9B9B9B;}
	.st183{fill:#484847;}
	.st184{fill:#969696;}
	.st185{fill:#929091;}
	.st186{fill:#979B9C;}
	.st187{fill:#B1B1B1;}
	.st188{fill:#ACACAC;}
	.st189{fill:#999897;}
	.st190{fill:#969998;}
	.st191{fill:#CECECE;}
	.st192{fill:#E7E6E6;}
	.st193{fill:#A5A4A4;}
	.st194{fill:#9F9E9C;}
	.st195{fill:#919191;}
	.st196{fill:#D1D0D0;}
	.st197{fill:#D7D7D6;}
	.st198{fill:#6B6B6B;}
	.st199{fill:#A1A0A0;}
	.st200{fill:#908F8F;}
	.st201{fill:#8F8F8F;}
	.st202{fill:#8D8D8D;}
	.st203{fill:#848484;}
	.st204{fill:#989798;}
	.st205{fill:#E0DFDF;}
	.st206{fill:#969595;}
	.st207{fill:#7D7D7D;}
	.st208{fill:#A8A7A7;}
	.st209{fill:#B6B5B5;}
	.st210{fill:#828282;}
	.st211{fill:#818181;}
	.st212{fill:#9B9A9B;}
	.st213{fill:#848585;}
	.st214{fill:#A5A4A5;}
	.st215{fill:#979797;}
	.st216{fill:#F6F6F6;}
	.st217{fill:#888888;}
	.st218{fill:#EEEDED;}
	.st219{fill:#EBEAEA;}
	.st220{fill:#858585;}
	.st221{fill:#959293;}
	.st222{fill:#808181;}
	.st223{fill:#DEDBDB;}
	.st224{fill:#C6B9BC;}
	.st225{fill:#959798;}
	.st226{fill:#E6E6E6;}
	.st227{fill:#D9D9D7;}
	.st228{fill:#8F8E8F;}
	.st229{fill:#8A888B;}
	.st230{fill:#F1F1F1;}
	.st231{fill:#808080;}
	.st232{fill:#E7E4E5;}
	.st233{fill:#E9E8E8;}
	.st234{fill:#F9FAFA;}
	.st235{fill:#F2F2F2;}
	.st236{fill:#EAE9E9;}
	.st237{fill:#878787;}
	.st238{fill:#E3E1E2;}
	.st239{fill:#777374;}
	.st240{fill:#838383;}
	.st241{clip-path:url(#SVGID_4_);fill:#FEFDFD;}
	.st242{clip-path:url(#SVGID_4_);}
	.st243{fill:#312A29;}
	.st244{fill:#2E2E2E;}
	.st245{fill:#353534;}
	.st246{fill:#393231;}
	.st247{fill:#383838;}
	.st248{fill:#EEEEED;}
	.st249{fill:#313232;}
	.st250{fill:#E2E2E1;}
	.st251{fill:#9C9C9C;}
	.st252{fill:#A1A1A1;}
	.st253{fill:#9A999A;}
	.st254{fill:#A0A1A1;}
	.st255{fill:#F5F5F3;}
	.st256{fill:#B6B6B6;}
	.st257{fill:#BBBBBB;}
	.st258{fill:#DBDADA;}
	.st259{fill:#B7B7B7;}
	.st260{fill:#D4D4D4;}
	.st261{fill:#B5B5B5;}
	.st262{fill:#B8B8B8;}
	.st263{fill:#9D9C9C;}
	.st264{fill:#A5A5A5;}
	.st265{fill:#898989;}
	.st266{fill:#DADADA;}
	.st267{fill:#AFAFAF;}
	.st268{fill:#949494;}
	.st269{fill:#969695;}
	.st270{fill:#8A8989;}
	.st271{fill:#B2B2B2;}
	.st272{fill:#E9E9E8;}
	.st273{fill:#A49FA0;}
	.st274{fill:#B2B1B1;}
	.st275{fill:#8E8D8D;}
	.st276{fill:#858586;}
	.st277{fill:#AEAEAE;}
	.st278{fill:#A9A8A8;}
	.st279{fill:#CFCFCE;}
	.st280{fill:#ADACAD;}
	.st281{fill:#B3B3B3;}
	.st282{fill:#E7E6E5;}
	.st283{fill:#3F3F3F;}
	.st284{fill:#302827;}
	.st285{fill:#342B2A;}
	.st286{fill:#EAEAE9;}
	.st287{fill:#3D3735;}
	.st288{fill:#A9ABAA;}
	.st289{fill:#5A4E4B;}
	.st290{fill:#322B2B;}
	.st291{fill:#34302E;}
	.st292{fill:#57504E;}
	.st293{fill:#554F51;}
	.st294{fill:#574A4A;}
	.st295{fill:#545454;}
	.st296{fill:#989392;}
	.st297{fill:#CCCACA;}
	.st298{fill:#AAAAAA;}
	.st299{fill:#5F5F5F;}
	.st300{fill:#564E4C;}
	.st301{fill:#878686;}
	.st302{fill:#363636;}
	.st303{fill:#989797;}
	.st304{fill:#404040;}
	.st305{fill:#9C9B9B;}
	.st306{fill:#3C3C3C;}
	.st307{fill:#565656;}
	.st308{fill:#605F5F;}
	.st309{fill:#ABABAB;}
	.st310{fill:#B4B3B3;}
	.st311{fill:#3A3130;}
	.st312{fill:#413835;}
	.st313{fill:#665F5F;}
	.st314{fill:#373839;}
	.st315{fill:#655656;}
	.st316{fill:#6F6162;}
	.st317{fill:#443B3A;}
	.st318{fill:#4D403F;}
	.st319{fill:#564C4A;}
	.st320{fill:#463C3B;}
	.st321{fill:#4F4444;}
	.st322{fill:#594D4C;}
	.st323{fill:#574E4E;}
	.st324{fill:#706D6B;}
	.st325{fill:#635D5A;}
	.st326{fill:#685D5B;}
	.st327{fill:#2C201F;}
	.st328{fill:#686263;}
	.st329{fill:#362C2C;}
	.st330{fill:#65605E;}
	.st331{fill:#494848;}
	.st332{fill:#BEBEBE;}
	.st333{fill:#7A7A7A;}
	.st334{fill:#666666;}
	.st335{fill:#444544;}
	.st336{fill:#4B4B4A;}
	.st337{fill:#4A4A49;}
	.st338{fill:#707070;}
	.st339{fill:#4E4F4E;}
	.st340{fill:#DEDDDB;}
	.st341{fill:#C0C1C0;}
	.st342{fill:#B7B3B4;}
	.st343{fill:#D8DAD8;}
	.st344{fill:#BCBCBC;}
	.st345{fill:#A6A8A7;}
	.st346{fill:#575656;}
	.st347{fill:#292929;}
	.st348{fill:#444444;}
	.st349{fill:#4E4E4E;}
	.st350{fill:#4B4A4A;}
	.st351{fill:#464646;}
	.st352{fill:#4B4B4B;}
	.st353{fill:#E0E0E0;}
	.st354{fill:#5A5A59;}
	.st355{fill:#BFBEBE;}
	.st356{fill:#4F4F4F;}
	.st357{fill:#BDBDBD;}
	.st358{fill:#ADACAC;}
	.st359{fill:#525251;}
	.st360{fill:#535353;}
	.st361{fill:#535252;}
	.st362{fill:#4F4E4E;}
	.st363{fill:#4C4C4C;}
	.st364{fill:#706F6F;}
	.st365{fill:#5E5D5D;}
	.st366{fill:#232323;}
	.st367{fill:#F4F4F4;}
	.st368{fill:#DEDBDA;}
	.st369{fill:#878986;}
	.st370{fill:#A2A2A1;}
	.st371{fill:#4E504D;}
	.st372{fill:#EAEAEB;}
	.st373{fill:#E7E8E7;}
	.st374{fill:#2D2522;}
	.st375{fill:#ADADAD;}
	.st376{fill:#736A68;}
	.st377{fill:#4F4545;}
	.st378{fill:#DEDFE0;}
	.st379{fill:#1F1F1F;}
	.st380{fill:#B3B4B2;}
	.st381{fill:#B5B6B7;}
	.st382{fill:#AEAAAD;}
	.st383{fill:#AFAFAD;}
	.st384{fill:#A9AEAC;}
	.st385{fill:none;}
	.st386{clip-path:url(#SVGID_6_);fill:#FFFFFF;}
	.st387{clip-path:url(#SVGID_6_);}
	.st388{fill:#393130;}
	.st389{fill:#352B2B;}
	.st390{fill:#303030;}
	.st391{fill:#393939;}
	.st392{fill:#3B3434;}
	.st393{fill:#B9B9B9;}
	.st394{fill:#413F3B;}
	.st395{fill:#3F3838;}
	.st396{fill:#453D3B;}
	.st397{fill:#A7A7A7;}
	.st398{fill:#454545;}
	.st399{fill:#473F40;}
	.st400{fill:#939292;}
	.st401{fill:#959595;}
	.st402{fill:#3B3B3B;}
	.st403{fill:#A09F9F;}
	.st404{fill:#5D5150;}
	.st405{fill:#3F403F;}
	.st406{fill:#414141;}
	.st407{fill:#999898;}
	.st408{fill:#9A9A9A;}
	.st409{fill:#4E4E4D;}
	.st410{fill:#372E2D;}
	.st411{fill:#AFAEAE;}
	.st412{fill:#D5D4D4;}
	.st413{fill:#352C2B;}
	.st414{fill:#473C3D;}
	.st415{fill:#504B4C;}
	.st416{fill:#584D4C;}
	.st417{fill:#5C5556;}
	.st418{fill:#434440;}
	.st419{fill:#635657;}
	.st420{fill:#2E2628;}
	.st421{fill:#837777;}
	.st422{fill:#6F6461;}
	.st423{fill:#665F5B;}
	.st424{fill:#635C5B;}
	.st425{fill:#655D5B;}
	.st426{fill:#786565;}
	.st427{fill:#594B4B;}
	.st428{fill:#5D5251;}
	.st429{fill:#E7E5E5;}
	.st430{fill:#3D3C38;}
	.st431{fill:#D2D2D1;}
	.st432{fill:#A8A7A9;}
	.st433{fill:#D0CFCE;}
	.st434{fill:#414140;}
	.st435{fill:#878485;}
	.st436{fill:#666565;}
	.st437{fill:#949493;}
	.st438{fill:#3B3635;}
	.st439{fill:#8F8F8E;}
	.st440{fill:#8E8E8E;}
	.st441{fill:#8C8C8C;}
	.st442{fill:#8F8E8E;}
	.st443{fill:#BAB9B9;}
	.st444{fill:#8C8C8D;}
	.st445{fill:#4D4343;}
	.st446{fill:#534949;}
	.st447{fill:#413737;}
	.st448{fill:#585251;}
	.st449{fill:#242622;}
	.st450{fill:#695E5D;}
	.st451{fill:#646060;}
	.st452{fill:#312322;}
	.st453{fill:#3D3C36;}
	.st454{fill:#3C3636;}
	.st455{fill:#7D7C7C;}
	.st456{fill:#4E4747;}
	.st457{fill:#8A8886;}
	.st458{fill:#D7D1D2;}
	.st459{fill:#3E3231;}
	.st460{fill:#746E6E;}
	.st461{fill:#2C2323;}
	.st462{fill:#5D5352;}
	.st463{fill:#665A5A;}
	.st464{fill:#332927;}
	.st465{fill:#8F8C8B;}
	.st466{fill:#2D2D2D;}
	.st467{fill:#A3A6A5;}
	.st468{fill:#777676;}
	.st469{fill:#B7B5B5;}
	.st470{fill:#D2D2D2;}
	.st471{fill:#696969;}
	.st472{fill:#C0C0C0;}
	.st473{fill:#E8E7E6;}
	.st474{fill:#A6A6A6;}
	.st475{fill:#B9B8B7;}
	.st476{fill:#B6B6B5;}
	.st477{fill:#7A7979;}
	.st478{fill:#DCDBDB;}
	.st479{fill:#B1B0B0;}
	.st480{fill:#B3B5B4;}
	.st481{fill:#A3A1A2;}
	.st482{fill:#9A9799;}
	.st483{fill:#AFAEAF;}
	.st484{fill:#ACABAC;}
	.st485{fill:#8B8B8B;}
	.st486{fill:#888889;}
	.st487{fill:#4D4746;}
	.st488{fill:#342425;}
	.st489{fill:#7C7D7D;}
	.st490{fill:#DFE0E0;}
	.st491{fill:#858285;}
	.st492{fill:#929592;}
	.st493{fill:#F4F5F6;}
	.st494{fill:#767777;}
	.st495{fill:#E1E3E1;}
	.st496{fill:#F0F1F0;}
	.st497{fill:#DFDFDF;}
	.st498{fill:#E5E5E4;}
	.st499{fill:#646464;}
	.st500{fill:#6C6B6B;}
	.st501{clip-path:url(#SVGID_8_);fill:#FFFFFF;}
	.st502{clip-path:url(#SVGID_8_);}
	.st503{fill:#555555;}
	.st504{fill:#4D3F41;}
	.st505{fill:#595958;}
	.st506{fill:#BDBFBE;}
	.st507{fill:#6C5B5C;}
	.st508{fill:#616160;}
	.st509{fill:#585757;}
	.st510{fill:#CECECD;}
	.st511{fill:#BEBDBD;}
	.st512{fill:#FCFDFD;}
	.st513{fill:#B4B4B3;}
	.st514{fill:#5E5E5F;}
	.st515{fill:#686767;}
	.st516{fill:#646463;}
	.st517{fill:#838280;}
	.st518{fill:#A2A1A2;}
	.st519{fill:#757475;}
	.st520{fill:#5A5A5A;}
	.st521{fill:#504546;}
	.st522{fill:#545453;}
	.st523{fill:#AAA9A9;}
	.st524{fill:#666766;}
	.st525{fill:#736B6B;}
	.st526{fill:#444545;}
	.st527{fill:#6E6E6D;}
	.st528{fill:#A8A8A7;}
	.st529{fill:#6B6D6B;}
	.st530{fill:#626161;}
	.st531{fill:#5E5655;}
	.st532{fill:#7C706F;}
	.st533{fill:#807F7F;}
	.st534{fill:#2C2D2D;}
	.st535{fill:#B9B8B8;}
	.st536{fill:#A7A6A7;}
	.st537{fill:#B7B7B8;}
	.st538{fill:#BEBCBD;}
	.st539{fill:#565655;}
	.st540{fill:#B7B6B7;}
	.st541{fill:#686868;}
	.st542{fill:#A4A4A4;}
	.st543{fill:#6C6C6C;}
	.st544{fill:#D0D0D0;}
	.st545{fill:#BFBFBF;}
	.st546{fill:#545353;}
	.st547{fill:#717070;}
	.st548{fill:#656464;}
	.st549{fill:#787777;}
	.st550{fill:#434544;}
	.st551{fill:#5F5F5E;}
	.st552{fill:#5D5D5C;}
	.st553{fill:#AEADAE;}
	.st554{fill:#9B9A9A;}
	.st555{fill:#251D1D;}
	.st556{fill:#535554;}
	.st557{fill:#716160;}
	.st558{fill:#5A5959;}
	.st559{fill:#E4E4E3;}
	.st560{fill:#7A7475;}
	.st561{fill:#594D4E;}
	.st562{fill:#3C4140;}
	.st563{fill:#8E8587;}
	.st564{fill:#716462;}
	.st565{fill:#5E4F4F;}
	.st566{fill:#706765;}
	.st567{fill:#6E6563;}
	.st568{fill:#575352;}
	.st569{fill:#766461;}
	.st570{fill:#625555;}
	.st571{fill:#5B504F;}
	.st572{fill:#655B5A;}
	.st573{fill:#5F4E4D;}
	.st574{fill:#675958;}
	.st575{fill:#645958;}
	.st576{fill:#685B5B;}
	.st577{fill:#57514F;}
	.st578{fill:#6B5E5D;}
	.st579{fill:#706464;}
	.st580{fill:#5F5554;}
	.st581{fill:#5C5C5A;}
	.st582{fill:#807474;}
	.st583{fill:#534B4B;}
	.st584{fill:#635654;}
	.st585{fill:#5E5355;}
	.st586{fill:#635C5C;}
	.st587{fill:#6B6263;}
	.st588{fill:#5C514E;}
	.st589{fill:#6F6663;}
	.st590{fill:#625453;}
	.st591{fill:#564042;}
	.st592{fill:#514949;}
	.st593{fill:#5F5453;}
	.st594{fill:#756B6B;}
	.st595{fill:#6D5C5C;}
	.st596{fill:#7C7372;}
	.st597{fill:#807776;}
	.st598{fill:#5B5350;}
	.st599{fill:#8B7C79;}
	.st600{fill:#453E3E;}
	.st601{fill:#6C6A68;}
	.st602{fill:#403836;}
	.st603{fill:#625959;}
	.st604{fill:#5F5756;}
	.st605{fill:#786768;}
	.st606{fill:#716564;}
	.st607{fill:#615453;}
	.st608{fill:#383637;}
	.st609{fill:#6E5F61;}
	.st610{fill:#6B5C5E;}
	.st611{fill:#807270;}
	.st612{fill:#463536;}
	.st613{fill:#473C3C;}
	.st614{fill:#45413F;}
	.st615{fill:#7B706E;}
	.st616{fill:#736867;}
	.st617{fill:#403231;}
	.st618{fill:#342B2E;}
	.st619{fill:#706263;}
	.st620{fill:#706463;}
	.st621{fill:#FEFFFF;}
	.st622{fill:#A9A8A9;}
	.st623{fill:#FDFDFD;}
	.st624{fill:#343434;}
	.st625{fill:#9F9E9F;}
	.st626{fill:#5C5C5C;}
	.st627{fill:#5E5E5E;}
	.st628{fill:#616161;}
	.st629{fill:#313130;}
	.st630{fill:#6D6C6C;}
	.st631{fill:#625354;}
	.st632{fill:#403533;}
	.st633{fill:#C0BFBE;}
	.st634{fill:#B5B6B6;}
	.st635{fill:#EFEFEF;}
	.st636{fill:#5F5E5E;}
	.st637{fill:#463835;}
	.st638{fill:#786E70;}
	.st639{fill:#3F3436;}
	.st640{fill:#322A28;}
	.st641{fill:#5A5856;}
	.st642{fill:#817171;}
	.st643{fill:#423535;}
	.st644{fill:#5B4C4C;}
	.st645{fill:#E4E1E0;}
	.st646{fill:#C0BEBE;}
	.st647{fill:#B4B3B5;}
	.st648{fill:#C0BFBF;}
	.st649{fill:#E1DFE0;}
	.st650{fill:#493B38;}
	.st651{fill:#BBBABD;}
	.st652{fill:#5A4949;}
	.st653{fill:#DEDBD9;}
	.st654{fill:#3E3333;}
	.st655{fill:#473636;}
	.st656{fill:#4F3F3D;}
	.st657{fill:#504F4E;}
	.st658{fill:#797978;}
	.st659{fill:#433D3A;}
	.st660{fill:#E5E6E5;}
	.st661{fill:#6F6062;}
	.st662{fill:#535352;}
	.st663{fill:#B2B2B3;}
	.st664{fill:#CDCDCD;}
	.st665{fill:#BDC0BF;}
	.st666{fill:#CFCECE;}
	.st667{fill:#B7B8B9;}
	.st668{fill:#B0B0B2;}
	.st669{fill:#B8B9B7;}
	.st670{fill:#ACABAB;}
	.st671{fill:#575756;}
	.st672{fill:#B1B2B1;}
	.st673{fill:#ABAAAA;}
	.st674{fill:#B2B3B3;}
	.st675{fill:#B8B7B8;}
	.st676{fill:#9DA09F;}
	.st677{fill:#A8A7A8;}
	.st678{fill:#A9A9A9;}
	.st679{fill:#939392;}
	.st680{fill:#D3D3D3;}
	.st681{fill:#E4E3E3;}
	.st682{fill:#BBBABA;}
	.st683{fill:#B5B5B4;}
	.st684{fill:#767575;}
	.st685{fill:#ECECEC;}
	.st686{fill:#343433;}
	.st687{fill:#B4B4B5;}
	.st688{fill:#BBBAB8;}
	.st689{fill:#B5A09E;}
	.st690{fill:#C8B0AF;}
	.st691{fill:#A29D9A;}
	.st692{fill:#908E8F;}
	.st693{fill:#D5D6D5;}
	.st694{fill:#E3E2E1;}
	.st695{fill:#EAEAEA;}
	.st696{fill:#433838;}
	.st697{fill:#BBBABB;}
	.st698{fill:#6E6D6D;}
	.st699{fill:#B3B7B5;}
	.st700{fill:#B0B1B1;}
	.st701{fill:#E0E0DF;}
	.st702{fill:#F2DFE0;}
	.st703{fill:#6C6A6A;}
	.st704{fill:#F9CDCD;}
	.st705{fill:#E5E2E1;}
	.st706{fill:#F9DFE1;}
	.st707{fill:#F5D6D6;}
	.st708{fill:#E0BEBE;}
	.st709{fill:#B09E9F;}
	.st710{fill:#E1CACC;}
	.st711{fill:#FCF4F3;}
	.st712{fill:#B1B1B0;}
	.st713{fill:#B5B7B6;}
	.st714{fill:#A2A1A1;}
	.st715{fill:#EFF0EE;}
	.st716{fill:#DFDFDD;}
	.st717{fill:#EEEEEE;}
	.st718{fill:#747373;}
	.st719{fill:#F9F6F5;}
	.st720{fill:#F6D8D6;}
	.st721{fill:#B9AEAE;}
	.st722{fill:#F9C5C4;}
	.st723{fill:#F0DAD8;}
	.st724{fill:#C1A6A4;}
	.st725{fill:#FADADA;}
	.st726{fill:#C2A6A6;}
	.st727{fill:#D3B8BA;}
	.st728{fill:#BBB1B2;}
	.st729{fill:#F9EBEB;}
	.st730{fill:#D4BABA;}
	.st731{fill:#E3E3E2;}
	.st732{fill:#B0ADAE;}
	.st733{fill:#B8B8B7;}
	.st734{fill:#848080;}
	.st735{fill:#BB9FA1;}
	.st736{fill:#A2A1A3;}
	.st737{fill:#E8E7E7;}
	.st738{fill:#777777;}
	.st739{clip-path:url(#SVGID_10_);fill:#FFFFFF;}
	.st740{clip-path:url(#SVGID_10_);}
	.st741{fill:#766F70;}
	.st742{fill:#534746;}
	.st743{fill:#5A4F4F;}
	.st744{fill:#7E7472;}
	.st745{fill:#6A6A6A;}
	.st746{fill:#7E7D7E;}
	.st747{fill:#D5D5D4;}
	.st748{fill:#5D5050;}
	.st749{fill:#70706F;}
	.st750{fill:#695D5C;}
	.st751{fill:#60605F;}
	.st752{fill:#636464;}
	.st753{fill:#605353;}
	.st754{fill:#656564;}
	.st755{fill:#564A4A;}
	.st756{fill:#B7B8B8;}
	.st757{fill:#5D5F5E;}
	.st758{fill:#717171;}
	.st759{fill:#534B4A;}
	.st760{fill:#818081;}
	.st761{fill:#646363;}
	.st762{fill:#5D5D5D;}
	.st763{fill:#D0D0CF;}
	.st764{fill:#6A5B59;}
	.st765{fill:#636363;}
	.st766{fill:#7C7C7C;}
	.st767{fill:#ECEBEB;}
	.st768{fill:#B0AFAF;}
	.st769{fill:#2F2F2F;}
	.st770{fill:#787878;}
	.st771{fill:#5B5A5A;}
	.st772{fill:#7E7E7E;}
	.st773{fill:#6F6F6F;}
	.st774{fill:#434343;}
	.st775{fill:#353535;}
	.st776{fill:#3F2F2F;}
	.st777{fill:#5B5B5B;}
	.st778{fill:#6D6D6D;}
	.st779{fill:#342725;}
	.st780{fill:#ABA9AB;}
	.st781{fill:#B0AFB0;}
	.st782{fill:#B4B3B4;}
	.st783{fill:#7C7271;}
	.st784{fill:#463A3A;}
	.st785{fill:#594C4C;}
	.st786{fill:#706467;}
	.st787{fill:#706663;}
	.st788{fill:#6B5E5E;}
	.st789{fill:#7A6E6E;}
	.st790{fill:#6B605F;}
	.st791{fill:#514846;}
	.st792{fill:#675D5B;}
	.st793{fill:#796F70;}
	.st794{fill:#7D6F72;}
	.st795{fill:#625654;}
	.st796{fill:#635555;}
	.st797{fill:#6B615F;}
	.st798{fill:#6B5F5C;}
	.st799{fill:#695C5D;}
	.st800{fill:#706465;}
	.st801{fill:#605151;}
	.st802{fill:#6C605F;}
	.st803{fill:#807778;}
	.st804{fill:#615955;}
	.st805{fill:#4F4B48;}
	.st806{fill:#665E5C;}
	.st807{fill:#423B3A;}
	.st808{fill:#413937;}
	.st809{fill:#43393B;}
	.st810{fill:#8A7F7B;}
	.st811{fill:#B6B6B7;}
	.st812{fill:#DBDBDB;}
	.st813{fill:#D4D3D3;}
	.st814{fill:#5B5351;}
	.st815{fill:#DCDAD8;}
	.st816{fill:#BCBABA;}
	.st817{fill:#D8D8D8;}
	.st818{fill:#E2E3E3;}
	.st819{fill:#7C7B7B;}
	.st820{fill:#E1E0E0;}
	.st821{fill:#5E5E5D;}
	.st822{fill:#DEDEDE;}
	.st823{fill:#464645;}
	.st824{fill:#D9D8D8;}
	.st825{fill:#A1A1A2;}
	.st826{fill:#B1B1B2;}
	.st827{fill:#9FA0A0;}
	.st828{fill:#574948;}
	.st829{fill:#B6B9B8;}
	.st830{fill:#B8B8BA;}
	.st831{fill:#4A4543;}
	.st832{fill:#3B3131;}
	.st833{fill:#796C6C;}
	.st834{fill:#3D3D3D;}
	.st835{fill:#3E3E3E;}
	.st836{fill:#323232;}
	.st837{fill:#272726;}
	.st838{fill:#2A2A2A;}
	.st839{fill:#525252;}
	.st840{fill:#484848;}
	.st841{fill:#493F3F;}
	.st842{fill:#2F2A29;}
	.st843{fill:#5C5051;}
	.st844{fill:#424242;}
	.st845{fill:#606060;}
	.st846{fill:#EDECEC;}
	.st847{fill:#505050;}
	.st848{fill:#5E5F5E;}
	.st849{fill:#5E4F4B;}
	.st850{fill:#39302D;}
	.st851{fill:#4F4441;}
	.st852{fill:#777877;}
	.st853{fill:#302C29;}
	.st854{fill:#5B504E;}
	.st855{fill:#5B5151;}
	.st856{fill:#B3B4B3;}
	.st857{fill:#F0F0EF;}
	.st858{fill:#40403F;}
	.st859{fill:#868586;}
	.st860{fill:#3A3A3A;}
	.st861{fill:#B4B2B2;}
	.st862{fill:#BABAB9;}
	.st863{fill:#525151;}
	.st864{fill:#585858;}
	.st865{fill:#242424;}
	.st866{fill:#4D4D4D;}
	.st867{fill:#727170;}
	.st868{fill:#515050;}
	.st869{fill:#5B5B5A;}
	.st870{fill:#646362;}
	.st871{fill:#4A4A4A;}
	.st872{fill:#656565;}
	.st873{fill:#D1D1D1;}
	.st874{fill:#757474;}
	.st875{fill:#676666;}
	.st876{fill:#838282;}
	.st877{fill:#515151;}
	.st878{fill:#EDECEB;}
	.st879{fill:#696968;}
	.st880{clip-path:url(#SVGID_12_);fill:#FFFFFF;}
	.st881{clip-path:url(#SVGID_12_);}
	.st882{fill:#7D7170;}
	.st883{fill:#554B4C;}
	.st884{fill:#FDFDFE;}
	.st885{fill:#827273;}
	.st886{fill:#555454;}
	.st887{fill:#7B7B7B;}
	.st888{fill:#615654;}
	.st889{fill:#524A47;}
	.st890{fill:#685D5F;}
	.st891{fill:#747474;}
	.st892{fill:#A6A4A7;}
	.st893{fill:#73676F;}
	.st894{fill:#46393B;}
	.st895{fill:#7B6F6F;}
	.st896{fill:#5B5252;}
	.st897{fill:#9FA6A4;}
	.st898{fill:#69625F;}
	.st899{fill:#686867;}
	.st900{fill:#3E3F3E;}
	.st901{fill:#414241;}
	.st902{fill:#322F30;}
	.st903{fill:#422F2E;}
	.st904{fill:#39312B;}
	.st905{fill:#7C7473;}
	.st906{fill:#918E91;}
	.st907{fill:#584F4B;}
	.st908{fill:#625854;}
	.st909{fill:#766C6D;}
	.st910{fill:#6A5D5E;}
	.st911{fill:#605252;}
	.st912{fill:#5F5553;}
	.st913{fill:#4A3D3E;}
	.st914{fill:#695F5D;}
	.st915{fill:#5C514F;}
	.st916{fill:#675C5C;}
	.st917{fill:#8A7D7F;}
	.st918{fill:#575251;}
	.st919{fill:#6C5F5F;}
	.st920{fill:#584D4E;}
	.st921{fill:#706664;}
	.st922{fill:#877F80;}
	.st923{fill:#827578;}
	.st924{fill:#58494B;}
	.st925{fill:#867677;}
	.st926{fill:#7C6F6F;}
	.st927{fill:#483C3C;}
	.st928{fill:#353531;}
	.st929{fill:#807272;}
	.st930{fill:#7F7271;}
	.st931{fill:#65575A;}
	.st932{fill:#5B5452;}
	.st933{fill:#4F4C4C;}
	.st934{fill:#4A4B4A;}
	.st935{fill:#695C60;}
	.st936{fill:#3E3737;}
	.st937{fill:#796866;}
	.st938{fill:#6B605E;}
	.st939{fill:#4D4444;}
	.st940{fill:#5E5A58;}
	.st941{fill:#604745;}
	.st942{fill:#68605F;}
	.st943{fill:#6E6466;}
	.st944{fill:#7C7275;}
	.st945{fill:#615A57;}
	.st946{fill:#FBFCFE;}
	.st947{fill:#7C7A7B;}
	.st948{fill:#5A4A4B;}
	.st949{fill:#534645;}
	.st950{fill:#D7CCCE;}
	.st951{fill:#565352;}
	.st952{fill:#756C6F;}
	.st953{fill:#4F4347;}
	.st954{fill:#858182;}
	.st955{fill:#7B6C6D;}
	.st956{fill:#F4F6FB;}
	.st957{fill:#5D6061;}
	.st958{fill:#3F3032;}
	.st959{fill:#373333;}
	.st960{fill:#9D9096;}
	.st961{fill:#857C7A;}
	.st962{fill:#CAC9C8;}
	.st963{fill:#635F5F;}
	.st964{fill:#4F4F4E;}
	.st965{fill:#979696;}
	.st966{fill:#4C4545;}
	.st967{fill:#473A3A;}
	.st968{fill:#474747;}
	.st969{fill:#413639;}
	.st970{fill:#393A39;}
	.st971{fill:#EDEDED;}
	.st972{fill:#6D6D6C;}
	.st973{fill:#494849;}
	.st974{fill:#343534;}
	.st975{fill:#403F40;}
	.st976{fill:#2F2F2E;}
	.st977{fill:#B3B3B4;}
	.st978{fill:#1C1C1C;}
	.st979{fill:#AEADAD;}
	.st980{fill:#484B4A;}
	.st981{fill:#807070;}
	.st982{fill:#5D514E;}
	.st983{fill:#827A78;}
	.st984{fill:#555351;}
	.st985{fill:#363837;}
	.st986{fill:#483C3B;}
	.st987{fill:#43423E;}
	.st988{fill:#726664;}
	.st989{fill:#4D4243;}
	.st990{fill:#413031;}
	.st991{fill:#564848;}
	.st992{fill:#3A2C2C;}
	.st993{fill:#615857;}
	.st994{fill:#665A56;}
	.st995{fill:#807472;}
	.st996{fill:#6D6464;}
	.st997{fill:#493A3B;}
	.st998{fill:#493D3B;}
	.st999{fill:#544646;}
	.st1000{fill:#655657;}
	.st1001{fill:#3C2E2D;}
	.st1002{fill:#5A5756;}
	.st1003{fill:#736869;}
	.st1004{fill:#504E4B;}
	.st1005{fill:#828181;}
	.st1006{fill:#B0AEB0;}
	.st1007{fill:#595959;}
	.st1008{fill:#7A6E6F;}
	.st1009{fill:#463B39;}
	.st1010{fill:#70686A;}
	.st1011{fill:#625754;}
	.st1012{fill:#3C3433;}
	.st1013{fill:#2F2427;}
	.st1014{fill:#D7D7D7;}
	.st1015{fill:#CCCCCB;}
	.st1016{fill:#BDBEBC;}
	.st1017{fill:#B7B6B6;}
	.st1018{fill:#ACACAD;}
	.st1019{fill:#464545;}
	.st1020{fill:#767676;}
	.st1021{fill:#504F4F;}
	.st1022{fill:#6B6768;}
	.st1023{fill:#6F6C6D;}
	.st1024{fill:#B5B4B5;}
	.st1025{fill:#B5B5B6;}
	.st1026{fill:#5C5B5B;}
	.st1027{fill:#484949;}
	.st1028{fill:#5C5C5B;}
	.st1029{fill:#B3B2B3;}
	.st1030{fill:#A1A0A1;}
	.st1031{fill:#7C7B7C;}
	.st1032{fill:#E3E3E3;}
	.st1033{fill:#636262;}
	.st1034{fill:#867675;}
	.st1035{fill:#373636;}
	.st1036{fill:#696868;}
	.st1037{fill:#B3B4B4;}
	.st1038{fill:#575757;}
	.st1039{fill:#A8A9AB;}
	.st1040{fill:#898B8A;}
	.st1041{fill:#595858;}
	.st1042{fill:#A8A9A8;}
	.st1043{fill:#5C5151;}
	.st1044{fill:#423532;}
	.st1045{fill:#423A37;}
	.st1046{fill:#423C39;}
	.st1047{fill:#352A28;}
	.st1048{fill:#3F3334;}
	.st1049{fill:#F3F3F2;}
	.st1050{fill:#AEAEAD;}
	.st1051{fill:#B1B0B2;}
	.st1052{fill:#AAA8AB;}
	.st1053{fill:#FCFCFC;}
	.st1054{fill:#E1E1E1;}
	.st1055{fill:#BDBCBC;}
	.st1056{fill:#D1D1D0;}
	.st1057{fill:#9E9D9E;}
	.st1058{fill:#F3F2F2;}
	.st1059{fill:#F0EFEF;}
	.st1060{fill:#F0F0F0;}
	.st1061{fill:#868686;}
	.st1062{clip-path:url(#SVGID_14_);fill:#FFFFFF;}
	.st1063{clip-path:url(#SVGID_14_);}
	.st1064{fill:#FEFEFF;}
	.st1065{fill:#756A69;}
	.st1066{fill:#6B5F5E;}
	.st1067{fill:#827D7D;}
	.st1068{fill:#6E6566;}
	.st1069{fill:#706869;}
	.st1070{fill:#F4F0ED;}
	.st1071{fill:#7D716E;}
	.st1072{fill:#7A706E;}
	.st1073{fill:#746565;}
	.st1074{fill:#6C6060;}
	.st1075{fill:#6D6E6D;}
	.st1076{fill:#666665;}
	.st1077{fill:#626767;}
	.st1078{fill:#716565;}
	.st1079{fill:#716263;}
	.st1080{fill:#6C605E;}
	.st1081{fill:#5E4D4E;}
	.st1082{fill:#756868;}
	.st1083{fill:#5F5D61;}
	.st1084{fill:#7A7273;}
	.st1085{fill:#5E5A5E;}
	.st1086{fill:#999899;}
	.st1087{fill:#746868;}
	.st1088{fill:#5C5150;}
	.st1089{fill:#6A605F;}
	.st1090{fill:#8E8683;}
	.st1091{fill:#837571;}
	.st1092{fill:#767270;}
	.st1093{fill:#6B6360;}
	.st1094{fill:#6B6261;}
	.st1095{fill:#8A8988;}
	.st1096{fill:#7C7071;}
	.st1097{fill:#7D7373;}
	.st1098{fill:#766A6A;}
	.st1099{fill:#6E6966;}
	.st1100{fill:#5B5D5A;}
	.st1101{fill:#756563;}
	.st1102{fill:#70716E;}
	.st1103{fill:#6C6868;}
	.st1104{fill:#7B7E7C;}
	.st1105{fill:#F9CFD9;}
	.st1106{fill:#797A7A;}
	.st1107{fill:#FEEEEF;}
	.st1108{fill:#7E7271;}
	.st1109{fill:#86807D;}
	.st1110{fill:#9A8D8B;}
	.st1111{fill:#767B7A;}
	.st1112{fill:#919294;}
	.st1113{fill:#7D7B7B;}
	.st1114{fill:#88837F;}
	.st1115{fill:#727270;}
	.st1116{fill:#F0F8F3;}
	.st1117{fill:#7B7D7C;}
	.st1118{fill:#EEF8F7;}
	.st1119{fill:#786F6E;}
	.st1120{fill:#F1EAEC;}
	.st1121{fill:#786A6F;}
	.st1122{fill:#817F80;}
	.st1123{fill:#7E7D7D;}
	.st1124{fill:#665C5D;}
	.st1125{fill:#939594;}
	.st1126{fill:#746B69;}
	.st1127{fill:#887D7B;}
	.st1128{fill:#847677;}
	.st1129{fill:#646564;}
	.st1130{fill:#6C6D6D;}
	.st1131{fill:#816D6E;}
	.st1132{fill:#786868;}
	.st1133{fill:#776D6D;}
	.st1134{fill:#676767;}
	.st1135{fill:#7E7C7B;}
	.st1136{fill:#665856;}
	.st1137{fill:#695A5A;}
	.st1138{fill:#4F4446;}
	.st1139{fill:#7B7979;}
	.st1140{fill:#696B69;}
	.st1141{fill:#EBF6F4;}
	.st1142{fill:#AD2023;}
	.st1143{fill:#E4DFDC;}
	.st1144{fill:#8E898A;}
	.st1145{fill:#8E8A84;}
	.st1146{fill:#707071;}
	.st1147{fill:#544B48;}
	.st1148{fill:#680D1A;}
	.st1149{fill:#8E8D8E;}
	.st1150{fill:#841B27;}
	.st1151{fill:#716F70;}
	.st1152{fill:#716866;}
	.st1153{fill:#9F9A9B;}
	.st1154{fill:#90888C;}
	.st1155{fill:#782930;}
	.st1156{fill:#6D6C6B;}
	.st1157{fill:#EBDFE2;}
	.st1158{fill:#4D5357;}
	.st1159{fill:#5A5553;}
	.st1160{fill:#6E6E6E;}
	.st1161{fill:#8B858C;}
	.st1162{fill:#F7F6F6;}
	.st1163{fill:#524647;}
	.st1164{fill:#5B5C5B;}
	.st1165{fill:#5C5255;}
	.st1166{fill:#565658;}
	.st1167{fill:#332D2B;}
	.st1168{fill:#595659;}
	.st1169{fill:#757577;}
	.st1170{fill:#585651;}
	.st1171{fill:#574F50;}
	.st1172{fill:#626262;}
	.st1173{fill:#E2E0DC;}
	.st1174{fill:#8D8A8B;}
	.st1175{fill:#D3D3D2;}
	.st1176{fill:#50474B;}
	.st1177{fill:#746867;}
	.st1178{fill:#564D4B;}
	.st1179{fill:#892930;}
	.st1180{fill:#ECD6D1;}
	.st1181{fill:#7B716F;}
	.st1182{fill:#7D7576;}
	.st1183{fill:#7E7272;}
	.st1184{fill:#746A69;}
	.st1185{fill:#796C6D;}
	.st1186{fill:#C85960;}
	.st1187{fill:#8F8486;}
	.st1188{fill:#696B6A;}
	.st1189{fill:#BC545D;}
	.st1190{fill:#AF363C;}
	.st1191{fill:#A9999A;}
	.st1192{fill:#827C7B;}
	.st1193{fill:#5C5B57;}
	.st1194{fill:#5E5453;}
	.st1195{fill:#4C4842;}
	.st1196{fill:#6A5759;}
	.st1197{fill:#937D83;}
	.st1198{fill:#483F3D;}
	.st1199{fill:#8A7A7B;}
	.st1200{fill:#776767;}
	.st1201{fill:#7D6E6D;}
	.st1202{fill:#BA5755;}
	.st1203{fill:#5E4C4D;}
	.st1204{fill:#887E7D;}
	.st1205{fill:#6A615E;}
	.st1206{fill:#7D7773;}
	.st1207{fill:#F5F6F3;}
	.st1208{fill:#ECE4DD;}
	.st1209{fill:#6C6F6D;}
	.st1210{fill:#F3F9F5;}
	.st1211{fill:#797677;}
	.st1212{fill:#7D7578;}
	.st1213{fill:#737373;}
	.st1214{fill:#828182;}
	.st1215{fill:#F1BCC8;}
	.st1216{fill:#726E70;}
	.st1217{fill:#816D71;}
	.st1218{fill:#595555;}
	.st1219{fill:#FBEDF4;}
	.st1220{fill:#645A61;}
	.st1221{fill:#53464A;}
	.st1222{fill:#616560;}
	.st1223{fill:#767371;}
	.st1224{fill:#767674;}
	.st1225{fill:#596065;}
	.st1226{fill:#787676;}
	.st1227{fill:#717071;}
	.st1228{fill:#494949;}
	.st1229{fill:#818080;}
	.st1230{fill:#33272F;}
	.st1231{fill:#938C8D;}
	.st1232{fill:#5A5B5B;}
	.st1233{fill:#5D605F;}
	.st1234{fill:#E2E1E0;}
	.st1235{fill:#7A7879;}
	.st1236{fill:#59504F;}
	.st1237{fill:#4B4C4C;}
	.st1238{fill:#564C4B;}
	.st1239{fill:#C73958;}
	.st1240{fill:#CDCECD;}
	.st1241{fill:#8E8286;}
	.st1242{fill:#474948;}
	.st1243{fill:#A69FA6;}
	.st1244{fill:#544847;}
	.st1245{fill:#473E3D;}
	.st1246{fill:#675B5B;}
	.st1247{fill:#605759;}
	.st1248{fill:#666465;}
	.st1249{fill:#615558;}
	.st1250{fill:#6E6E6F;}
	.st1251{fill:#A1A6A9;}
	.st1252{fill:#9D3F53;}
	.st1253{fill:#908688;}
	.st1254{fill:#79857B;}
	.st1255{fill:#504D4B;}
	.st1256{fill:#443535;}
	.st1257{fill:#7C373C;}
	.st1258{fill:#FAEFF2;}
	.st1259{fill:#F3F3EF;}
	.st1260{fill:#7B6E6B;}
	.st1261{fill:#5D5451;}
	.st1262{fill:#646565;}
	.st1263{fill:#4B4242;}
	.st1264{fill:#525254;}
	.st1265{fill:#75767A;}
	.st1266{fill:#73101B;}
	.st1267{fill:#B8545D;}
	.st1268{fill:#EEF6F5;}
	.st1269{clip-path:url(#SVGID_16_);fill:#FFFFFF;}
	.st1270{clip-path:url(#SVGID_16_);}
	.st1271{fill:#EFEEED;}
	.st1272{fill:#5A5250;}
	.st1273{fill:#463B3B;}
	.st1274{fill:#453C3B;}
	.st1275{fill:#443938;}
	.st1276{fill:#483D3D;}
	.st1277{fill:#454544;}
	.st1278{fill:#606160;}
	.st1279{fill:#483E3D;}
	.st1280{fill:#524C49;}
	.st1281{fill:#444443;}
	.st1282{fill:#F4F2F3;}
	.st1283{fill:#47413F;}
	.st1284{fill:#4D4140;}
	.st1285{fill:#413636;}
	.st1286{fill:#554B4A;}
	.st1287{fill:#6A6969;}
	.st1288{fill:#D9D9D8;}
	.st1289{fill:#4D4A4B;}
	.st1290{fill:#514645;}
	.st1291{fill:#594D4B;}
	.st1292{fill:#D8D8D7;}
	.st1293{fill:#252525;}
	.st1294{fill:#615B58;}
	.st1295{fill:#5C5454;}
	.st1296{fill:#545455;}
	.st1297{fill:#6C6666;}
	.st1298{fill:#676566;}
	.st1299{fill:#534C4A;}
	.st1300{fill:#B7B9B8;}
	.st1301{fill:#6F6E6E;}
	.st1302{fill:#4D4D4C;}
	.st1303{fill:#695F5F;}
	.st1304{fill:#4A4B4B;}
	.st1305{fill:#3C3D3D;}
	.st1306{fill:#6B6461;}
	.st1307{fill:#E5E4E4;}
	.st1308{fill:#4D4042;}
	.st1309{fill:#3E3C3D;}
	.st1310{fill:#473F41;}
	.st1311{fill:#47494A;}
	.st1312{fill:#A4A3A4;}
	.st1313{fill:#685E5A;}
	.st1314{fill:#635C5D;}
	.st1315{fill:#CDCCCC;}
	.st1316{fill:#6C5F5C;}
	.st1317{fill:#676263;}
	.st1318{fill:#666362;}
	.st1319{fill:#CDCFCC;}
	.st1320{fill:#726967;}
	.st1321{fill:#524947;}
	.st1322{fill:#E2E1E1;}
	.st1323{fill:#1A1A1A;}
	.st1324{fill:#5B5453;}
	.st1325{fill:#584E4E;}
	.st1326{fill:#F6F5F5;}
	.st1327{fill:#878786;}
	.st1328{fill:#312825;}
	.st1329{fill:#E9E9E9;}
	.st1330{fill:#554C4B;}
	.st1331{fill:#848687;}
	.st1332{fill:#352426;}
	.st1333{fill:#CBCACA;}
	.st1334{fill:#1B1B1B;}
	.st1335{fill:#4A4949;}
	.st1336{fill:#767677;}
</style>
<g>
	<defs>
		<circle id="SVGID_15_" cx="50" cy="50" r="50"/>
	</defs>
	<clipPath id="SVGID_2_">
		<use xlink:href="#SVGID_15_"  style="overflow:visible;"/>
	</clipPath>
	<ellipse class="st0" cx="55.7" cy="55.7" rx="80.7" ry="64.8"/>
	<g class="st1">
		<path class="st2" d="M78.1,7.1c0.5,0.9,1.5,1.2,2.2,1.7c3.8,2.6,7.1,5.9,9.9,9.5c2.6,3.3,4.9,6.9,6.6,10.8
			c0.8,1.9,1.5,3.8,2.1,5.8c1.1,3.2,1.6,6.5,2,9.8c0.5,4,0.4,7.9-0.2,11.9C100,61,98.9,65.4,97,69.6c-2.2,5.1-5.2,9.6-8.8,13.8
			c-0.6,0.7-1.1,0.9-2,0.2c-2.1-1.4-4.3-2.7-6.5-4c-0.3-0.2-0.4-0.1-0.7,0c-0.4,0.2-0.9,0.4-1.2-0.1c0.3-0.3,0.8-0.3,0.9-0.8
			c-0.6-1.2-1.7-1.2-2.8-1.2c-0.1,0.1-0.2,0.1-0.3,0.2c-1.6-0.9-3.3-1.6-4.7-2.8c-0.2-0.9-1-1.4-2-1.2c-0.8-0.2-1.6-0.5-2.1-1.2
			c0-0.5-0.4-0.5-0.7-0.5c-0.1,0-0.2-0.1-0.2-0.2c-0.1-0.5,0.3-1,0.2-1.6c-0.1,0.4,0.1,0.9-0.5,0.6c-0.2-0.3-0.2-0.7-0.2-1.1
			c0-0.3,0-0.6,0.1-0.9c0.1-0.4,0.2-0.8,0.3-1.2c0-0.1,0-0.2,0.1-0.4c0.2-0.6,0-1.3,0.2-2c0-0.1,0.1-0.2,0.1-0.4
			c0.2-1.1,0.4-2.2,0.3-3.3c0-0.3,0-0.5,0.1-0.8c0.2-0.9,0.5-1.9,0.4-2.8c0-0.4-0.1-0.8,0.1-1.1c0.3-0.5,0.3-1.2,0.7-1.6
			c0.9,0.2,0.5,0.8,0.4,1.4c0.2-0.5,0.1-1,0.1-1.6c0-0.5-0.4-0.2-0.5-0.3c-0.2-0.2-0.2-0.5-0.2-0.7c0-0.4,0.3-0.7,0.7-0.9
			c0.4-0.2,0.7-0.4,1.2-0.3c0.1,0,0.1,0.1,0.2,0.1c0-0.1-0.1-0.2,0-0.2c2.1-1.3,2.6-3.6,3.6-5.6c0.9-1.9,1.6-3.8,2.6-5.7
			c0.2-0.4,0.4-0.8,0.4-1.2c0-0.3,0.1-0.5,0.2-0.8c0.6-0.9,0.5-1.9,0.5-2.9c0-0.5,0-0.9,0.1-1.4c0.5-3.7,0.3-7.3,0-11
			c-0.3-3.4-0.6-6.9,0.3-10.4c0.2-0.7,0-1.5,0.2-2.2c0.2-0.4,0.4-0.8,0.3-1.3c0.1-0.9-0.1-1.7,0-2.6C77.8,7.2,77.9,7.1,78.1,7.1z"/>
		<path class="st2" d="M10.2,75.5c-0.4-0.1-0.6-0.1-1,0.2c-0.7,0.7-1.7,0.4-2.1-0.4c-3.5-5.7-5.5-12-6.5-18.6
			c-0.5-3.3-0.8-6.6-0.3-10c0.2-1.7,0.2-3.4,0.5-5.1c0.5-2.7,1-5.4,1.9-8c1.7-4.8,3.9-9.4,6.9-13.5c2.8-3.7,5.9-7.2,9.6-10
			c0.7-0.6,0.9-0.4,1.2,0.4c0.4,1.3,0.2,2.7,1.2,3.7c-0.2,0.2-0.4,0.5-0.6,0.7c-0.7,0.6,0.1,0.7,0.3,1c0.3,0.5,0.4,1.1,0.5,1.7
			c0,0.5,0,0.9,0.1,1.3c0.1,0.4,0.1,0.8,0.2,1.2c0,0.2,0,0.4,0,0.5c-0.1,0.7,0.1,1.4-0.5,1.9c-1.7,0.5-2,1.9-2.2,3.4
			c0,0.4-0.5-0.7-0.4,0.2c0.3,1.3-0.1,2.8,0.7,4c0.2,0.4,0.3,0.9,0.9,0.9c0.3,0.2,0.4,0.6,0.3,1c0,0.1-0.1,0.2-0.2,0.3
			c-0.2,0.3-0.3,0.6-0.3,0.9c0.2-0.2,0.2-0.6,0.6-0.4c0.1,0.1,0.1,0.2,0.2,0.3c0.1,0.9,0.5,1.7,0.1,2.6c-0.5,0-0.4,0-0.3,0.6
			c0.2,1,0.7,1.9,1.1,2.9c0.2,0.4,0.4,0.9,0.5,1.3c0.1-0.1-0.1-0.4,0.1-0.6c0.1-0.1,0.2-0.1,0.3-0.1c0.6,1.1,1,2.3,2.3,2.9
			c0.5,0.5,1.5,0,1.9,0.9c0.1,0.3,0.2,0.5,0.3,0.8c0.1,0.3,0.3,0.6,0.2,0.9c-0.2,0.2-0.1,0.3,0.2,0.3c1.1,1.7,2.1,3.5,3,5.3
			c-0.1,1.3-0.1,2.7-0.1,4c0,0.5,0.1,1.1-0.3,1.6c-0.1,0.1-0.3,0.1-0.4-0.1c-0.4-1.3,0.1-2.7-0.2-3.7c0,2,0.2,4.4,0.1,6.7
			c0,1.1,0.1,2.2-0.7,3.2c-0.3,0.4,0,0.9,0.2,1.3c0.1,0.4,0.1,0.7-0.5,0.8c-0.5,0-0.8,0.6-0.5,1.2c-0.6,0.6-1.2,1.2-2.2,1.1
			c-0.3-0.2-0.4-0.6-0.8-0.7c0.4,0.6-0.6,0.7-0.5,1.2c0,0.1-0.1,0.2-0.2,0.3c-0.7,0.1-1.7-0.3-1.8,1c-0.4,0.6-1.1,0.7-1.6,1.1
			c-1,0.4-1.9,1.1-3,1.3c-0.7-0.3-1.3-0.2-1.6,0.7c-0.4,0.5-0.9,0.7-1.5,0.8c-1-0.3-1.6,0.1-2,0.9c-0.3,0.3-0.6,0.5-1,0.5
			c-0.2,0.1-0.5-0.3-0.5,0.2c-0.2,0.2-0.4,0.3-0.7,0.3c-0.2,0-0.4-0.1-0.4,0.2C10.5,75.1,10.3,75.3,10.2,75.5z"/>
		<path class="st1271" d="M48.3,43.9c-0.5,0-1.1,0.1-1.5-0.3c-0.8-0.6-1.3,0.5-2.1,0.3c-0.1-0.1-0.1-0.2-0.2-0.2
			c-0.7-0.2-1.3,0.1-2,0.4c-0.4,0.2-0.7,0.7-1.3,0.7c-0.7-0.2-1.2-0.6-1.6-1.1c-0.2-0.5,0.2-0.8,0.6-1c0.7-0.4,1.2-1,1.8-1.5
			c0.6-0.4,1-1,1.8-1.1c0.7-0.1,1.4,0,1.9,0.7c0.2,0.3,0.2,0.6,0.1,0.9c0,0.3-0.4,0.5-0.1,0.7c0.2,0.2,0.4,0.4,0.7,0.1
			c0.1-0.2,0.1-0.5,0.3-0.7c0.1,0,0.2-0.1,0.3,0c0.3,0.1,0.5,0.1,0.7,0.3c0.3,0.7,1.2,0.2,1.5,0.9c-0.4,0.8-1.1,0.3-1.7,0.4
			c-0.2,0,0,0.2-0.1,0.1c0-0.1,0-0.1,0.1-0.1C47.8,43.5,48.2,43.4,48.3,43.9z"/>
		<path class="st1272" d="M77.8,11.1c-0.2,1.4-0.6,2.7-0.7,4.1c-0.3,5,0.2,9.9,0.4,14.8c0.1,1.7-0.1,3.4-0.4,5.1
			c0-0.5-0.7-0.5-0.7-0.9c0.2-3.1,0.3-6.2,0-9.3c0-0.2,0-0.3,0.1-0.5c0.1-3.1,0.1-6.3,0-9.4c-0.1-0.1-0.1-0.3,0-0.4l0,0
			c0.4-0.4,0-0.9,0.3-1.3c0-0.1,0-0.3,0.1-0.4c0.2-0.4,0-0.9,0.2-1.4c-0.2-0.5,0.3-0.9,0.3-1.4c0.2-0.8,0.3-1.6-0.1-2.4
			c0.1-0.5-0.3-0.9-0.3-1.3c0-0.3,0-0.6,0.4-0.6c0.3,0,0.4,0.2,0.5,0.5c0,0.4,0.2,0.7,0.1,1.1C78,8.2,78.2,9,78,9.9
			C77.7,10.2,78.1,10.7,77.8,11.1z"/>
		<path class="st102" d="M58.6,39.1c1-0.5,0.8,0.5,0.9,0.8c0.1,0.6-0.4,0.3-0.7,0.4c-2.3,0.2-4.6,0.1-6.9,0.1
			c-0.4,0-0.8-0.1-0.9,0.5c-0.1,0.1-0.2,0.1-0.3,0c-0.1-0.2-0.1-0.4,0-0.6c0.2-0.3,0.4-0.3,0.7-0.4c1.7-0.2,3.4,0,5-0.1
			c-1.6-0.2-3.4-0.6-5.1,0.1c-0.9,0.2-1.8,0.2-2.6,0c-0.4-0.1-0.7-0.3-0.8-0.7c-0.1-0.4,0-0.7,0.3-1c0.9-0.5,1.8-0.4,2.7-0.3
			c0.5,0.1,0.9,0.2,1.4,0c1-0.1,2-0.1,3,0c0.8,0.8,2,0.9,3,1.4c0.1,0,0.2,0.2,0.3,0C58.6,39.2,58.6,39.2,58.6,39.1z"/>
		<path class="st1273" d="M75.8,41.2c-1.4,3.2-2.8,6.3-4.1,9.5c-0.5,1.1-1.5,1.3-2.3,2l0,0c-0.4-0.1-0.7,0.3-1.1,0.3
			c-0.4,0.1-0.7,0-0.8-0.4c0.9-0.7,2.2-0.8,3-1.6c0.3-0.5,0.5-1,0.8-1.5c1.3-3,2.6-6,4-9c0.3-0.6,0.5-1.1,0.8-1.7
			c0.5,0,0.4,0.3,0.3,0.6c0,0.2-0.1,0.5-0.1,0.7C76,40.5,75.9,40.8,75.8,41.2z"/>
		<path class="st261" d="M34.9,81.3c-0.4,0.3-0.5,0-0.5-0.3c0.1-1.4-0.1-2.7,0.3-4.1c0.5-1.8,0.1-3.8,0.2-5.8
			c0.2-2.7-0.8-5.4-0.5-8.1c0-0.4-0.2-0.8,0.3-1.2c0.4,0.1,0.4,0.5,0.4,0.8c-0.3,3.9,0.9,7.7,0.5,11.5
			C35.4,76.5,35.1,78.9,34.9,81.3c-0.3-0.5-0.1-1-0.2-1.6C34.8,80.3,34.6,80.8,34.9,81.3z"/>
		<path class="st1274" d="M15.1,72.5c0.5-0.2,1.1-0.4,1.5-0.8c0.4-0.5,1-0.6,1.6-0.7c1-0.4,2-0.9,2.9-1.3c0.4-0.2,0.6-0.1,0.8,0.3
			c-3.6,2.1-7.4,3.7-11.1,5.5c-0.2,0.1-0.5,0-0.7,0c0.1-0.2,0.1-0.5,0.2-0.7c0.1-0.2,0.4-0.1,0.5-0.2c0.2-0.1,0.5-0.2,0.7-0.3
			c0.1-0.1,0.3-0.1,0.4-0.2c0.3-0.3,0.8-0.2,1.1-0.6C13.6,72.8,14.4,72.6,15.1,72.5z"/>
		<path class="st283" d="M51.5,44.7c-0.8,1.4-1.8,2.7-3.2,3.6c-1.5,1-2.2,2.6-3.1,4c-0.4,0.2-0.4,0.6-0.6,0.9
			c-0.1,0.1-0.3,0.2-0.4,0.3c-0.2,0.1-0.4,0.1-0.6,0c1.4-2.4,2.7-4.8,4.9-6.5c0.9-0.7,1.6-1.6,2.1-2.6c0.4-0.7,0-1.5,0.2-2.3
			c0.3-0.2,0.6-0.1,0.9,0C52.1,43.1,51.9,43.9,51.5,44.7z"/>
		<path class="st1275" d="M71,74.7c1.6,1,3.2,1.9,4.8,2.9c0.2,0.1,0.3,0.3,0.2,0.5c-0.1,0.2-0.3,0.1-0.5,0c-2.2-1-4.1-2.3-6.2-3.5
			c-1-0.6-2.1-1.3-3.1-1.9c-0.2-0.1-0.4-0.3-0.2-0.5c0.1-0.2,0.4-0.2,0.7-0.2c0.1,0,0.2,0.1,0.3,0.2c0.6,0.6,1.3,0.9,2,1.2
			C69.7,73.7,70.5,73.9,71,74.7z"/>
		<path class="st191" d="M23.2,18.9c0.2-1.2,0.9-2.1,1.3-3.2c0.8-2.1,1.2-4.3,1-6.6c0-0.5-0.2-1.3,0.3-1.3c0.7,0,0.4,0.9,0.4,1.3
			c0.2,3.2-0.6,6.1-1.9,9c-0.2,0.4-0.2,0.8-0.3,1.2c-0.1,0.3-0.2,0.9-0.7,0.4C23.4,19.4,23.6,19.1,23.2,18.9z"/>
		<path class="st1276" d="M22,69.9c-0.3-0.1-0.5-0.2-0.8-0.3c0.5-0.3,1-0.7,1.6-1c0.4-0.9,1.3-0.8,2-1l0,0C25,67.2,25.5,67,26,67
			c0.9-0.1,1.5-0.8,2.2-1.1c0.3-0.6,0.9-0.7,1.4-1c0.2-0.1,0.5-0.2,0.7,0c0.2,0.4-0.2,0.5-0.3,0.8C27.5,67.3,24.7,68.6,22,69.9z"/>
		<path class="st1277" d="M34.3,51.7c0.6-2,1.5-3.8,2.5-5.5c0.2,0.1,0.4,0.3,0.5,0.6c0,1.3-0.9,2.2-1.3,3.4c-0.4,1.1-1.1,2-1.4,3.1
			c-0.2,0.3-0.4,0.7-0.5,1c-0.1,0.2,0.1,0.4,0.3,0.4c0.1,0,0.2,0.1,0.2,0.2c0,0.4-0.3,0.5-0.5,0.8c-0.6,0.2-1.1,0.3-1.2-0.5
			c0.2-0.8,0.5-1.6,0.9-2.3C34.1,52.5,34.1,52,34.3,51.7z"/>
		<path class="st1278" d="M30.1,65.7c0.1-0.3,0.1-0.6,0.2-0.8c-0.4-0.4-0.4-0.9-0.2-1.4c0.1-0.1,0.2-0.2,0.3-0.2
			c0.3,0.1,0.5,0.3,0.6,0.5c0.8,0.7,0,1.7,0.5,2.4c0.6,2.4,0.1,4.8-0.2,7.2c-0.6-0.5-0.1-1.1-0.2-1.6c0-0.4,0-0.8,0-1.5
			c-0.2,0.8,0.4,1.5-0.4,2c-0.2-2,0.5-4,0-6C30.7,65.8,30.7,65.5,30.1,65.7z"/>
		<path class="st835" d="M43.7,53.5c0.2,0,0.4,0,0.6,0c-0.1,0.9-0.8,1.5-1.1,2.2c-0.3,0.5,0.8,0.4,0.5,1c-1.1,0.5-0.9,1.7-1.5,2.5
			c-0.3,0.5-0.4,1.1-0.5,1.6c0,0.1,0,0.1,0,0.2c-0.3,0.2,0,0.8-0.4,0.7c-0.4-0.1-0.2-0.5-0.1-0.8C41.2,58.3,42.2,55.8,43.7,53.5z"/>
		<path class="st283" d="M34.6,54.8c-0.1,0-0.2,0-0.3,0c-0.1-0.1-0.2-0.2-0.2-0.3c0-0.3,0.1-0.6,0.2-0.9c1.1-1.7,2.2-3.4,3.4-5
			c0.3-0.4,0.6-0.8,1.2-0.8c0.1,0,0.2,0.1,0.3,0.2c0.3,0.3,0.3,0.8,0,1c-1.7,1.2-2.5,3.1-3.7,4.7C35.3,54.1,35.1,54.5,34.6,54.8z"/>
		<path class="st283" d="M37.1,46.7c-0.2-0.1-0.3-0.3-0.3-0.6c1.2-2.3,2.8-4.2,5.1-5.5c0.2-0.1,0.4-0.2,0.5,0.1
			c0.1,0.4-0.4,0.5-0.5,0.8c-0.6,0.9-1.8,1.2-2.4,2.1C39,44.8,38.2,45.9,37.1,46.7z"/>
		<path class="st1279" d="M30.5,50.8c-1.2-1.6-2-3.4-3-5.1c-0.1,0-0.1-0.1-0.1-0.1c0-0.1,0-0.1,0.1-0.1c-0.1-0.3-0.2-0.7-0.2-1
			c-0.1-0.1-0.1-0.1-0.1-0.2c0-0.1,0-0.1,0.1-0.1c0.2-0.1,0.3-0.1,0.5,0c0.2,0.3,0.3,0.7,0.5,1.1c0.8,1.6,1.6,3.3,2.6,4.8
			c0.2,0.3,0.5,0.6,0.4,1c-0.2,0.2-0.1,0.4-0.3,0.6c-0.1,0-0.2,0-0.3-0.1C30.6,51.3,30.8,51,30.5,50.8z"/>
		<path class="st2" d="M48,34.8c0.7-0.8,1.5-0.6,2.3-0.3c1.1,0.5,2.1,0.4,3.1,0c1.2-0.4,2.4-0.5,3.5,0.5c0.2,0.5-0.3,0.3-0.5,0.5
			c-0.9-0.6-1.9-0.6-2.8-0.3c-0.8,0.3-1.5,0.4-2.3,0.3c0.3-0.7,0.7-0.2,1.1-0.3c-0.5-0.2-1.2,0.1-1.8,0.1c-0.7-0.3-1.5-0.4-2.3-0.1
			C48.1,35.2,48,35,48,34.8z"/>
		<path class="st257" d="M60.6,10.6c1.7-0.6,3.4-1,5.1-1c1.5,0,2.9-0.7,4.4-0.5c0.2,0,0.4-0.2,0.5-0.5l0,0c0.4,0,0.8,0,1.3,0
			c-0.1,0.8-0.9,0.6-1.3,1c-0.3,0-0.7,0-1,0c-0.6-0.2-1.2-0.2-1.8,0c-1.5,0.9-3.3,0.4-4.8,1c-0.4-0.2-0.8-0.1-0.9-0.1
			c0,0,0.2-0.1,0.4,0.1c-0.5,0.4-1.3,0.1-1.8,0.5C60.7,11,60.5,10.9,60.6,10.6z"/>
		<path class="st393" d="M68.7,16.4c-0.1,0.1-0.3,0.4-0.4,0.4c-2,0.1-4,0.3-5.9-0.1c0.9-0.6,1.9-0.1,2.7-0.3c-0.5,0-1.1,0-1.8,0
			c-0.3,0-0.8,0.1-0.8-0.5c2.3,0,4.6,0,6.8-0.3c0.3,0,0.9-0.1,0.9,0.3c0,0.6-0.6,0.4-0.9,0.4C69,15.9,68.8,16.3,68.7,16.4z"/>
		<path class="st1280" d="M67.2,56.8c-0.5,0.3,0.1,0.5,0,0.8c-0.1,1-0.3,2.1-0.5,3.1c0,0.2,0,0.4-0.1,0.7c-0.1,1.2-0.3,2.4-0.5,3.5
			l0,0c-0.4,0.7,0.1,1.5-0.3,2.3l0,0c-0.1,0.1-0.2,0.3-0.4,0.3c-0.1,0-0.2-0.1-0.2-0.3c0-0.4-0.1-0.8,0.1-1.1c0-0.2,0-0.5,0-0.7
			c0.3-0.5,0.1-1,0.1-1.6c-0.1-0.7,0.1-1.4,0.3-2c0.3-1.2,0.3-2.4,0.5-3.5c0-0.3,0-0.6,0-0.9c0.2-0.2,0.1-0.5,0.1-0.7
			c0-0.3,0-0.7,0.4-0.6C67.4,56,67.3,56.4,67.2,56.8z"/>
		<path class="st1281" d="M39.3,48c-0.2,0-0.3-0.1-0.5-0.1c0.5-1.3,1.2-2.4,2.4-3.2c0.8-0.7,1.6-1.3,2.7-1.5c0.3-0.1,1-0.4,0.8,0.5
			c-0.4,0.3-0.9-0.1-1.3,0.2c-1.4,0.7-2.2,2-3.1,3.1C40,47.5,39.7,47.8,39.3,48z"/>
		<path class="st1282" d="M43.4-0.7c0.7,0,1.3,0,1.9,0c0.2,0,0.4,0.1,0.5,0.4c0,0.2-0.2,0.4-0.4,0.4c-1.7-0.1-3.3,0.2-5,0.5
			c-0.3,0-0.6,0-0.7-0.4c0-0.3,0.3-0.3,0.6-0.4C41.4-0.4,42.4-1.1,43.4-0.7z"/>
		<path class="st398" d="M42,41.5c-0.2-0.3,0.8-0.6,0-0.8c0.4-0.4,0.9-0.8,1.3-1.2c1,0.1,2.1-0.2,3,0.4c0.5,0.5,0.9,1,1.1,1.6
			c0,0.4-0.2,0.6-0.7,0.4l0,0c-0.2-0.1-0.4-0.2-0.5-0.3c-0.1-0.1-0.2-0.2-0.3-0.3c-0.2-0.1-0.3-0.3-0.4-0.4c-0.9-0.9-1.8-0.8-2.7,0
			C42.5,41.1,42.2,41.3,42,41.5z"/>
		<path class="st102" d="M47.5,38.2c0-0.7,0.5-1.1,1.1-1c2.4,0,4.8,0.2,7.2,0c1.1-0.1,1.5,0.7,2,1.3c-0.6,0-1.2,0.8-1.7-0.1
			c-0.1-0.4-0.4-0.4-0.7-0.4c-1.2,0-2.3,0-3.5,0c-1.1-0.3-2.1,0.1-3.2,0C48.3,37.9,48,38.3,47.5,38.2z"/>
		<path class="st1283" d="M25.3,42.9c-1.4-0.4-2-1.6-2.3-2.9c-0.1-0.2-0.1-0.4-0.1-0.6c0.3-0.3,0.4,0,0.6,0.2c0.5,1,0.5,2.4,2.1,2.5
			c0.2,0,0.3,0.1,0.5,0c1.6-0.2,1.6-0.2,1.8,1.4c0.1,0.1,0.1,0.2,0,0.3c-0.7,0-0.4-0.6-0.6-0.9c-0.1-0.1-0.1-0.2-0.1-0.1
			c0,0-0.1,0-0.1,0.1c-0.1,0-0.2,0-0.3,0C26.2,43.1,25.7,43.2,25.3,42.9z"/>
		<path class="st2" d="M55.7,26c0.7,0,1.2,0.5,1.6,1.2c0.1,0.2,0.3,0.6,0,0.9c-0.2,0.3-0.5,0.1-0.8,0c-0.4-0.1-0.7-0.1-1.1-0.1
			c-0.6-0.1-1.3-0.1-1.3-0.9C54.1,26.4,54.7,26,55.7,26z"/>
		<path class="st235" d="M41.2,16.2c0.6-0.5,1.3-0.2,1.3,0.4c-0.1,1.2,0.6,0.5,0.9,0.5c0.4-0.1,0.7-0.7,1,0c0.2,0.5-0.1,0.9-0.7,0.9
			c-0.5-0.4-1.2-0.1-1.7-0.2c-0.9,0.1-1.8,0.1-2.6,0c-0.3,0-0.6-0.1-0.9-0.2c-0.2-0.1-0.3-0.3-0.3-0.5c0-0.1,0.1-0.2,0.2-0.3
			c0.7-0.3,1.4-0.1,2.1-0.1c0.3,0,0.7,0.1,0.9-0.2C41.2,16.3,41.2,16.2,41.2,16.2z"/>
		<path class="st860" d="M57,69.4c0.1-0.7,0.5-1.1,0.9-1.5c0.2,0,0.4-0.4,0.6-0.1c0.1,0.1,0.1,0.3,0,0.4c-0.1,0.1-0.3,0.2-0.3,0.3
			c0,0.4-0.9,0.7-0.4,1.1c0.3,0.3,1,0.1,1.4-0.2c0.5-0.4,1.1-0.7,1.2-1.5c0.2-0.2,0-0.6,0.4-0.8c0.4,0.5,0.3,1,0.1,1.6
			c-0.8,1-1.5,2-3,1.5C57.1,70.5,56.8,70.3,57,69.4z"/>
		<path class="st1284" d="M19.2,26c0-2.5,0.3-3,2.2-3.6c0.3-0.1,0.4,0.1,0.6,0.2c0.1,0.1,0.1,0.2,0.1,0.3c0,0.2,0,0.4-0.2,0.6
			c-1.1-0.4-2,0.1-2,1.3c0,0.3,0,0.6,0,0.9c0.2,0.5,0.1,0.9,0.1,1.4c0,0.1-0.1,0.2-0.3,0.3c-0.1,0-0.3,0-0.4-0.1
			C19.1,26.9,19.1,26.5,19.2,26z"/>
		<path class="st1285" d="M67.5,52.7c0.3,0.1,0.5,0.3,0.8,0.4c-0.2,0.2-0.6,0.3-0.6,0.7c-0.2,0.4,0,0.8-0.1,1.2
			c-0.1,0.4-0.1,0.9-0.7,0.6c-0.4-1.6-0.4-1.6-2.1-0.8c-0.2,0.1-0.4,0.1-0.5-0.1c-0.1-0.2,0.1-0.4,0.2-0.5
			C65.4,53.7,66.4,53.2,67.5,52.7z"/>
		<path class="st1286" d="M19.7,27.3c0.1,0,0.2,0,0.2,0c0.3,0.3,0,0.7,0.3,1c0.2,1.3,1.1,2.2,1.3,3.5c0.2,0.6-0.1,1.2,0.2,1.7
			c0.1,0.3,0.2,0.6-0.2,0.7c-0.4,0.1-0.4-0.3-0.4-0.6c0-0.2,0-0.3-0.1-0.5c0-0.1-0.1-0.2-0.1-0.2c-0.2-0.2-0.2-0.5-0.1-0.8
			c0-0.4-0.2-0.7-0.4-1c-0.5-0.4-0.6-0.9-0.7-1.4C19.6,28.9,19.1,28.1,19.7,27.3z"/>
		<path class="st187" d="M59.9,42c-0.9,0.7-1.9,1.1-3.1,1.2c-0.5,0-1-0.1-1.5,0c-1,0.2-2,0.6-3,0.5c-0.2-0.1-0.5-0.3-0.2-0.6
			c2.6-0.1,5.1-0.3,7.5-1.5C59.8,41.6,59.9,41.7,59.9,42z"/>
		<path class="st774" d="M54.3,62.9c-0.3,0.5-0.8,0.7-1.2,1c-1.1,0.6-2.1,1.3-2.6,2.6c-0.4-0.1-0.6-0.5-0.6-0.9
			c0.3-1.4,1.6-1.8,2.6-2.5c0.4-0.3,0.8-0.3,1.3-0.4c0.1,0,0.1-0.1,0.2-0.1C54.2,62.6,54.3,62.7,54.3,62.9z"/>
		<path class="st1287" d="M49.3,54.9c-0.9,0.5-1.8,0.9-2.8,0.9c-0.1-0.4,0.4-0.3,0.5-0.5c-0.2,0.2-0.4,0.1-0.6-0.1
			c2-1.2,4.3-1.3,6.5-1.2c0.3,0,0.5,0.2,0.6,0.5c-1.1,0.1-2.1,0-3.2,0C50,54.6,49.5,54.4,49.3,54.9z"/>
		<path class="st871" d="M50.1,65.7c0.1,0.3,0.3,0.6,0.4,0.8c0,0.5-0.2,0.9-0.5,1.2c-0.1-0.1-0.1-0.1-0.1-0.1c0.1,0,0.1,0,0.2,0.1
			c-0.1,0.7-0.5,1.3-0.8,2c-0.6-0.7-0.4-1.5-0.8-2.3c0.1-0.7,0.2-1.3,0.3-2c0.1-0.1,0.2-0.1,0.3-0.1c0.2,0.3,0.3,0.6,0.4,1
			c0,0.1,0,0.2,0.1,0.3c0.1-0.2,0.2-0.5,0.2-0.7C49.8,65.8,49.9,65.7,50.1,65.7z"/>
		<path class="st2" d="M56.3,35.6c0.2-0.2,0.3-0.3,0.5-0.5c1.7,0.6,2.6,2.1,3.8,3.3c0,0.2-0.1,0.4-0.3,0.5
			C59.2,37.6,57.9,36.4,56.3,35.6z"/>
		<path class="st352" d="M57,69.4c0,0.6,0.3,0.9,0.9,0.8c-0.9,0.9-0.7,2.3-1.3,3.4c0,0.1,0.1,0.2,0,0.2c-0.1,0.4-0.3,0.7-0.5,1.1
			c-0.1,0.1-0.3,0-0.4-0.2c-0.3-0.5,0.1-0.7,0.3-1.1c0.3-0.4,0-0.9,0.3-1.3C56.5,71.4,56.8,70.4,57,69.4z"/>
		<path class="st2" d="M46.2,40.2c-0.8-0.8-2-0.3-3-0.8c0.4-0.7,0.8-1.4,1.5-1.8c0.2,0,0.4,0.1,0.5,0.2c-0.2,0.6-0.8,0.8-1.1,1.4
			c1.2,0.5,2.1-0.5,3.1-0.7c0.1,0.1,0.2,0.2,0.2,0.3C47.2,39.5,46.9,40.1,46.2,40.2z"/>
		<path class="st872" d="M30.8,76.8c0.2,1.1-0.4,2.2,0,3.3c0.1,0.2,0,0.5-0.2,0.6c-0.4,0.1-0.5-0.2-0.6-0.5
			c-0.5-1.5-0.1-2.9,0.3-4.3c0.6,0.6-0.1,1.2,0.2,1.7C30.6,77.5,30.1,76.8,30.8,76.8z"/>
		<path class="st357" d="M51,42.2c0.2,0.8,0.4,1.6-0.2,2.3c-0.1-0.5,0.2-1.1-0.1-1.7c-0.7,0.6-1.6,0.8-2.4,1.1
			c-0.4-0.2-0.7-0.4-1.1-0.6c0.6-0.4,1.4,0.1,1.8-0.4c0.2-0.7,1.1-0.7,1.5-1.3C50.9,41.6,51,41.8,51,42.2z"/>
		<path class="st1288" d="M46.2,9.1c0.5,0.1,1.1,0.2,1.5,0.5c0,0.1-0.3,0.1-0.1,0.2c0.1,0.1,0.2-0.1,0.4-0.2c0.8,0.8,0,0.8-0.4,0.7
			c-1-0.2-2.1-0.4-3.1-0.7c-0.6-0.2-1.3-0.1-1.9-0.5c0,0,0.1-0.1,0.1-0.1c0.3-0.3,0.9,0,1.2-0.4C44.6,9,45.5,8.6,46.2,9.1
			c-0.1,0.1-0.3,0.2-0.5,0.2C45.9,9.3,46.1,9.2,46.2,9.1z"/>
		<path class="st1288" d="M40.6,7.6c1,0.2,2.1,0.4,3.1,1c-0.2,0.4-0.8,0.1-1,0.5c0,0,0,0,0,0c-0.5-0.2-1-0.4-1.5-0.5
			c0.1-0.1,0.1-0.1,0.2-0.2c-0.1,0.1-0.1,0.1-0.2,0.2c-1.2-0.3-2.4-0.5-3.6,0c-0.3-0.2-0.8-0.4-0.8-0.9c0.6-0.6,1,0,1.5,0.2
			C39.1,7.8,39.9,8,40.6,7.6z"/>
		<path class="st1289" d="M76.3,39.5c0-0.2-0.1-0.5-0.3-0.6c0.1-0.6,0.2-1.2,0.3-1.8c0.3-0.7,0.1-1.4,0.1-2.1c0-0.1,0-0.3,0.1-0.4
			c1.1-0.8,0.2,0.5,0.6,0.6C76.9,36.6,77.5,38.2,76.3,39.5z"/>
		<path class="st1290" d="M23,39.4c0,0.2,0,0.4,0,0.6c-0.1,0-0.1-0.1-0.2-0.1c0,0-0.1-0.1-0.2-0.1c-0.3-0.4-0.5-0.8-0.7-1.2
			c-0.3-0.9-1-1.7-0.5-2.8c0-0.4,0-0.7,0-1.1c0.1-0.6,0.4-0.4,0.6-0.1c0,0.2,0,0.4,0,0.6c0.2,0.5,0.1,1.1,0.4,1.5
			c0.3,0.3,0.2,0.8,0.3,1.1c0.1,0.2,0.2,0.5,0.3,0.7C23.1,38.8,23.2,39.1,23,39.4z"/>
		<path class="st834" d="M57.8,61.1c-0.1-0.2-0.2-0.3-0.2-0.5c-0.1-0.2-0.2-0.4,0-0.5c0.2-0.1,0.4,0.1,0.5,0.2
			c0.6,1.5,1.8,2.6,2.8,3.8c0.2,0.4,0.1,0.6-0.4,0.5c-0.6-0.8-1.3-1.5-1.9-2.3C57.7,62.3,57.8,61.7,57.8,61.1z"/>
		<path class="st1030" d="M62.4,15.9c0.8,0.5,1.6,0.2,2.4,0.3c0.6,0.1,1.1-0.1,1.7,0.2c0,0.1,0,0.2,0,0.4c-1.4,0-2.7,0-4.1,0
			c-0.5,0-0.9-0.2-1.1-0.6C61.6,15.8,62,15.9,62.4,15.9z"/>
		<path class="st1291" d="M75.4,78.1c0.3,0,0.6-0.1,0.3-0.5c0,0,0-0.1,0-0.1c1.2,0.1,2.2,0.5,3,1.4c0.5,1.3-0.6,0.5-0.9,0.7
			C77.1,78.9,76.1,78.8,75.4,78.1z"/>
		<path class="st2" d="M60.4,27.5c0,0.5-0.4,0.8-0.6,1.2c-0.1,0.1-0.3,0.2-0.4,0c-0.1-0.1-0.2-0.4-0.1-0.4c0.7-0.8,0.2-1.4-0.2-2
			c-0.1-0.2-0.3-0.4-0.1-0.6c0.3-0.2,0.5,0,0.6,0.2C59.9,26.3,60.4,26.8,60.4,27.5z"/>
		<path class="st774" d="M58.1,60.4c-0.3-0.1-0.5-0.2-0.5,0.3c-0.8-1.2-1.5-2.4-2.1-3.8c0.3-0.3,0.4,0.2,0.6,0.2
			C57.1,57.9,57.6,59.2,58.1,60.4z"/>
		<path class="st304" d="M50,61.1c0.5-0.3,1-0.5,1.4-0.8c0.6-0.2,0.7,0.1,0.7,0.6c0,0.2-0.1,0.5-0.2,0.7c-0.5,0.3-1.1,0.1-1.4,0.7
			c-0.2,0.2-0.2,0.5-0.3,0.8c-0.1,0.2-0.2,0.6-0.6,0.5c-0.3-0.1-0.3-0.5-0.3-0.7C49.5,62.2,49.2,61.4,50,61.1z"/>
		<path class="st2" d="M76.5,34.6c-0.1,0-0.1,0.1,0,0.1c0,0.1-0.1,0.2-0.2,0.1c0.1-3.4,0.2-6.8,0-10.1c0.1-0.1,0.2,0,0.2,0.1
			c0,2.5,0.5,4.9,0.1,7.4C76.5,33,76.3,33.8,76.5,34.6z"/>
		<path class="st1292" d="M39.4,17.5c0.9,0.2,1.7,0.2,2.6,0c0.4,0.5,1.1,0,1.5,0.5c-1.8,0.4-3.5,0.7-5.3,0c0,0,0.1-0.1,0.1-0.1
			C38.6,17.6,39.1,17.8,39.4,17.5z"/>
		<path class="st877" d="M52,61.1c0.1-0.4,0-0.8-0.5-0.8c0.9-0.9,2.1-0.5,3.2-0.8c0.2,0,0.4,0.1,0.4,0.4c0,0.3-0.2,0.4-0.5,0.4
			c-0.6,0.1-1.2,0.1-1.7,0.2c-0.5,0.1-0.7,0.3-0.5,0.8C52.1,61.4,52,61.4,52,61.1z"/>
		<path class="st304" d="M48.5,67.4c0.6,0.6,0.8,1.4,0.8,2.3c-0.2,0.6-0.4,1.3-0.8,1.8c-0.6-0.1-0.3-0.5-0.3-0.8
			C48.5,69.6,48.1,68.5,48.5,67.4z"/>
		<path class="st2" d="M44.7,29c-1.2-1.3-1.3-1.7-0.5-2.9c0.2-0.2,0.3-0.5,0.6-0.3c0.3,0.2,0.2,0.5,0.1,0.7c-0.8,0.9-0.1,1.4,0.4,2
			C45.3,29,45.1,29.1,44.7,29z"/>
		<path class="st1293" d="M49.3,54.9c-0.3-0.4,0-0.5,0.3-0.6c1.3,0,2.7-0.2,4,0.2c0.3,0.1,0.5,0.2,0.6,0.5c-0.1,0.2-0.2,0.3-0.4,0.3
			C52.4,54.3,50.8,54.9,49.3,54.9z"/>
		<path class="st1294" d="M76.5,24.8c-0.1,0-0.1-0.1-0.2-0.1c0-2.9,0-5.8,0-8.6c0-0.5-0.1-1,0.2-1.5c0,0.1,0.1,0.3,0.1,0.4
			c0.1,3.1,0.1,6.2,0,9.4C76.6,24.5,76.5,24.7,76.5,24.8z"/>
		<path class="st1221" d="M21.5,18.9c-0.3-0.4-0.4-0.8,0-1.2c-0.2-0.2-0.1-0.5-0.1-0.7c0-0.2-0.1-0.5,0.2-0.5
			c0.4-0.1,0.2,0.4,0.4,0.5c0.2,0.9,0.3,1.8,0.5,2.8c-0.6,0.1,0,0.7-0.4,0.8c-0.1,0.1-0.2,0.1-0.3,0.1c0-0.1-0.1-0.3-0.1-0.4
			C21.4,19.8,21.7,19.3,21.5,18.9z"/>
		<path class="st1295" d="M22,16.9c-0.5-0.3-0.5-0.3-0.5,0.8c-0.2-0.6-0.4-1.2-0.6-1.8c-0.3-0.3-0.4-0.6-0.2-1
			c0-0.4,0.2-0.7,0.7-0.7C21.7,15.1,21.9,16,22,16.9z"/>
		<path class="st344" d="M70.7,8.6c-1.5,0-2.9,0-4.4,0C67.4,7.8,70.1,7.9,70.7,8.6C70.7,8.6,70.7,8.6,70.7,8.6z"/>
		<path class="st836" d="M54.5,78c0.3-1,0.4-2.1,1.6-2.8c-0.4,1.5-0.8,2.8-1.6,4c-0.2-0.1-0.3-0.3-0.2-0.5
			C54.4,78.4,54.4,78.2,54.5,78z"/>
		<path class="st180" d="M48,34.8c0.2,0.1,0.3,0.3,0.2,0.5c-1,0.5-1.6,1.5-2.5,2c-0.2-0.1-0.3-0.3-0.3-0.5
			C46.2,36,46.9,35.2,48,34.8z"/>
		<path class="st1296" d="M31.6,58.3c0.2-0.6,0.2-1.3,0.7-1.9c0.2,0.1,0.4,0.2,0.5,0.4c-0.3,1.3-0.6,2.6-0.9,3.9
			c-0.5-0.4-0.3-1.1-0.5-1.6C31.3,58.8,31.4,58.6,31.6,58.3z"/>
		<path class="st2" d="M46.7,26.8c1.3-1,2.5-0.9,3.6,0.2c0,0.1-0.1,0.2-0.2,0.2c-0.3,0.1-0.5,0.2-0.8,0.1c-0.7-0.3-1.4-0.4-1.8,0.5
			c-0.1,0.1-0.2,0.1-0.3,0C46.9,27.5,46.8,27.1,46.7,26.8z"/>
		<path class="st151" d="M56.4,38.1c0,0.2,0,0.6,0.2,0.4c0.4-0.5,0.8-0.2,1.2-0.1c0.2,0.2,0.4,0.6,0.8,0.7c0,0,0,0.1,0,0.1
			c0.2,0.1,0.4,0.3,0.3,0.5c-0.1,0.2-0.3,0.2-0.5,0.1c-0.3-0.2-0.6-0.6-1.1-0.5c-0.9,0.1-1.4-0.3-1.8-1c0,0,0.1-0.1,0.1-0.1
			C55.9,38,56.1,37.9,56.4,38.1z"/>
		<path class="st2" d="M22.9,11.1c-0.2,0.7-0.5,1.4-0.7,2.1c-0.1,0.2-0.1,0.6-0.4,0.5c-0.4-0.1-0.4-0.5-0.3-0.7
			c0.3-0.7,0.4-1.5,1-2.1C22.7,10.8,22.8,10.9,22.9,11.1z"/>
		<path class="st1297" d="M31.6,66.1c-0.7-0.6,0.2-1.7-0.8-2.3c0.2-0.7,0.1-1.5,0.4-2.3c0.2-0.2,0.4-0.4,0.7-0.3
			C32,63,31.6,64.6,31.6,66.1z"/>
		<path class="st682" d="M43.9,7.6c-1.2-0.8-2.6-0.2-3.8-0.8C41.4,6.6,42.7,6.2,44,7C43.9,7.2,44.1,7.4,43.9,7.6z"/>
		<path class="st1298" d="M60.9,68.7c0-0.4,0-0.8-0.1-1.3c-0.3,0-0.2,0.4-0.4,0.5c-0.2-1,0.3-2,0.2-3c0.8,0.1,0.2,0.7,0.3,0.9
			C60.9,66.1,61.2,66,61,66c0,0,0,0,0-0.1c0-0.2-0.1-0.5,0.3-0.5C61.4,66.5,61.2,67.6,60.9,68.7z"/>
		<path class="st1299" d="M65.4,67.4c0.1,0,0.2,0,0.2,0c0.2,0.3,0.2,0.7,0,1.1c0,0.3,0,0.6-0.1,1c-0.2,0.4-0.1,0.8-0.1,1.3
			c0.1,0.2,0.1,0.5-0.1,0.7c-0.4-0.3-0.5,0.1-0.6,0.3c-0.5-0.7,0-1.4,0-2.1C65.2,69,64.7,68.1,65.4,67.4z"/>
		<path class="st2" d="M50.8,32.3c-0.5,0.8-0.1,1.2,0.7,1.5c0.2,0.1,0.5,0.2,0.4,0.5c-0.1,0.3-0.4,0.2-0.7,0.1
			c-1.4-0.5-1.6-1.3-0.7-2.6C50.7,31.9,50.8,32.1,50.8,32.3z"/>
		<path class="st1300" d="M77.9,7.3c-0.2-0.5-0.3-1-0.6-1.7c-0.5,0.9,0,1.6,0,2.2c0.1,0.1,0,0.2-0.1,0.3c-0.3-0.6-0.5-1.3-0.5-2
			c0-0.4,0-0.8,0.4-0.9c0.5-0.1,0.7,0.4,0.8,0.8c0.1,0.4,0.1,0.7,0.1,1.1C78,7.2,78,7.3,77.9,7.3z"/>
		<path class="st626" d="M55.8,56.1c0.2-0.1,0.3-0.4,0.6-0.3c0.5-0.2,1.1,0.1,1.6-0.2c0.4-0.1,0.8-0.2,1.3-0.3
			c0.1,0.1,0.2,0.3,0.1,0.4c-0.1,0.1-0.3,0.2-0.4,0.3l0,0c-0.4,0.2-0.9,0-1.3,0.2c-0.6,0.2-1.1,0.4-1.7,0.3
			C55.8,56.5,55.7,56.4,55.8,56.1z"/>
		<path class="st648" d="M63.5,8.5c-1,0.3-2.1-0.1-2.9,0.5c0,0-0.2-0.1-0.3-0.2c-0.1-0.2,0-0.3,0.1-0.4C60.9,7.9,62.7,7.9,63.5,8.5z
			"/>
		<path class="st668" d="M31.6,58.3c0,0.2,0,0.5-0.1,0.7c0.1,0.8,0.2,1.6-0.1,2.3c-0.4,0.2-0.6-0.1-0.7-0.3c-0.3-1.2-0.3-2.4,0-3.6
			c0.1-0.1,0.2-0.2,0.4-0.2C31.4,57.5,30.6,58.4,31.6,58.3z"/>
		<path class="st774" d="M54.3,62.9c-0.1-0.1-0.2-0.2-0.3-0.4c0.6-0.6,1.2-1,2.1-1.2c0.5,0.3,1-0.1,1.5,0.3
			c-0.4,0.9-1.3,0.1-1.8,0.5C55.3,62.3,54.9,62.8,54.3,62.9z"/>
		<path class="st1301" d="M55.8,62.1c0.4-0.5,1-0.2,1.5-0.4c-0.4-0.3-1,0-1.3-0.4c0.6-0.2,1.2,0.3,1.7-0.3c0.3,0.4,0.1,1.1,0.8,1.3
			C57.6,62.3,56.7,62.2,55.8,62.1z"/>
		<path class="st1302" d="M30.8,72.2c0.6-0.6,0-1.4,0.6-2.3c0,1.4,0,2.4,0,3.4c-0.1,0.6-0.2,1.1-0.3,1.7c-0.1,0.1-0.2,0.1-0.3,0
			c-0.2-0.1-0.2-0.3-0.2-0.5c0.3-0.4,0.1-1,0.3-1.4C30.8,72.8,30.8,72.5,30.8,72.2z"/>
		<path class="st522" d="M54.6,79.3c-0.2,0.6-0.4,1.3-0.8,1.8c-0.1,0.2-0.3,0.5-0.6,0.3c-0.3-0.1-0.3-0.5-0.1-0.7
			c0.4-0.5,0.4-1.3,0.9-1.7C54.2,79.2,54.2,79.5,54.6,79.3z"/>
		<path class="st1303" d="M31,57.3c-0.1,0-0.1,0.1-0.2,0.1c-0.7-0.7-0.3-1.6-0.3-2.4c0-1.2,0-2.4,0.5-3.5c0.1-0.2,0.2-0.3,0.3-0.5
			C31.4,53.1,31.1,55.2,31,57.3z"/>
		<path class="st2" d="M59.9,42c-0.1-0.1-0.2-0.2-0.3-0.3c0.7-0.5,1.2-1.3,2.4-1.5C61.4,41.2,60.8,41.7,59.9,42z"/>
		<path class="st2" d="M59.1,9.6c-0.5,0.4-1,0.7-1.4,1.3c-0.2,0.3-0.5,0.3-0.8,0.1c-0.3-0.2,0-0.4,0.2-0.6c0.4-0.4,0.8-0.8,1.4-1.1
			C58.8,9.4,59,9.4,59.1,9.6z"/>
		<path class="st1304" d="M64.4,54.2c-0.1,0.3-0.2,0.6,0.3,0.6c-0.3,0.4-0.6,0.4-1,0.5c-0.4,0.3-0.9-0.1-1.3,0.3l0,0
			c-0.1,0.1-0.2,0.1-0.3,0.1c-0.3-0.1-0.7,0-1-0.2c-0.1-0.1-0.1-0.2,0-0.3c0.2,0,0.3,0,0.5-0.1c0.4-0.2,0.9,0.1,1.3-0.2
			C63.4,54.6,63.9,54.4,64.4,54.2z"/>
		<path class="st1305" d="M55.8,56.1c0.1,0.2,0.2,0.4,0.3,0.6c0,0.1,0,0.3,0,0.4c-0.3,0.3-0.4-0.3-0.6-0.2c-0.6-0.5-1.1-1-1.7-1.5
			c0.1-0.1,0.2-0.2,0.4-0.3C54.7,55.4,55.2,55.7,55.8,56.1z"/>
		<path class="st352" d="M41.1,61c0,0.2,0.1,0.4,0.1,0.6c0.2-0.2,0.3-0.3,0.5-0.5c0,0.4,0,0.7-0.2,1c-0.4,0.4,0,0.9-0.3,1.4
			c0,0.1,0,0.3,0,0.4C41,64,41,64.5,40.8,64.4c-0.4-0.2-0.2-0.7-0.1-1.1C40.5,62.5,40.8,61.8,41.1,61z"/>
		<path class="st1306" d="M22,34.6c-0.2-0.1-0.5-0.2-0.5,0.2c0,0.4,0,0.7-0.1,1.1l-0.1,0l-0.1-0.1c-0.1-0.9-0.2-1.8-0.2-2.8
			c0.1,0.3,0.3,0.6,0.5,1.1c0-1,0-1.7,0-2.4C21.8,32.7,22,33.6,22,34.6z"/>
		<path class="st402" d="M51,42.2c-0.2-0.2-0.1-0.5-0.4-0.5c-0.3,0-0.5-0.2-0.8-0.3c-0.1-0.1-0.3-0.2-0.3-0.4c0-0.1,0-0.2,0.1-0.3
			c0.1-0.1,0.3-0.2,0.5-0.2c0.1,0,0.2,0,0.3,0c0.2,0.1,0.3,0.3,0.5,0.4c0.1,0,0.2,0,0.2,0c0.2,0.2,0.3,0.4,0.5,0.6
			c0.2,0.2,0.2,0.4,0.1,0.7C51.4,42.4,51.2,42.2,51,42.2z"/>
		<path class="st178" d="M41.9,16.4c-0.2,0.6-0.8,0.5-1.2,0.5c-0.8-0.2-1.7-0.2-2.5,0l0,0c-0.1,0.2-0.3,0.4-0.5,0.3
			c-0.2-0.2-0.3-0.4-0.3-0.8c0,0,0.1-0.1,0.1-0.1c0.2,0,0.5,0,0.7,0.1C39.4,16.2,40.6,16.2,41.9,16.4z"/>
		<path class="st350" d="M43.7,56.8c0-0.4-1-0.3-0.5-1c0.5,0.7,1,0,1.5,0c0.2-0.1,0.3-0.1,0.5-0.1c0.2,0.1,0.4,0.3,0.3,0.6
			C44.8,56.4,44.3,56.8,43.7,56.8z"/>
		<path class="st393" d="M36.9,7.8c0.3,0.2,0.6,0.4,0.7,0.8c-0.8-0.2-1.5,0.4-2.2,0.6c0,0-0.1-0.1-0.1-0.1c0-0.2-0.2-0.3-0.4-0.3
			c-0.1,0-0.1-0.1-0.1-0.2c0.5-0.3,1.1-0.6,1.6-0.9c0.1,0.1,0.2,0.3,0.4,0.3C36.8,7.8,36.8,7.8,36.9,7.8z"/>
		<path class="st357" d="M44.9,7.1c0.9,0.3,1.9,0.6,2.8,1c0,0,0,0.1-0.1,0.1c-0.1,0.2-0.3,0.2-0.5,0.4c-0.7-0.6-1.7-0.3-2.3-1
			C44.8,7.4,44.8,7.2,44.9,7.1z"/>
		<path class="st393" d="M38.1,8.1c-0.4-0.3-0.7-0.8-1.2-0.3c0,0-0.1,0-0.1,0c-0.2,0-0.3,0-0.2-0.3c0.2-0.4,0.5-0.5,0.9-0.7
			c0.3-0.1,0.6-0.7,1-0.4c0.5,0.4-0.5,0.6-0.3,1C38.3,7.7,38.3,7.9,38.1,8.1z"/>
		<path class="st1183" d="M66.8,55.6c1-0.3,0.3-1.3,0.8-1.8c0,0.3,0.1,0.5,0.1,0.8c0.1,0.2,0.1,0.4,0,0.5c-0.2,0.6-0.1,1.2-0.5,1.7
			c0-0.2,0.1-0.6-0.2-0.6c-0.3,0-0.2,0.3-0.3,0.5c0,0.2,0,0.5-0.3,0.7C66.4,56.7,66.3,56.1,66.8,55.6z"/>
		<path class="st393" d="M47.2,27.8c0.1,0,0.2,0,0.3-0.1c0.6-0.4,1.3-0.2,1.9-0.3c0.3-0.1,0.5-0.2,0.8,0c0.1,0.1,0.1,0.2,0,0.3
			c-1,0.4-2,0.9-3,0.3C47.1,28,47.1,27.9,47.2,27.8C47.2,27.8,47.2,27.8,47.2,27.8z"/>
		<path class="st1307" d="M50,61.1c-0.4,0.5-0.7,1-0.6,1.6c-0.3,0.8,0.2,1.8-0.5,2.6c-0.1,0.1-0.1,0.1-0.2,0.2
			c-0.3-1.3,0.4-2.5,0.5-3.8C49.3,61.3,49.6,61.1,50,61.1z"/>
		<path class="st1308" d="M64.9,71.8c0-0.6,0.2-0.6,0.6-0.3c0.2,0,0.3,0.1,0.4,0.2c0,0.1,0.1,0.1,0.2,0.1c0.2,0.2,0.7-0.1,0.5,0.5
			c-0.3,0-0.8-0.1-0.5,0.5C65.6,72.5,65.1,72.4,64.9,71.8z"/>
		<path class="st259" d="M60.6,10.6c0.1,0.2,0.2,0.3,0.2,0.5c-0.7,0.2-1.3,0.3-2.3,0.6C59.3,10.9,59.8,10.5,60.6,10.6z"/>
		<path class="st1309" d="M21.9,23.6c0-0.2-0.2-0.4,0-0.6c0.2-0.2,0.3-0.5,0.5-0.6c0.2,0,0.3,0,0.5,0.1l0,0c0.1,0.5,0.2,1,0,1.5
			C22.5,24.2,22.3,23.8,21.9,23.6z"/>
		<path class="st281" d="M51.8,29.3c0.7,0,1.4,0,2.1-0.1c-0.6,0.9-1.5,0.6-2.3,0.6C51.4,29.5,51.6,29.4,51.8,29.3z"/>
		<path class="st1310" d="M23,22.5c-0.2,0-0.3,0-0.5,0c-0.2-0.1-0.3-0.3-0.4-0.4c0-0.1-0.1-0.2-0.1-0.3c0-0.3-0.1-0.6,0-0.9
			c0-0.1,0-0.1,0-0.2c0-0.3,0-0.6,0-0.8c0-0.8,0.3-0.2,0.5-0.1c0.1,0.1,0.1,0.1,0,0.2c0.1,0.8,0.2,1.6,0.5,2.3
			C23,22.3,23,22.4,23,22.5z"/>
		<path class="st187" d="M70.7,9.6c0.1-0.8,0.9-0.6,1.3-1c0.2,0,0.5-0.1,0.6,0.2c0.1,0.2-0.1,0.4-0.3,0.5
			C71.8,9.5,71.3,9.7,70.7,9.6z"/>
		<path class="st256" d="M38.1,8.1c0-0.2,0-0.3,0-0.5c0.8,0,1.7,0,2.5,0C39.9,8.6,39,7.8,38.1,8.1z"/>
		<path class="st337" d="M32.8,56.8c-0.4,0.2-0.5,0-0.5-0.4c-0.1-0.6,0.4-0.9,0.6-1.4c0.3,0.4,0.7,0.6,1.2,0.5
			C33.5,55.8,32.8,56,32.8,56.8z"/>
		<path class="st12" d="M35.4,9.1c-0.7,0.1-1.2,0.7-2.1,0.6c0.3-0.8,1-0.9,1.4-1.3c0,0,0,0.1,0.1,0.1C35,8.8,35.2,8.9,35.3,9
			C35.3,9.1,35.4,9.1,35.4,9.1z"/>
		<path class="st509" d="M40.6,63.3c0.3,0.1-0.4,1.1,0.5,0.6c0,0.7-0.2,1.4-0.4,2.1c-0.2-0.1-0.2-0.2-0.2-0.4c0-0.2,0.2-0.3,0-0.5
			c0,0.2,0,0.4-0.3,0.3C40.2,64.7,40.4,64,40.6,63.3z"/>
		<path class="st1281" d="M30.6,74.8c0.1,0.1,0.1,0.2,0.2,0.2c0.2,0.4,0.1,0.9,0,1.3c0,0.1,0,0.3-0.1,0.4c-0.5,0.3-0.1,0.9-0.4,1.3
			c0-0.8-0.1-1.4-0.1-2.1c0-0.1,0-0.3,0.1-0.4C30.6,75.3,30.3,74.9,30.6,74.8z"/>
		<path class="st1311" d="M31.3,61.3c0.2-0.8-0.2-1.6,0.2-2.3c0.6,0.4,0.2,1.1,0.4,1.7c0,0.2,0,0.4,0,0.7c-0.2,0.1-0.3,0.1-0.5,0.2
			c-0.1,0-0.1-0.1-0.1-0.1C31.2,61.4,31.3,61.3,31.3,61.3z"/>
		<path class="st281" d="M22.9,11.1c-0.2,0-0.4-0.1-0.5-0.2c-0.1-0.7,0.2-1.1,0.9-1.4C23.3,10.1,23.3,10.6,22.9,11.1z"/>
		<path class="st155" d="M51.2,24.8c0,0.3-0.2,0.4-0.4,0.4c-0.4-0.1-0.7-0.4-0.8-0.8c0-0.2,0.1-0.4,0.3-0.3
			C50.7,24.2,51,24.5,51.2,24.8z"/>
		<path class="st169" d="M51.6,42.1c0-0.2,0-0.4-0.1-0.7c0.6,0.4,0.5,1.1,0.6,1.7c0.1,0.2,0.2,0.4,0.2,0.6c-0.2,0.3-0.5,0.7-0.7,1
			C51.7,43.8,51.9,43,51.6,42.1z"/>
		<path class="st348" d="M61.1,55.3c0.3,0.1,0.7-0.1,1,0.2c-0.3,0.5-0.9,0-1.3,0.3c-0.1,0-0.3,0-0.4,0.1c-0.4,0.1-0.7,0.2-1-0.1
			c0-0.2,0-0.3,0-0.5c0.1-0.1,0.1-0.1,0.2,0C60.1,55.1,60.6,55.1,61.1,55.3z"/>
		<path class="st1305" d="M52,61.1c0.1,0.1,0.2,0.1,0.3,0.2c0.3,0.3,0.6,0.5,0.8,1c0.1,0.4-0.2,0.5-0.5,0.5c-0.5-0.2-1-0.5-0.8-1.2
			C51.8,61.4,51.9,61.3,52,61.1z"/>
		<path class="st257" d="M43.4,17.9c-0.4,0-0.8,0-1.3,0c-0.4,0-0.4-0.2-0.3-0.5c0.5,0,1,0,1.4,0c0.4,0,0.5,0.2,0.3,0.5
			c0,0-0.1,0-0.1,0L43.4,17.9z"/>
		<path class="st1312" d="M47.2,38.9c0-0.1,0-0.2,0-0.3c0.1-0.1,0.2-0.3,0.3-0.4c0.3-0.2,0.5-0.7,1-0.6c0.3,0.4,0,0.6-0.3,0.8
			c-0.2,0.2-0.2,0.5-0.3,0.7C47.6,39.3,47.4,39.1,47.2,38.9z"/>
		<path class="st1313" d="M66.4,58.3c0.1,1.2-0.2,2.4-0.5,3.6c-0.2-0.1-0.1-0.3-0.1-0.5C66,60.3,66,59.3,66.4,58.3z"/>
		<path class="st1314" d="M65.4,67.4c-0.4,0.7-0.1,1.6-0.5,2.3c0-1.2,0.1-2.4,0.5-3.6C65.4,66.5,65.4,67,65.4,67.4z"/>
		<path class="st2" d="M41.9,16.4c-1.3,0-2.5,0-3.8,0c1-0.5,2-0.1,3-0.2C41.4,16.2,41.7,16.1,41.9,16.4z"/>
		<path class="st259" d="M36.6,16.7c-0.3-0.3-1.2-0.2-1-0.6c0.3-0.6,0.9-0.1,1.4,0c0.1,0,0.3,0.2,0.4,0.3c0,0,0,0.1,0,0.1
			C37.2,16.7,36.9,16.7,36.6,16.7z"/>
		<path class="st259" d="M47.8,8c0.5,0.3,1,0.7,1.6,0.8c-0.6,0.4-1,0.4-1.4-0.2C47.9,8.5,47.6,8.4,47.8,8L47.8,8z"/>
		<path class="st840" d="M61.3,65.4c-0.1,0.2-0.2,0.5-0.4,0.8c-0.3-0.4,0.1-1-0.4-1.3c-0.1-0.1-0.1-0.1-0.1-0.2
			c0.3-0.1,0.4-0.3,0.4-0.5C61.5,64.4,61.4,64.9,61.3,65.4z"/>
		<path class="st964" d="M40.2,65.4c0.1-0.2,0.3-0.3,0.5-0.6c0,0.4,0.1,0.8,0.1,1.2c0.1,0.4,0,0.7-0.3,0.9c-0.7-0.1-0.3-0.6-0.3-0.9
			C40.1,65.8,40.1,65.6,40.2,65.4z"/>
		<path class="st12" d="M47.2,27.8c0,0.1,0,0.2,0,0.3c-0.4-0.3-1-0.6-0.5-1.3C47.4,26.8,47.2,27.4,47.2,27.8z"/>
		<path class="st267" d="M50.5,35.4c0.6-0.6,1.3-0.1,2.3-0.4c-0.6,0.5-1.2,0.2-1.5,0.6C51,35.6,50.7,35.6,50.5,35.4z"/>
		<path class="st259" d="M50.8,32.3c-0.2-0.1-0.3-0.3-0.3-0.6c0-0.3,0.2-0.6,0.5-0.7c0.2-0.1,0.3-0.1,0.5,0
			C51.2,31.5,51,31.9,50.8,32.3z"/>
		<path class="st466" d="M45.5,56.3c-0.1-0.1-0.2-0.3-0.2-0.4c0.2-0.4,0.7-0.3,1-0.5c0.1,0,0.1,0,0.2,0c0.2,0.1,0.5-0.1,0.6,0.2
			c0,0.1-0.3,0.3-0.5,0.4C46.1,56,45.8,56.1,45.5,56.3z"/>
		<path class="st1315" d="M51.8,29.3c-0.1,0.2-0.2,0.3-0.3,0.5c-0.5,0.2-0.7-0.3-1-0.5c0.2-0.1,0.4-0.2,0.3-0.6
			C51.2,28.8,51.4,29.1,51.8,29.3z"/>
		<path class="st12" d="M42.7,9.1c-0.1-1,0.7-0.2,1-0.5c0.1,0,0.2,0,0.2,0C43.9,9.7,43.1,8.8,42.7,9.1z"/>
		<path class="st298" d="M45.4,36.8c0.2,0.1,0.3,0.3,0.3,0.5c-0.2,0.2-0.4,0.4-0.5,0.5c-0.2,0-0.4-0.1-0.5-0.2
			C44.7,37.1,45.1,37.1,45.4,36.8z"/>
		<path class="st267" d="M55.3,43.2c0.5-0.4,1-0.4,1.5,0C56.3,43.6,55.8,43.4,55.3,43.2z"/>
		<path class="st2" d="M65.8,61.4c0,0.2,0.1,0.3,0.1,0.5c-0.1,0.7-0.2,1.3-0.3,2c0,0.1-0.1,0.1-0.2,0.1C65.3,63,65.5,62.2,65.8,61.4
			z"/>
		<path class="st259" d="M50.8,28.8c0.1,0.3,0.1,0.5-0.3,0.6c-0.3-0.1-0.6-0.2-0.4-0.6C50.3,28.4,50.5,28.5,50.8,28.8z"/>
		<path class="st187" d="M59.1,9.6c-0.2,0-0.4-0.1-0.6-0.3c0.4-0.2,0.8-0.4,1.2-0.7C59.8,9.2,59.4,9.4,59.1,9.6z"/>
		<path class="st400" d="M36.6,16.7c0.2-0.3,0.5-0.3,0.8-0.2c0.1,0.2,0.2,0.5,0.2,0.7c-0.2,0.2-0.3,0.1-0.5,0
			C36.9,17,36.8,16.9,36.6,16.7z"/>
		<path class="st1316" d="M20.2,28.3c-0.4-0.2-0.2-0.7-0.3-1c0-0.5,0-1,0.1-1.6C20.2,26.5,20.3,27.4,20.2,28.3z"/>
		<path class="st500" d="M30.6,74.8c-0.1,0.3,0,0.6-0.3,0.7c-0.1-0.8,0.2-1.6,0.4-2.4C30.9,73.7,30.8,74.2,30.6,74.8z"/>
		<path class="st1317" d="M23,22.2c-0.5-0.7-0.6-1.5-0.5-2.3C22.7,20.7,23,21.4,23,22.2z"/>
		<path class="st2" d="M22.7,37.8c-0.2-0.3-0.3-0.6-0.5-1c-0.2-0.2-0.2-0.5,0-0.8C22.7,36.6,22.9,37.2,22.7,37.8z"/>
		<path class="st1272" d="M76.3,34.9c0.1,0,0.1-0.1,0.2-0.1c0,0.8,0.3,1.6-0.2,2.4C76.3,36.4,76.3,35.6,76.3,34.9z"/>
		<path class="st2" d="M37.1,17.2c0.2,0,0.3,0,0.5,0c0.2-0.1,0.4-0.1,0.5-0.2c0.1,0.2,0.2,0.3,0.3,0.5c0,0.2-0.1,0.4-0.3,0.5
			c0,0,0,0.1,0,0.1C37.8,17.7,37.4,17.4,37.1,17.2z"/>
		<path class="st472" d="M48,9.6c-0.2,0.8-0.6,0.5-1.1,0.2c0.3-0.4,0.6-0.2,0.9-0.3C47.8,9.6,47.9,9.6,48,9.6z"/>
		<path class="st187" d="M60.4,38.9c0-0.2,0.1-0.4,0.3-0.5c0.3,0.2,0.6,0.5,0.4,0.8C60.8,39.4,60.5,39.1,60.4,38.9z"/>
		<path class="st1318" d="M77.2,8.1c0-0.1,0.1-0.2,0.1-0.3c0.3,0.8,0.4,1.5-0.1,2.3C77.2,9.4,77.2,8.8,77.2,8.1z"/>
		<path class="st12" d="M44.9,7.1c0,0.2,0,0.3,0,0.5c-0.3,0-0.7,0-1,0c0-0.2-0.3-0.4,0-0.5C44.3,7.1,44.6,7.1,44.9,7.1z"/>
		<path class="st1315" d="M50.2,27.8c0-0.1,0-0.2,0-0.2c-0.2-0.2-0.2-0.3,0-0.5c0,0,0.1-0.1,0.1-0.1c0.3,0.1,0.6,0.2,0.6,0.5
			C50.9,27.9,50.5,27.7,50.2,27.8z"/>
		<path class="st1319" d="M71.2,49.5c-0.1,0.6-0.2,1.2-0.8,1.5C70.6,50.4,70.7,49.9,71.2,49.5z"/>
		<path class="st1007" d="M52.6,62.6c0.2,0,0.4-0.1,0.5-0.3c0.2,0.1,0.5,0.2,0.7,0.4c-0.4,0.2-0.7,0.5-1.1,0.7
			C52.6,63.1,52.3,62.9,52.6,62.6z"/>
		<path class="st251" d="M36.6,7.6c0.1,0.1,0.2,0.2,0.2,0.3c0,0.3-0.1,0.5-0.4,0.4c-0.5-0.2-0.1-0.5,0-0.7
			C36.4,7.6,36.5,7.6,36.6,7.6z"/>
		<path class="st352" d="M58.6,68.2c0-0.5-0.4-0.3-0.6-0.3c0.2-0.3,0.3-0.8,0.8-0.5C59.1,67.6,59,68,58.6,68.2z"/>
		<path class="st352" d="M41.7,60.9c-0.1-0.6,0-1.2,0.5-1.6C42.2,59.9,41.9,60.4,41.7,60.9z"/>
		<path class="st718" d="M46.2,55.3c-0.2,0.4-0.6,0.4-1,0.5c-0.2,0-0.4,0-0.6-0.1C45.1,55.5,45.6,55.3,46.2,55.3z"/>
		<path class="st259" d="M67.9,9.6c0.6-0.4,1.2-0.4,1.8,0C69.1,9.6,68.5,9.6,67.9,9.6z"/>
		<path class="st1320" d="M27.7,43.9c0-0.1,0.1-0.2,0.1-0.3c0.3,0.5,0.5,1,0.5,1.6c-0.3-0.3-0.5-0.6-0.6-1
			C27.7,44.1,27.6,44.1,27.7,43.9C27.7,44,27.7,43.9,27.7,43.9z"/>
		<path class="st411" d="M51.5,31.1c-0.2,0-0.3,0-0.5,0c0-0.3-0.1-0.7,0.3-0.6C51.6,30.5,51.5,30.8,51.5,31.1z"/>
		<path class="st1321" d="M22.2,36.1c0,0.3,0,0.5,0,0.8c-0.5-0.5-0.2-1.1-0.3-1.7C22.1,35.5,22.1,35.8,22.2,36.1z"/>
		<path class="st1317" d="M23,24c0-0.5,0-1,0-1.5C23.1,23,23.5,23.5,23,24z"/>
		<path class="st1322" d="M44.7,29c0.2-0.1,0.4-0.3,0.5-0.5c0.2,0.2,0.3,0.4,0.1,0.6C45.1,29.4,44.9,29.3,44.7,29z"/>
		<path class="st673" d="M62.7,10.6c-0.3-0.1-0.6,0.1-0.8-0.2c0.5-0.1,0.9-0.2,1.3,0.2C63,10.6,62.8,10.6,62.7,10.6z"/>
		<path class="st515" d="M61.1,55.3c-0.5,0-1,0-1.5,0c0.5-0.3,1-0.2,1.6-0.2C61.1,55.1,61.1,55.2,61.1,55.3z"/>
		<path class="st515" d="M60.9,55.8c0.4-0.4,0.9-0.1,1.3-0.3c0.1,0,0.2,0.1,0.3,0.1C61.9,55.9,61.4,55.8,60.9,55.8z"/>
		<path class="st202" d="M68.7,16.4c0-0.5,0.4-0.6,0.7-0.4c0.2,0.1-0.2,0.3-0.2,0.4C69,16.4,68.9,16.4,68.7,16.4z"/>
		<path class="st1134" d="M58.1,55.6c-0.5,0.4-1.1,0.2-1.6,0.2C57,55.5,57.5,55.6,58.1,55.6z"/>
		<path class="st1314" d="M65.4,63.9c0.1,0,0.1-0.1,0.2-0.1c0,0.5,0.2,1.1-0.2,1.6C65.4,64.9,65.4,64.4,65.4,63.9z"/>
		<path class="st150" d="M23.2,18.9c0.2,0,0.4-0.2,0.5,0.1c0.1,0.3-0.2,0.5-0.5,0.7C23.2,19.4,23.2,19.2,23.2,18.9z"/>
		<path class="st505" d="M48.2,70.6c0.1,0.3,0,0.6,0.3,0.8c-0.1,0.3-0.3,0.3-0.4,0.1C47.8,71.2,47.9,70.9,48.2,70.6z"/>
		<path class="st520" d="M56.3,72.4c0,0.4,0.2,0.9-0.3,1.3C56,73.3,56,72.8,56.3,72.4z"/>
		<path class="st515" d="M62.9,54.8c-0.4,0.5-0.9,0.3-1.3,0.2C62,54.8,62.4,54.7,62.9,54.8z"/>
		<path class="st1318" d="M77,11.5c0,0.5,0.2,0.9-0.2,1.4C76.8,12.4,76.8,12,77,11.5z"/>
		<path class="st356" d="M34.3,51.7c0,0.5-0.1,0.9-0.5,1.1C33.9,52.4,33.9,51.9,34.3,51.7z"/>
		<path class="st350" d="M44.7,53.2c0-0.4,0.1-0.8,0.6-0.9C45.1,52.6,45,53,44.7,53.2z"/>
		<path class="st1323" d="M54.6,79.3c-0.3,0.2-0.5,0.1-0.5-0.3l0,0c0.3-0.1,0-0.7,0.5-0.5c0,0.2,0,0.4,0,0.5
			C54.6,79.2,54.6,79.2,54.6,79.3z"/>
		<path class="st397" d="M47.7,8.1c0.1,0.2,0.2,0.3,0.3,0.5c-0.2,0-0.5,0-0.7-0.1C47.2,8.2,47.4,8.1,47.7,8.1z"/>
		<path class="st515" d="M62.4,55.6c0.4-0.5,0.8-0.2,1.3-0.3C63.3,55.7,62.8,55.6,62.4,55.6z"/>
		<path class="st765" d="M59.4,55.8c0.3,0,0.7,0,1,0.1c-0.4,0.3-0.8,0.3-1.3,0.3C59.2,56,59.3,55.9,59.4,55.8z"/>
		<path class="st765" d="M57.8,56.3c0.4-0.4,0.8-0.2,1.3-0.2C58.7,56.4,58.3,56.3,57.8,56.3z"/>
		<path class="st1294" d="M76.7,13.3c0,0.5,0.2,1-0.3,1.3C76.4,14.2,76.5,13.7,76.7,13.3z"/>
		<path class="st503" d="M43.4,43.9c0.3-0.4,0.8-0.2,1.3-0.2c0,0.1,0,0.2-0.1,0.2C44.2,43.9,43.8,43.9,43.4,43.9z"/>
		<path class="st1321" d="M23,39.4c0-0.3,0-0.6,0-0.9c0.2,0.4,0.5,0.7,0.5,1.1C23.3,39.6,23.1,39.5,23,39.4z"/>
		<path class="st509" d="M40.1,66c0.1,0.3,0,0.7,0.3,0.9c-0.2,0.3-0.3,0.2-0.5,0C39.7,66.6,39.9,66.3,40.1,66z"/>
		<path class="st522" d="M54.5,78.6c-0.2,0.2-0.4,0.3-0.5,0.5c0-0.5,0.1-0.8,0.5-1.1C54.5,78.2,54.5,78.4,54.5,78.6z"/>
		<path class="st500" d="M30.9,76.3c0-0.4,0-0.9,0-1.3c0.1,0,0.2,0,0.2,0C31.1,75.5,31,75.9,30.9,76.3z"/>
		<path class="st964" d="M41.2,63.5c0-0.5-0.3-1,0.3-1.4C41.5,62.6,41.4,63.1,41.2,63.5z"/>
		<path class="st2" d="M78.7,78.8c-1.1-0.3-2-0.9-3-1.4c0-0.2-0.1-0.6,0-0.7c0.2-0.3,0.4,0,0.5,0.2c0.3,0.4,0.9,0.5,1.2,0.4
			c0.9-0.1,1,0.8,1.8,0.9C79.4,78.4,79.4,78.5,78.7,78.8z"/>
		<path class="st2" d="M78.1,26.3c0,2,0,4.1,0,6.1c-0.1,0-0.1,0-0.2,0c0-2,0-4.1,0-6.1C77.9,26.3,78,26.3,78.1,26.3z"/>
		<path class="st2" d="M71,74.7c-0.7-0.4-1.4-0.8-2-1.2c0.8-0.8,1.3,0.1,1.8,0.5C71,74.1,71.6,74.3,71,74.7z"/>
		<path class="st2" d="M67.7,55.1c0-0.2,0-0.3,0-0.5c0.3-0.4,0.6-0.5,0.7,0.1c0.1,0.7,0.1,1.5-0.4,2.2
			C67.5,56.3,68.3,55.5,67.7,55.1z"/>
		<path class="st2" d="M67.3,61.1c0.4,1.1-0.3,1.9-0.1,2.8C67,63,66.7,62.1,67.3,61.1z"/>
		<path class="st1313" d="M66.2,64.9c-0.1-1.2,0.2-2.4,0.5-3.5C66.7,62.6,66.6,63.8,66.2,64.9z"/>
		<path class="st2" d="M65.9,71.6c-0.1-0.1-0.3-0.1-0.4-0.2c0-0.2,0-0.4,0-0.6c0-0.1,0.1-0.2,0.2-0.1c0.3-0.1,0.3-0.5,0.4-1
			C66.2,70.5,66.2,71.1,65.9,71.6z"/>
		<path class="st1313" d="M66.7,60.7c-0.2-1.1,0.1-2.1,0.5-3.1C67.2,58.6,67.1,59.7,66.7,60.7z"/>
		<path class="st2" d="M78.5,9.7c0,0.7,0,1.4,0,2.1C78.2,11.1,78.3,10.3,78.5,9.7z"/>
		<path class="st2" d="M77.3,38.8c0-0.6,0-1.1,0-1.7c0,0,0.1,0,0.1,0c0,0.6,0,1.1,0,1.7C77.4,38.8,77.4,38.8,77.3,38.8z"/>
		<path class="st1324" d="M65.9,67.2c0.1-0.8-0.2-1.6,0.3-2.3C66.1,65.7,66.2,66.4,65.9,67.2z"/>
		<path class="st2" d="M66.5,67.4c0-0.6,0-1.1,0-1.7c0,0,0.1,0,0.1,0c0,0.6,0,1.1,0,1.7C66.5,67.4,66.5,67.4,66.5,67.4z"/>
		<path class="st2" d="M66.6,72.2c-0.2-0.2-0.4-0.3-0.5-0.5c0.3-0.1,0.6-0.4,0.9-0.1c0.2,0.2-0.1,0.4-0.1,0.7
			C66.8,72.2,66.7,72.2,66.6,72.2z"/>
		<path class="st2" d="M67.6,59.6c-0.2-0.7-0.2-1.2,0-1.7C67.6,58.3,67.6,58.8,67.6,59.6z"/>
		<path class="st2" d="M78.1,12.9c0.2,0.5,0,0.8-0.3,1C77.8,13.6,77.6,13.2,78.1,12.9z"/>
		<path class="st2" d="M69.4,52.7c0.2,0.1,0.6,0.1,0.4,0.5c0,0.1-0.2,0.2-0.3,0.2C69,53.3,69.5,53,69.4,52.7
			C69.4,52.7,69.4,52.7,69.4,52.7z"/>
		<path class="st1325" d="M75.8,41.2c-0.1-0.4,0-0.8,0.4-1.1C76.2,40.6,76,40.9,75.8,41.2z"/>
		<path class="st1314" d="M65.6,70.7c-0.1,0-0.1,0.1-0.2,0.1c0-0.5-0.2-0.9,0.2-1.3C65.6,69.9,65.6,70.3,65.6,70.7z"/>
		<path class="st1318" d="M77.8,11.1c0-0.4-0.1-0.9,0.2-1.2C78,10.3,78.1,10.7,77.8,11.1z"/>
		<path class="st2" d="M75.5,44.1c-0.4-0.2-0.3-0.4-0.2-0.7C75.6,43.6,75.6,43.8,75.5,44.1z"/>
		<path class="st1314" d="M65.7,68.5c0-0.4,0-0.7,0-1.1c0.1-0.1,0.2-0.2,0.3-0.2C66,67.6,65.9,68.1,65.7,68.5z"/>
		<path class="st2" d="M29.7,65.1c-0.5,0.2-1,0.5-1.5,0.7c-0.2-0.4-0.5,0.1-0.9-0.1c1.5-0.4,0-1.1,0.4-1.7c0.5,0,0.8,0.7,1.6,0.5
			c-0.8-1-0.7-1.9,0.1-2.8c0.3-0.4,0.1-1.2,0.1-1.8c0.2-0.2,0.1-0.6,0.5-0.5c0.1,0.1,0.2,0.2,0.2,0.4C30.6,61.5,30.3,63.3,29.7,65.1
			z"/>
		<path class="st2" d="M19.9,29.8c0.1,0.4,0.3,0.8,0.4,1.3c-0.1,0.2-0.2,0.6-0.4,0.6c-0.4,0-0.2-0.4-0.3-0.5
			c-1.1-1.7-1.1-3.6-0.9-5.6c0.2,0.2,0.3,0.3,0.5,0.5c0.1,0.4,0.1,0.8,0.2,1.3C19.6,28.1,19.6,29,19.9,29.8z"/>
		<path class="st2" d="M30,59.3c-0.2,0.2-0.3,0.3-0.5,0.5c0-2.5,0-5,0-7.5c0.8,1.3,0.4,2.8,0.5,4.2C30.5,57.5,30.6,58.4,30,59.3z"/>
		<path class="st2" d="M21.2,35.9c0.1,0,0.1,0.1,0.2,0.1c-0.1,1,0.5,1.8,0.7,2.7c0,0.2,0.1,0.4,0,0.6c0,0-0.1,0.1-0.1,0.1
			c-0.9-1.2-1.4-2.5-1.2-4.1C20.9,35.5,21.1,35.7,21.2,35.9z"/>
		<path class="st1303" d="M30.5,50.8c0.3,0.2,0.2,0.5,0.3,0.8c0.3,1.7-0.3,3.3-0.2,5c-0.1,0.1-0.2,0.1-0.4,0.1
			C30.3,54.6,30.4,52.7,30.5,50.8z"/>
		<path class="st2" d="M26,67c-0.3,0.4-0.8,0.5-1.3,0.7c-0.2-0.3-0.4-0.5-0.6-0.8c0.3-0.3,0.8,0.4,1-0.1c0.1-0.4-0.4-0.5-0.4-0.9
			C25,66.3,26.3,65.7,26,67z"/>
		<path class="st2" d="M15.1,72.5c-0.6,0.4-1.3,0.8-2,1c-0.4-1.1,0.8-0.8,1.1-1.3C14.6,71.7,14.9,72.3,15.1,72.5z"/>
		<path class="st2" d="M24.7,67.7c-0.7,0.3-1.3,0.7-2,1c-0.5-1,0.4-1,0.9-1.2C23.9,67.4,24.3,67.6,24.7,67.7z"/>
		<path class="st2" d="M20.8,32.1c0.2,0.2,0.2,0.5,0.1,0.8c-0.3,0.4,0,0.9-0.5,1.5C20.3,33.4,19.7,32.7,20.8,32.1z"/>
		<path class="st2" d="M18.2,71c-0.5,0.3-0.9,0.7-1.6,0.7c-0.3-0.4-0.1-0.6,0.3-0.8C17.5,70.6,17.8,70.4,18.2,71z"/>
		<path class="st2" d="M21.8,20.6c0.1,0,0.1,0,0.2,0c0,0,0,0,0,0c0.3,0.4,0,0.9,0.2,1.3l0,0c0.1,0.3,0.4,0.7-0.2,0.7
			c-0.2-0.1-0.3-0.2-0.5-0.3C21.7,21.8,21.4,21.2,21.8,20.6z"/>
		<path class="st2" d="M20.7,14.9c0.2,0.3,0.2,0.7,0.2,1c-0.2,0.1-0.5,0.3-0.6,0c-0.1-0.4-0.1-0.8-0.1-1.2
			C20.3,14.8,20.5,14.9,20.7,14.9z"/>
		<path class="st2" d="M30,59.3c0-0.9,0-1.8,0-2.8c0.1,0,0.1,0,0.2,0c0,0,0.1,0,0.1,0c0.4,0.9,0.2,1.8,0.1,2.7
			C30.4,59.4,30.2,59.4,30,59.3L30,59.3z"/>
		<path class="st2" d="M25.3,42.9c0.6,0,1.2,0,1.8,0c0.2,0.3,0.2,0.5,0,0.8C26.6,42.9,25.6,43.7,25.3,42.9z"/>
		<path class="st2" d="M22.7,39.9c0,0.2,0,0.5,0,0.9c-0.5-0.4-0.8-0.8-0.8-1.4C22.4,39.2,22.5,39.7,22.7,39.9L22.7,39.9z"/>
		<path class="st1320" d="M27,43.7c0-0.3,0-0.5,0-0.8c0.1,0,0.2,0,0.3,0c0.2,0.4,0.1,0.8,0.1,1.2c0,0.1-0.1,0.2-0.1,0.3
			C27,44.3,27.1,43.9,27,43.7z"/>
		<path class="st2" d="M27.5,45.5c0.1,0.1,0.1,0.1,0,0.2c-0.1,0.2,0,0.4-0.3,0.4c-0.1,0-0.1-0.1-0.1-0.2
			C27,45.6,27.3,45.5,27.5,45.5z"/>
		<path class="st2" d="M21.5,18.9c0.2,0.4,0.3,0.9,0.2,1.3C21.3,19.8,21.5,19.3,21.5,18.9z"/>
		<path class="st2" d="M10.9,74.5c-0.2,0.1-0.4,0.2-0.5,0.2c0-0.2-0.3-0.4,0-0.5C10.6,74,10.7,74.5,10.9,74.5z"/>
		<path class="st2" d="M12,74c-0.1,0.2-0.2,0.2-0.4,0.2c0-0.2-0.5-0.2-0.2-0.4C11.6,73.6,11.8,73.9,12,74z"/>
		<path class="st1162" d="M41.2,44.7c-0.8,1.1-1.6,2.2-2.4,3.2c-1.6,1.8-2.7,3.9-4.2,5.8c-0.4,0-0.4-0.2-0.2-0.5
			c0.6-1.9,1.6-3.7,2.4-5.5c0.2-0.3,0.4-0.6,0.4-1c0.8-1,1.4-2.2,2.4-3.1C40.3,43.7,40.6,44.3,41.2,44.7z"/>
		<path class="st1326" d="M49.7,41.2c0.4,0,0.6,0.2,0.8,0.5c0,1-1,0.9-1.6,1.3c-0.5,0.1-1.1-0.1-1.6-0.1c-0.8-0.1,0.2-0.4,0-0.7
			C47.8,41,48.4,40.8,49.7,41.2z"/>
		<path class="st150" d="M49.7,41.2c-0.9,0.1-1.8,0-2.3,0.9c-0.3,0.1-0.6,0.1-0.7-0.2c0.3-0.1,0.5-0.2,0.5-0.5c-0.1-0.8,0.7-1,1-1.6
			c0.6-0.2,1.2,0,1.8-0.1c0.5,0,0.7,0.2,0.7,0.6c0,0.2,0.1,0.3,0.1,0.5c-0.2-0.1-0.3-0.2-0.5-0.3c-0.3-0.2-0.6-0.2-0.9-0.2
			c-0.1,0-0.2,0-0.2,0.1c0,0.2,0.2,0.3,0.3,0.4C49.6,41,49.7,41.1,49.7,41.2z"/>
		<path class="st157" d="M46.5,42.7c0,0.1,0.1,0.3,0.1,0.3c-0.7,0.7-1.2-0.1-1.6-0.4c-0.5-0.3,0.3-0.5,0.4-0.7
			c0.2,0,0.4-0.1,0.6-0.1c0.1,0,0.2,0.1,0.3,0.1C46.4,42.2,46.2,42.5,46.5,42.7z"/>
		<path class="st1327" d="M46,41.9c-0.2,0.3-0.4,0.2-0.5,0c0-0.3,0-0.6,0-1c0.2,0,0.4,0,0.5,0.2C46,41.4,46,41.7,46,41.9z"/>
		<path class="st150" d="M46.5,42.7c-0.3-0.2-0.3-0.5-0.3-0.8c-0.1-0.2-0.1-0.3,0-0.5c0.2,0.2,0.3,0.3,0.5,0.5
			C46.4,42.1,46.5,42.4,46.5,42.7z"/>
		<path class="st366" d="M76.6,24.4c0-3.1,0-6.2,0-9.4c0.4,0.7,0.2,1.5,0.2,2.3C76.7,19.7,77,22,76.6,24.4z"/>
		<path class="st1328" d="M77.2,28.1c0,1,0,2,0,3c0,0-0.1,0-0.1,0c0-1,0-2,0-3C77.1,28.1,77.2,28.1,77.2,28.1z"/>
		<path class="st678" d="M51.2,39.6c1.8-0.9,3.6-0.5,5.4,0.2c-1.8,0.4-3.6,0.3-5.3,0.3C51.1,40,51.1,39.8,51.2,39.6z"/>
		<path class="st1329" d="M48.2,40.2c0,0.7-0.9,0.7-1,1.3c-0.3-0.4-0.7-0.8-1-1.2c0.3-0.4,0.7-0.9,1-1.3c0.2,0.1,0.5,0.1,0.7,0.2
			c0.2,0.2,0.4,0.4,0.5,0.5C48.4,39.8,48,39.8,48.2,40.2z"/>
		<path class="st187" d="M51.8,37.6c1.3,0,2.7,0,4,0c0.2,0.3,0,0.4-0.2,0.5l-0.1,0c0,0-0.1,0-0.1,0c-1.2,0-2.3,0-3.5,0
			c-0.2-0.1-0.3-0.2-0.3-0.4C51.7,37.7,51.8,37.6,51.8,37.6z"/>
		<path class="st256" d="M48.2,38.4c0.1-0.3,0.2-0.5,0.3-0.8c1.1,0.3,2.2-0.5,3.3,0c0,0,0,0.1,0,0.1C51.6,38,51,37.5,51,38.1
			C50.1,38.1,49.1,38,48.2,38.4z"/>
		<path class="st180" d="M48.2,40.2c-0.2-0.1-0.5,0-0.4-0.3c0.1-0.3,0.4-0.2,0.6-0.2c0.9,0,1.8,0,2.8,0c0,0.2,0,0.3,0,0.5
			c-0.2,0.1-0.4,0.2-0.6,0.3C50,39.6,49.1,39.8,48.2,40.2z"/>
		<path class="st440" d="M51,38.1c-0.2-0.9,0.4-0.4,0.7-0.5c0.1,0.2,0.2,0.3,0.3,0.5C51.7,38.5,51.3,38.3,51,38.1z"/>
		<path class="st131" d="M58.3,39.7c0.4,0,0.5-0.2,0.3-0.5c0.4,0,0.6,0.2,0.4,0.5C58.8,40,58.5,39.9,58.3,39.7z"/>
		<path class="st271" d="M35.3,69.2c0,0.6,0,1.1,0,1.7c0,0-0.1,0-0.1,0c0-0.6,0-1.1,0-1.7C35.2,69.2,35.3,69.2,35.3,69.2z"/>
		<path class="st12" d="M34.9,81.3c-0.5-0.5-0.2-1.2,0-1.8C34.9,80.2,34.9,80.7,34.9,81.3C34.9,81.3,34.9,81.3,34.9,81.3z"/>
		<path class="st271" d="M35.2,73.7c0.2,0.4,0.2,0.7,0,1.1C35,74.4,35.1,74.1,35.2,73.7z"/>
		<path class="st271" d="M35.2,72.1c0.2,0.4,0.2,0.6,0,0.9C35,72.8,35.1,72.5,35.2,72.1z"/>
		<path class="st261" d="M26,8.4c0,1.3,0,2.6,0,3.9c0,0-0.1,0-0.1,0c0-1.3,0-2.6,0-3.9C25.9,8.4,25.9,8.4,26,8.4z"/>
		<path class="st397" d="M25.4,14.6c-0.2-0.4-0.2-0.8,0-0.9c0.3-0.1,0.1,0.2,0.2,0.4C25.5,14.2,25.5,14.3,25.4,14.6z"/>
		<path class="st1297" d="M30.1,59.4c0.1,0,0.1-0.1,0.2-0.1c0.5,1.4,0.7,2.7,0.1,4.1c0,0.5,0,1,0,1.5c-0.2,0.1-0.4,0.1-0.6,0.2
			C29.9,63.2,30.2,61.3,30.1,59.4z"/>
		<path class="st542" d="M34.4,53.3c0.1,0.2,0.1,0.3,0.2,0.5c-0.1,0.3-0.2,0.5-0.2,0.8c-0.3,0.3-0.5,0.2-0.5-0.2
			C33.9,53.9,33.9,53.5,34.4,53.3z"/>
		<path class="st356" d="M33.8,54.3c0.1,0.2,0.3,0.2,0.5,0.2c0,0.1,0,0.2,0,0.3c-0.2,0.1-0.4,0.3-0.6,0.1
			C33.5,54.7,33.6,54.5,33.8,54.3z"/>
		<path class="st1330" d="M30.3,63.4c0-1.4,0-2.7-0.1-4.1c0.1-0.9-0.1-1.8,0.1-2.7c0.3-1.7,0.4-3.3,0.5-5c0.1,0,0.1,0,0.2,0
			c0.1,2-0.5,3.9-0.2,5.9c0,1.2,0,2.5,0,3.7c0.2,0.8,0.5,1.6-0.3,2.3l-0.1,0L30.3,63.4z"/>
		<path class="st1331" d="M30.5,63.4c0.3-0.7,0.4-1.5,0.3-2.3c0.1,0.1,0.3,0.2,0.4,0.3c0,0.1,0.1,0.2,0.1,0.2
			c-0.3,0.7,0.4,1.7-0.6,2.3C30.7,63.7,30.6,63.5,30.5,63.4z"/>
		<path class="st1332" d="M27.4,44.2c0-0.4-0.1-0.8-0.1-1.2c0.5,0.2,0.1,0.8,0.4,1c0,0.1,0,0.2,0,0.2C27.6,44.2,27.5,44.2,27.4,44.2
			z"/>
		<path class="st479" d="M55.5,34.8c-0.5,0-1,0-1.4,0C54.5,34.5,55,34.6,55.5,34.8z"/>
		<path class="st1271" d="M46.2,41.4c0,0.2,0,0.3,0,0.5c0,0-0.1,0-0.1,0s-0.1,0-0.1,0c-0.4-0.2-0.3-0.5,0-0.7
			C46,41.3,46.1,41.3,46.2,41.4z"/>
		<path class="st211" d="M55.6,38.1c0.1-0.2,0.1-0.4,0.2-0.5c0.2,0,0.5-0.1,0.7,0.1c0.2,0.2,0.1,0.3-0.1,0.5
			C56.1,38.2,55.9,38.4,55.6,38.1z"/>
		<path class="st69" d="M56.1,27c0,0.3-0.2,0.4-0.4,0.5c-0.3,0-0.5-0.1-0.6-0.3c-0.1-0.3,0.1-0.3,0.4-0.4C55.8,26.8,56,26.9,56.1,27
			z"/>
		<path class="st99" d="M57.1,27.5c0,0.1,0,0.4-0.2,0.3c-0.1,0-0.2-0.2-0.3-0.4c0-0.2,0-0.3,0.2-0.3C57,27.1,57.1,27.3,57.1,27.5z"
			/>
		<path class="st271" d="M38.1,17.9c0-0.2,0.1-0.4,0.3-0.5c0.3,0,0.6,0,0.9,0.1C39.2,18.3,38.6,17.8,38.1,17.9z"/>
		<path class="st2" d="M38.1,16.9c0.8-0.4,1.7-0.4,2.5,0C39.8,16.9,39,16.9,38.1,16.9z"/>
		<path class="st1316" d="M19.9,29.8c-0.5-0.8-0.6-1.6-0.5-2.5c0.1,0,0.2,0,0.2,0C19.8,28.1,19.9,29,19.9,29.8z"/>
		<path class="st1317" d="M22,22.7c0.3-0.2,0.1-0.5,0.2-0.7c0.3,0.1,0.3,0.3,0.3,0.5C22.5,22.8,22.3,23,22,23
			C22,22.9,22,22.8,22,22.7z"/>
		<path class="st1307" d="M52.6,62.6c0,0.2,0.1,0.5,0.1,0.7c-1,0.6-2.1,1.1-2.6,2.3c0,0.2-0.1,0.3-0.1,0.5c-0.3,0.5-0.5,0.3-0.7-0.1
			c-0.1-0.8-0.1-1.6,0.5-2.3c0.4-0.5,0.2-1.1,0.5-1.6c0.4-0.6,0.7-1.1,1.5-0.6C51.9,62,52.3,62.3,52.6,62.6z"/>
		<path class="st968" d="M49.9,63.8c-0.3,0.7-0.4,1.5-0.4,2.2c0,0.1,0,0.3-0.2,0.3c-0.4-0.3-0.2-0.7-0.3-1.1c0-0.9,0.2-1.7,0.5-2.6
			c0,0.2,0,0.4,0.1,0.7c0.2-0.3,0.3-0.4,0.4-0.6C50.1,63.2,50.3,63.6,49.9,63.8z"/>
		<path class="st1333" d="M49.3,66.4c0.1-0.1,0.1-0.2,0.2-0.3c0.1,0.3,0.3,0.1,0.5,0.1c0,0.4-0.1,0.8-0.5,0.8
			C49.1,67,49.4,66.6,49.3,66.4z"/>
		<path class="st304" d="M50,67.7c-0.2,0.1-0.3,0.1-0.5,0.2c-0.1-0.2,0-0.4,0.2-0.5C50,67.3,50,67.6,50,67.7
			C50,67.7,50,67.7,50,67.7z"/>
		<path class="st169" d="M46.2,9.1c-0.3,0.8-0.8,0.4-1.6,0.3C45.2,9,45.7,9.2,46.2,9.1C46.2,9.1,46.2,9.1,46.2,9.1z"/>
		<path class="st267" d="M41.2,8.6c-0.1-1.1,0.6-0.1,0.9-0.4C41.9,8.8,41.5,8.5,41.2,8.6C41.2,8.6,41.2,8.6,41.2,8.6z"/>
		<path class="st2" d="M22.7,39.9c-0.3-0.2-0.5-0.3-0.8-0.5c0-0.3,0-0.5,0.2-0.7C22.3,39.1,22.5,39.5,22.7,39.9z"/>
		<path class="st1333" d="M49.9,63.8c0-0.3,0.1-0.6,0.1-1c0.1-0.2,0-0.6,0.3-0.7C50.1,62.7,50.5,63.4,49.9,63.8z"/>
		<path class="st717" d="M49.5,27.5c-0.6,0.5-1.3,0.2-2,0.2c0-0.4-0.2-0.8,0.3-0.9c0.6-0.1,1.2-0.2,1.6,0.5
			C49.5,27.3,49.6,27.4,49.5,27.5C49.6,27.5,49.5,27.5,49.5,27.5z"/>
		<path class="st195" d="M49.5,27.5c0-0.1,0-0.1,0-0.2c0.2-0.3,0.5-0.3,0.7-0.2c0,0.2,0,0.3,0,0.5C50,27.5,49.8,27.5,49.5,27.5z"/>
		<path class="st1334" d="M48.8,40.2c0.2,0,0.3,0,0.5,0c0.2,0.3,0.8-0.1,0.8,0.5c-0.2,0-0.4,0-0.5,0C49.1,40.7,48.5,41,48.8,40.2z"
			/>
		<path class="st1335" d="M48.8,40.2c0,0.5,0.4,0.4,0.7,0.5c0,0.1,0,0.1,0,0.2C48.4,40.9,48.4,40.9,48.8,40.2z"/>
		<path class="st1335" d="M50,40.7c-0.3-0.2-0.5-0.3-0.8-0.5c0.5-0.1,0.9-0.1,1.1,0.5C50.2,40.6,50.1,40.6,50,40.7z"/>
		<path class="st1336" d="M35.3,9c-0.2,0-0.8,0.2-0.4-0.4c0.3,0,0.6-0.4,0.8-0.1C35.9,8.8,35.5,8.9,35.3,9z"/>
		<path class="st1317" d="M22.2,22c-0.3-0.4-0.2-0.9-0.2-1.3C22.4,21.1,22.2,21.5,22.2,22z"/>
	</g>
</g>
</svg>
