<?xml version="1.0" encoding="utf-8"?>
<!-- Generator: Adobe Illustrator 23.0.2, SVG Export Plug-In . SVG Version: 6.00 Build 0)  -->
<svg version="1.1" id="Camada_1" xmlns="http://www.w3.org/2000/svg" xmlns:xlink="http://www.w3.org/1999/xlink" x="0px" y="0px"
	 viewBox="0 0 213.4 71.7" style="enable-background:new 0 0 213.4 71.7;" xml:space="preserve">
<style type="text/css">
	.st0{fill:#FFFFFF;}
	.st1{fill:#ED1A5E;}
</style>
<g>
	<path class="st0" d="M66.5,3.6c-4.7,0-8.3,1.5-10.8,4.4h-0.3l-0.9-3.8H44.1v39.3h11.6V21.8c0-4.7,2.9-7.7,7.1-7.7
		c4.4,0,6.6,2.4,6.6,7.2v22.3h11.6V17.7C81.1,9,75.2,3.6,66.5,3.6z"/>
	<path class="st0" d="M105,60.4c-3.6,0-6.2-1.9-6.5-4.6H87.1c0.1,4.4,1.8,7.9,5,10.5c3.2,2.6,7.5,4,12.9,4c5.6,0,10.2-1.4,13.8-4.4
		c3.2-2.6,4.9-6,5.3-10.2h-11.8C111.6,58.6,109.1,60.4,105,60.4z"/>
	<path class="st0" d="M112.7,39.8v4.4h11.6v-40h-10.4L112.7,8h-0.3c-2.5-2.9-5.9-4.4-10.5-4.4c-4.9,0-8.7,1.9-11.7,5.7
		C87.4,13,86,17.9,86,23.9c0,5.9,1.4,10.8,4.3,14.7c2.9,3.8,6.8,5.6,11.7,5.6c4.5,0,8-1.5,10.5-4.4H112.7z M105.5,34.1
		c-5.2,0-7.7-3.4-7.7-10.2c0-6,2.4-10.2,7.7-10.2c5.3,0,7.7,4.2,7.7,10.2C113.2,30.7,110.7,34.1,105.5,34.1z"/>
	<path class="st0" d="M141.9,9.9h-0.3l-0.9-5.7h-9.6v39.3h10.8V24.2c0-6.2,3.5-10,9-10h3.8V3.6H152C147.4,3.6,144,5.7,141.9,9.9z"/>
	<path class="st0" d="M175.9,3.6c-11.1,0-16.9,5.8-16.9,13.7h10.8c0-2.5,2.2-4.4,5.7-4.4c4.1,0,6,1.9,6,4.8v2.1h-8.4
		c-10.5,0-15.8,4.6-15.8,12.1c0,7.2,5.1,12.3,13.8,12.3c4.6,0,8-1.4,10.5-4.2h0.3l0.8,3.5h10.4V17.7c0-4.1-1.6-7.5-4.7-10.2
		C185.4,4.9,181.2,3.6,175.9,3.6z M181.6,29.2c0,3.4-2.9,6-7.5,6c-3.4,0-5.3-1.6-5.3-3.9c0-2.2,1.8-3.8,5.3-3.8h7.4V29.2z"/>
	<path class="st0" d="M21.2,3.6C10.2,3.6,4.3,9.3,4.3,17.2h10.8c0-2.5,2.2-4.4,5.7-4.4c4.1,0,6,1.9,6,4.8v2.1h-8.4
		c-10.5,0-15.8,4.6-15.8,12.1c0,7.2,5.1,12.3,13.8,12.3c4.6,0,8-1.4,10.5-4.2h0.3l0.8,3.5h10.4V17.7c0-4.1-1.6-7.5-4.7-10.2
		C30.7,4.9,26.5,3.6,21.2,3.6z M26.9,29.2c0,3.4-2.9,6-7.5,6c-3.4,0-5.3-1.6-5.3-3.9c0-2.2,1.8-3.8,5.3-3.8h7.4V29.2z"/>
	<rect x="199.2" y="31.8" class="st0" width="12.3" height="11.7"/>
	<g>
		<path class="st1" d="M131.7,61.8v-5.3h0.9v5.3H131.7z"/>
		<path class="st1" d="M136.3,61.8v-5.3h1l2.4,3.9h0v-3.9h0.9v5.3h-1l-2.4-3.9h0v3.9H136.3z"/>
		<path class="st1" d="M144.2,61.8v-5.3h3.5v0.8h-2.6v1.5h2.4v0.8h-2.4v2.2H144.2z"/>
		<path class="st1" d="M151.4,61.1c-0.4-0.5-0.6-1.2-0.6-2c0-0.8,0.2-1.5,0.6-2c0.4-0.5,1-0.8,1.8-0.8s1.4,0.2,1.8,0.8
			c0.4,0.5,0.6,1.2,0.6,2c0,0.8-0.2,1.5-0.6,2c-0.4,0.5-1,0.8-1.8,0.8S151.8,61.6,151.4,61.1z M152,57.8c-0.2,0.3-0.4,0.8-0.4,1.4
			c0,1.1,0.5,1.9,1.5,1.9s1.5-0.8,1.5-1.9s-0.5-1.9-1.5-1.9C152.7,57.3,152.3,57.5,152,57.8z"/>
		<path class="st1" d="M163.1,61.8L163.1,61.8l-1,0.1l-1.3-2h-1.1v2h-0.9v-5.3h2.2c0.5,0,1,0.2,1.3,0.5c0.3,0.3,0.5,0.7,0.5,1.2
			c0,0.8-0.4,1.3-1.1,1.6L163.1,61.8z M159.8,57.3V59h1.3c0.6,0,0.9-0.3,0.9-0.9c0-0.5-0.3-0.8-0.9-0.8H159.8z"/>
		<path class="st1" d="M166.2,61.8v-5.3h1l1.7,2.9h0l1.7-2.9h1v5.3h-0.9v-3.9h0l-1.7,3h-0.1l-1.7-3h0v3.9H166.2z"/>
		<path class="st1" d="M177.7,56.5l1.9,5.2v0.1h-1l-0.4-1.2H176l-0.4,1.2h-0.9v-0.1l1.9-5.2H177.7z M176.3,59.8h1.6l-0.8-2.4h0
			L176.3,59.8z"/>
	</g>
</g>
</svg>
