<?xml version="1.0" encoding="utf-8"?>
<!-- Generator: Adobe Illustrator 23.0.2, SVG Export Plug-In . SVG Version: 6.00 Build 0)  -->
<svg version="1.1" id="Camada_1" xmlns="http://www.w3.org/2000/svg" xmlns:xlink="http://www.w3.org/1999/xlink" x="0px" y="0px"
	 viewBox="0 0 31.7 10.6" style="enable-background:new 0 0 31.7 10.6;" xml:space="preserve">
<style type="text/css">
	.st0{fill:#DF193F;}
</style>
<path class="st0" d="M27.1,10.6h-2.3l-3.7-8.5v0h-6.7c-1.2,0-1.8,0.4-1.8,1.1s0.6,1.1,1.8,1.1h3.2c2.4,0,3.5,1.1,3.5,3.2
	c0,2.1-1.2,3.2-3.5,3.2H9.2L5.7,2.7l-3.4,7.9H0L4.6,0h2.3l3.7,8.5v0h6.7c1.2,0,1.8-0.4,1.8-1.1c0-0.7-0.6-1.1-1.8-1.1h-3.2
	c-2.4,0-3.5-1.1-3.5-3.2c0-2.1,1.2-3.2,3.5-3.2h8.4L26,7.9L29.4,0h2.3L27.1,10.6z"/>
</svg>
