<?xml version="1.0" encoding="utf-8"?>
<!-- Generator: Adobe Illustrator 17.0.0, SVG Export Plug-In . SVG Version: 6.00 Build 0)  -->
<!DOCTYPE svg PUBLIC "-//W3C//DTD SVG 1.1//EN" "http://www.w3.org/Graphics/SVG/1.1/DTD/svg11.dtd">
<svg version="1.1" id="Layer_1" xmlns="http://www.w3.org/2000/svg" xmlns:xlink="http://www.w3.org/1999/xlink" x="0px" y="0px"
	 width="612px" height="541.833px" viewBox="0 121.104 612 541.833" enable-background="new 0 121.104 612 541.833"
	 xml:space="preserve">
<g>
	<g>
		<path fill="#8BA2AD" d="M609.049,131.835c-2.74-2.669-6.787-3.495-10.349-2.109L6.231,359.822
			c-3.521,1.367-5.937,4.641-6.206,8.408c-0.269,3.766,1.657,7.35,4.946,9.204l122.781,69.179l42.614,208.294
			c0.265,1.473,0.864,2.844,1.724,4.021c0.086,0.118,0.157,0.209,0.228,0.3c1.501,1.878,3.63,3.189,6.112,3.586
			c0.317,0.05,0.635,0.086,0.95,0.105c0.204,0.013,0.408,0.019,0.611,0.019c1.863,0,3.629-0.532,5.134-1.468
			c0.509-0.316,0.993-0.68,1.443-1.094c0.14-0.129,0.262-0.245,0.38-0.366l92.425-92.66c3.808-3.819,3.801-10.004-0.018-13.812
			c-3.823-3.811-10.002-3.801-13.812,0.018l-72.602,72.787l15.687-134.346l221.724,121.699c2.233,1.219,4.714,1.481,6.988,0.932
			c0.25-0.061,0.478-0.125,0.704-0.198c2.245-0.728,4.215-2.244,5.467-4.419c0.063-0.112,0.12-0.214,0.174-0.316
			c0.253-0.483,0.457-0.956,0.618-1.437l167.122-466.134C612.716,138.525,611.788,134.501,609.049,131.835z M32.551,370.554
			l484.258-188.071L136.078,428.884L32.551,370.554z M194.501,468.837c-0.913,0.733-1.708,1.642-2.33,2.71
			c-0.081,0.14-0.158,0.281-0.232,0.423c-0.593,1.146-0.937,2.357-1.051,3.569l-13.546,116.013l-30.011-146.686l328.836-212.815
			L194.501,468.837z M429.722,591.068L217.813,474.756l363.022-305.179L429.722,591.068z"/>
	</g>
</g>
</svg>
